<?xml version="1.0" encoding="UTF-8" standalone="no"?>
<!DOCTYPE svg PUBLIC "-//W3C//DTD SVG 1.1//EN"
 "http://www.w3.org/Graphics/SVG/1.1/DTD/svg11.dtd">
<!-- Generated by graphviz version 8.0.5 (20230430.1635)
 -->
<!-- Title: Tree Pages: 1 -->
<svg width="550pt" height="373pt"
 viewBox="0.00 0.00 550.38 373.00" xmlns="http://www.w3.org/2000/svg" xmlns:xlink="http://www.w3.org/1999/xlink">
<g id="graph0" class="graph" transform="scale(1 1) rotate(0) translate(4 369)">
<title>Tree</title>
<polygon fill="white" stroke="none" points="-4,4 -4,-369 546.38,-369 546.38,4 -4,4"/>
<!-- 0 -->
<g id="node1" class="node">
<title>0</title>
<polygon fill="#fdfcff" stroke="black" points="277.88,-365 110.38,-365 110.38,-297 277.88,-297 277.88,-365"/>
<text text-anchor="middle" x="194.12" y="-347.7" font-family="Helvetica,sans-Serif" font-size="14.00">petal length (cm) &lt;= 2.45</text>
<text text-anchor="middle" x="194.12" y="-332.7" font-family="Helvetica,sans-Serif" font-size="14.00">samples = 112</text>
<text text-anchor="middle" x="194.12" y="-317.7" font-family="Helvetica,sans-Serif" font-size="14.00">value = [35, 38, 39]</text>
<text text-anchor="middle" x="194.12" y="-302.7" font-family="Helvetica,sans-Serif" font-size="14.00">class = virginica</text>
</g>
<!-- 1 -->
<g id="node2" class="node">
<title>1</title>
<polygon fill="#e58139" stroke="black" points="174.38,-253.5 57.88,-253.5 57.88,-200.5 174.38,-200.5 174.38,-253.5"/>
<text text-anchor="middle" x="116.12" y="-236.2" font-family="Helvetica,sans-Serif" font-size="14.00">samples = 35</text>
<text text-anchor="middle" x="116.12" y="-221.2" font-family="Helvetica,sans-Serif" font-size="14.00">value = [35, 0, 0]</text>
<text text-anchor="middle" x="116.12" y="-206.2" font-family="Helvetica,sans-Serif" font-size="14.00">class = setosa</text>
</g>
<!-- 0&#45;&gt;1 -->
<g id="edge1" class="edge">
<title>0&#45;&gt;1</title>
<path fill="none" stroke="black" d="M168.58,-296.6C160.17,-285.6 150.8,-273.35 142.34,-262.28"/>
<polygon fill="black" stroke="black" points="144.64,-260.52 135.78,-254.71 139.08,-264.78 144.64,-260.52"/>
<text text-anchor="middle" x="132.48" y="-272.69" font-family="Helvetica,sans-Serif" font-size="14.00">True</text>
</g>
<!-- 2 -->
<g id="node3" class="node">
<title>2</title>
<polygon fill="#fcfafe" stroke="black" points="354.25,-261 192,-261 192,-193 354.25,-193 354.25,-261"/>
<text text-anchor="middle" x="273.12" y="-243.7" font-family="Helvetica,sans-Serif" font-size="14.00">petal width (cm) &lt;= 1.65</text>
<text text-anchor="middle" x="273.12" y="-228.7" font-family="Helvetica,sans-Serif" font-size="14.00">samples = 77</text>
<text text-anchor="middle" x="273.12" y="-213.7" font-family="Helvetica,sans-Serif" font-size="14.00">value = [0, 38, 39]</text>
<text text-anchor="middle" x="273.12" y="-198.7" font-family="Helvetica,sans-Serif" font-size="14.00">class = virginica</text>
</g>
<!-- 0&#45;&gt;2 -->
<g id="edge2" class="edge">
<title>0&#45;&gt;2</title>
<path fill="none" stroke="black" d="M219.99,-296.6C226.54,-288.15 233.66,-278.96 240.49,-270.13"/>
<polygon fill="black" stroke="black" points="243.84,-272.52 247.2,-262.47 238.31,-268.24 243.84,-272.52"/>
<text text-anchor="middle" x="250.35" y="-280.47" font-family="Helvetica,sans-Serif" font-size="14.00">False</text>
</g>
<!-- 3 -->
<g id="node4" class="node">
<title>3</title>
<polygon fill="#49e78b" stroke="black" points="263.88,-157 96.38,-157 96.38,-89 263.88,-89 263.88,-157"/>
<text text-anchor="middle" x="180.12" y="-139.7" font-family="Helvetica,sans-Serif" font-size="14.00">petal length (cm) &lt;= 4.95</text>
<text text-anchor="middle" x="180.12" y="-124.7" font-family="Helvetica,sans-Serif" font-size="14.00">samples = 40</text>
<text text-anchor="middle" x="180.12" y="-109.7" font-family="Helvetica,sans-Serif" font-size="14.00">value = [0, 37, 3]</text>
<text text-anchor="middle" x="180.12" y="-94.7" font-family="Helvetica,sans-Serif" font-size="14.00">class = versicolor</text>
</g>
<!-- 2&#45;&gt;3 -->
<g id="edge3" class="edge">
<title>2&#45;&gt;3</title>
<path fill="none" stroke="black" d="M242.67,-192.6C234.81,-183.97 226.24,-174.58 218.04,-165.58"/>
<polygon fill="black" stroke="black" points="220.97,-163.51 211.65,-158.47 215.8,-168.22 220.97,-163.51"/>
</g>
<!-- 6 -->
<g id="node7" class="node">
<title>6</title>
<polygon fill="#843ee6" stroke="black" points="449.88,-157 282.38,-157 282.38,-89 449.88,-89 449.88,-157"/>
<text text-anchor="middle" x="366.12" y="-139.7" font-family="Helvetica,sans-Serif" font-size="14.00">petal length (cm) &lt;= 4.85</text>
<text text-anchor="middle" x="366.12" y="-124.7" font-family="Helvetica,sans-Serif" font-size="14.00">samples = 37</text>
<text text-anchor="middle" x="366.12" y="-109.7" font-family="Helvetica,sans-Serif" font-size="14.00">value = [0, 1, 36]</text>
<text text-anchor="middle" x="366.12" y="-94.7" font-family="Helvetica,sans-Serif" font-size="14.00">class = virginica</text>
</g>
<!-- 2&#45;&gt;6 -->
<g id="edge6" class="edge">
<title>2&#45;&gt;6</title>
<path fill="none" stroke="black" d="M303.58,-192.6C311.44,-183.97 320.01,-174.58 328.21,-165.58"/>
<polygon fill="black" stroke="black" points="330.45,-168.22 334.6,-158.47 325.28,-163.51 330.45,-168.22"/>
</g>
<!-- 4 -->
<g id="node5" class="node">
<title>4</title>
<polygon fill="#39e581" stroke="black" points="120.25,-53 0,-53 0,0 120.25,0 120.25,-53"/>
<text text-anchor="middle" x="60.12" y="-35.7" font-family="Helvetica,sans-Serif" font-size="14.00">samples = 36</text>
<text text-anchor="middle" x="60.12" y="-20.7" font-family="Helvetica,sans-Serif" font-size="14.00">value = [0, 36, 0]</text>
<text text-anchor="middle" x="60.12" y="-5.7" font-family="Helvetica,sans-Serif" font-size="14.00">class = versicolor</text>
</g>
<!-- 3&#45;&gt;4 -->
<g id="edge4" class="edge">
<title>3&#45;&gt;4</title>
<path fill="none" stroke="black" d="M137.82,-88.68C125.98,-79.36 113.13,-69.24 101.36,-59.97"/>
<polygon fill="black" stroke="black" points="104.03,-56.83 94.01,-53.39 99.7,-62.33 104.03,-56.83"/>
</g>
<!-- 5 -->
<g id="node6" class="node">
<title>5</title>
<polygon fill="#ab7bee" stroke="black" points="250.12,-53 138.12,-53 138.12,0 250.12,0 250.12,-53"/>
<text text-anchor="middle" x="194.12" y="-35.7" font-family="Helvetica,sans-Serif" font-size="14.00">samples = 4</text>
<text text-anchor="middle" x="194.12" y="-20.7" font-family="Helvetica,sans-Serif" font-size="14.00">value = [0, 1, 3]</text>
<text text-anchor="middle" x="194.12" y="-5.7" font-family="Helvetica,sans-Serif" font-size="14.00">class = virginica</text>
</g>
<!-- 3&#45;&gt;5 -->
<g id="edge5" class="edge">
<title>3&#45;&gt;5</title>
<path fill="none" stroke="black" d="M185.06,-88.68C186.24,-80.72 187.51,-72.17 188.71,-64.07"/>
<polygon fill="black" stroke="black" points="192.29,-64.8 190.29,-54.39 185.36,-63.77 192.29,-64.8"/>
</g>
<!-- 7 -->
<g id="node8" class="node">
<title>7</title>
<polygon fill="#c09cf2" stroke="black" points="408.12,-53 296.12,-53 296.12,0 408.12,0 408.12,-53"/>
<text text-anchor="middle" x="352.12" y="-35.7" font-family="Helvetica,sans-Serif" font-size="14.00">samples = 3</text>
<text text-anchor="middle" x="352.12" y="-20.7" font-family="Helvetica,sans-Serif" font-size="14.00">value = [0, 1, 2]</text>
<text text-anchor="middle" x="352.12" y="-5.7" font-family="Helvetica,sans-Serif" font-size="14.00">class = virginica</text>
</g>
<!-- 6&#45;&gt;7 -->
<g id="edge7" class="edge">
<title>6&#45;&gt;7</title>
<path fill="none" stroke="black" d="M361.19,-88.68C360.01,-80.72 358.74,-72.17 357.54,-64.07"/>
<polygon fill="black" stroke="black" points="360.89,-63.77 355.96,-54.39 353.96,-64.8 360.89,-63.77"/>
</g>
<!-- 8 -->
<g id="node9" class="node">
<title>8</title>
<polygon fill="#8139e5" stroke="black" points="542.38,-53 425.88,-53 425.88,0 542.38,0 542.38,-53"/>
<text text-anchor="middle" x="484.12" y="-35.7" font-family="Helvetica,sans-Serif" font-size="14.00">samples = 34</text>
<text text-anchor="middle" x="484.12" y="-20.7" font-family="Helvetica,sans-Serif" font-size="14.00">value = [0, 0, 34]</text>
<text text-anchor="middle" x="484.12" y="-5.7" font-family="Helvetica,sans-Serif" font-size="14.00">class = virginica</text>
</g>
<!-- 6&#45;&gt;8 -->
<g id="edge8" class="edge">
<title>6&#45;&gt;8</title>
<path fill="none" stroke="black" d="M407.73,-88.68C419.25,-79.45 431.75,-69.44 443.24,-60.24"/>
<polygon fill="black" stroke="black" points="445.17,-62.38 450.79,-53.39 440.8,-56.91 445.17,-62.38"/>
</g>
</g>
</svg>