<?xml version="1.0" encoding="UTF-8" standalone="no"?>
<!DOCTYPE svg PUBLIC "-//W3C//DTD SVG 1.1//EN"
 "http://www.w3.org/Graphics/SVG/1.1/DTD/svg11.dtd">
<!-- Generated by graphviz version 2.50.0 (0)
 -->
<!-- Title: Tree Pages: 1 -->
<svg width="676pt" height="581pt"
 viewBox="0.00 0.00 676.00 581.00" xmlns="http://www.w3.org/2000/svg" xmlns:xlink="http://www.w3.org/1999/xlink">
<g id="graph0" class="graph" transform="scale(1 1) rotate(0) translate(4 577)">
<title>Tree</title>
<polygon fill="white" stroke="transparent" points="-4,4 -4,-577 672,-577 672,4 -4,4"/>
<!-- 0 -->
<g id="node1" class="node">
<title>0</title>
<polygon fill="#fdfcff" stroke="black" points="366.5,-573 198.5,-573 198.5,-505 366.5,-505 366.5,-573"/>
<text text-anchor="middle" x="282.5" y="-557.8" font-family="Helvetica,sans-Serif" font-size="14.00">petal length (cm) &lt;= 2.45</text>
<text text-anchor="middle" x="282.5" y="-542.8" font-family="Helvetica,sans-Serif" font-size="14.00">samples = 112</text>
<text text-anchor="middle" x="282.5" y="-527.8" font-family="Helvetica,sans-Serif" font-size="14.00">value = [35, 38, 39]</text>
<text text-anchor="middle" x="282.5" y="-512.8" font-family="Helvetica,sans-Serif" font-size="14.00">class = virginica</text>
</g>
<!-- 1 -->
<g id="node2" class="node">
<title>1</title>
<polygon fill="#e58139" stroke="black" points="262,-461.5 145,-461.5 145,-408.5 262,-408.5 262,-461.5"/>
<text text-anchor="middle" x="203.5" y="-446.3" font-family="Helvetica,sans-Serif" font-size="14.00">samples = 35</text>
<text text-anchor="middle" x="203.5" y="-431.3" font-family="Helvetica,sans-Serif" font-size="14.00">value = [35, 0, 0]</text>
<text text-anchor="middle" x="203.5" y="-416.3" font-family="Helvetica,sans-Serif" font-size="14.00">class = setosa</text>
</g>
<!-- 0&#45;&gt;1 -->
<g id="edge1" class="edge">
<title>0&#45;&gt;1</title>
<path fill="none" stroke="black" d="M256.85,-504.88C248.08,-493.56 238.26,-480.88 229.46,-469.52"/>
<polygon fill="black" stroke="black" points="232.16,-467.28 223.27,-461.52 226.62,-471.57 232.16,-467.28"/>
<text text-anchor="middle" x="220.11" y="-482.62" font-family="Helvetica,sans-Serif" font-size="14.00">True</text>
</g>
<!-- 2 -->
<g id="node3" class="node">
<title>2</title>
<polygon fill="#fcfafe" stroke="black" points="443,-469 280,-469 280,-401 443,-401 443,-469"/>
<text text-anchor="middle" x="361.5" y="-453.8" font-family="Helvetica,sans-Serif" font-size="14.00">petal width (cm) &lt;= 1.65</text>
<text text-anchor="middle" x="361.5" y="-438.8" font-family="Helvetica,sans-Serif" font-size="14.00">samples = 77</text>
<text text-anchor="middle" x="361.5" y="-423.8" font-family="Helvetica,sans-Serif" font-size="14.00">value = [0, 38, 39]</text>
<text text-anchor="middle" x="361.5" y="-408.8" font-family="Helvetica,sans-Serif" font-size="14.00">class = virginica</text>
</g>
<!-- 0&#45;&gt;2 -->
<g id="edge2" class="edge">
<title>0&#45;&gt;2</title>
<path fill="none" stroke="black" d="M308.15,-504.88C314.98,-496.07 322.44,-486.43 329.56,-477.24"/>
<polygon fill="black" stroke="black" points="332.35,-479.35 335.71,-469.3 326.82,-475.06 332.35,-479.35"/>
<text text-anchor="middle" x="338.86" y="-490.4" font-family="Helvetica,sans-Serif" font-size="14.00">False</text>
</g>
<!-- 3 -->
<g id="node4" class="node">
<title>3</title>
<polygon fill="#49e78b" stroke="black" points="352.5,-365 184.5,-365 184.5,-297 352.5,-297 352.5,-365"/>
<text text-anchor="middle" x="268.5" y="-349.8" font-family="Helvetica,sans-Serif" font-size="14.00">petal length (cm) &lt;= 4.95</text>
<text text-anchor="middle" x="268.5" y="-334.8" font-family="Helvetica,sans-Serif" font-size="14.00">samples = 40</text>
<text text-anchor="middle" x="268.5" y="-319.8" font-family="Helvetica,sans-Serif" font-size="14.00">value = [0, 37, 3]</text>
<text text-anchor="middle" x="268.5" y="-304.8" font-family="Helvetica,sans-Serif" font-size="14.00">class = versicolor</text>
</g>
<!-- 2&#45;&gt;3 -->
<g id="edge3" class="edge">
<title>2&#45;&gt;3</title>
<path fill="none" stroke="black" d="M331.31,-400.88C323.18,-391.98 314.3,-382.24 305.84,-372.96"/>
<polygon fill="black" stroke="black" points="308.19,-370.33 298.86,-365.3 303.01,-375.05 308.19,-370.33"/>
</g>
<!-- 10 -->
<g id="node11" class="node">
<title>10</title>
<polygon fill="#843ee6" stroke="black" points="538.5,-365 370.5,-365 370.5,-297 538.5,-297 538.5,-365"/>
<text text-anchor="middle" x="454.5" y="-349.8" font-family="Helvetica,sans-Serif" font-size="14.00">petal length (cm) &lt;= 4.85</text>
<text text-anchor="middle" x="454.5" y="-334.8" font-family="Helvetica,sans-Serif" font-size="14.00">samples = 37</text>
<text text-anchor="middle" x="454.5" y="-319.8" font-family="Helvetica,sans-Serif" font-size="14.00">value = [0, 1, 36]</text>
<text text-anchor="middle" x="454.5" y="-304.8" font-family="Helvetica,sans-Serif" font-size="14.00">class = virginica</text>
</g>
<!-- 2&#45;&gt;10 -->
<g id="edge10" class="edge">
<title>2&#45;&gt;10</title>
<path fill="none" stroke="black" d="M391.69,-400.88C399.82,-391.98 408.7,-382.24 417.16,-372.96"/>
<polygon fill="black" stroke="black" points="419.99,-375.05 424.14,-365.3 414.81,-370.33 419.99,-375.05"/>
</g>
<!-- 4 -->
<g id="node5" class="node">
<title>4</title>
<polygon fill="#39e581" stroke="black" points="166,-253.5 45,-253.5 45,-200.5 166,-200.5 166,-253.5"/>
<text text-anchor="middle" x="105.5" y="-238.3" font-family="Helvetica,sans-Serif" font-size="14.00">samples = 36</text>
<text text-anchor="middle" x="105.5" y="-223.3" font-family="Helvetica,sans-Serif" font-size="14.00">value = [0, 36, 0]</text>
<text text-anchor="middle" x="105.5" y="-208.3" font-family="Helvetica,sans-Serif" font-size="14.00">class = versicolor</text>
</g>
<!-- 3&#45;&gt;4 -->
<g id="edge4" class="edge">
<title>3&#45;&gt;4</title>
<path fill="none" stroke="black" d="M215.58,-296.88C196.07,-284.68 174.06,-270.9 154.88,-258.9"/>
<polygon fill="black" stroke="black" points="156.62,-255.86 146.28,-253.52 152.9,-261.79 156.62,-255.86"/>
</g>
<!-- 5 -->
<g id="node6" class="node">
<title>5</title>
<polygon fill="#ab7bee" stroke="black" points="355,-261 184,-261 184,-193 355,-193 355,-261"/>
<text text-anchor="middle" x="269.5" y="-245.8" font-family="Helvetica,sans-Serif" font-size="14.00">sepal length (cm) &lt;= 6.15</text>
<text text-anchor="middle" x="269.5" y="-230.8" font-family="Helvetica,sans-Serif" font-size="14.00">samples = 4</text>
<text text-anchor="middle" x="269.5" y="-215.8" font-family="Helvetica,sans-Serif" font-size="14.00">value = [0, 1, 3]</text>
<text text-anchor="middle" x="269.5" y="-200.8" font-family="Helvetica,sans-Serif" font-size="14.00">class = virginica</text>
</g>
<!-- 3&#45;&gt;5 -->
<g id="edge5" class="edge">
<title>3&#45;&gt;5</title>
<path fill="none" stroke="black" d="M268.82,-296.88C268.9,-288.78 268.99,-279.98 269.07,-271.47"/>
<polygon fill="black" stroke="black" points="272.58,-271.33 269.17,-261.3 265.58,-271.26 272.58,-271.33"/>
</g>
<!-- 6 -->
<g id="node7" class="node">
<title>6</title>
<polygon fill="#ffffff" stroke="black" points="207.5,-157 39.5,-157 39.5,-89 207.5,-89 207.5,-157"/>
<text text-anchor="middle" x="123.5" y="-141.8" font-family="Helvetica,sans-Serif" font-size="14.00">petal length (cm) &lt;= 5.05</text>
<text text-anchor="middle" x="123.5" y="-126.8" font-family="Helvetica,sans-Serif" font-size="14.00">samples = 2</text>
<text text-anchor="middle" x="123.5" y="-111.8" font-family="Helvetica,sans-Serif" font-size="14.00">value = [0, 1, 1]</text>
<text text-anchor="middle" x="123.5" y="-96.8" font-family="Helvetica,sans-Serif" font-size="14.00">class = versicolor</text>
</g>
<!-- 5&#45;&gt;6 -->
<g id="edge6" class="edge">
<title>5&#45;&gt;6</title>
<path fill="none" stroke="black" d="M222.1,-192.88C208.58,-183.44 193.73,-173.06 179.74,-163.29"/>
<polygon fill="black" stroke="black" points="181.37,-160.16 171.16,-157.3 177.36,-165.9 181.37,-160.16"/>
</g>
<!-- 9 -->
<g id="node10" class="node">
<title>9</title>
<polygon fill="#8139e5" stroke="black" points="339,-149.5 226,-149.5 226,-96.5 339,-96.5 339,-149.5"/>
<text text-anchor="middle" x="282.5" y="-134.3" font-family="Helvetica,sans-Serif" font-size="14.00">samples = 2</text>
<text text-anchor="middle" x="282.5" y="-119.3" font-family="Helvetica,sans-Serif" font-size="14.00">value = [0, 0, 2]</text>
<text text-anchor="middle" x="282.5" y="-104.3" font-family="Helvetica,sans-Serif" font-size="14.00">class = virginica</text>
</g>
<!-- 5&#45;&gt;9 -->
<g id="edge9" class="edge">
<title>5&#45;&gt;9</title>
<path fill="none" stroke="black" d="M273.72,-192.88C275.08,-182.22 276.59,-170.35 277.97,-159.52"/>
<polygon fill="black" stroke="black" points="281.46,-159.88 279.25,-149.52 274.51,-159 281.46,-159.88"/>
</g>
<!-- 7 -->
<g id="node8" class="node">
<title>7</title>
<polygon fill="#8139e5" stroke="black" points="113,-53 0,-53 0,0 113,0 113,-53"/>
<text text-anchor="middle" x="56.5" y="-37.8" font-family="Helvetica,sans-Serif" font-size="14.00">samples = 1</text>
<text text-anchor="middle" x="56.5" y="-22.8" font-family="Helvetica,sans-Serif" font-size="14.00">value = [0, 0, 1]</text>
<text text-anchor="middle" x="56.5" y="-7.8" font-family="Helvetica,sans-Serif" font-size="14.00">class = virginica</text>
</g>
<!-- 6&#45;&gt;7 -->
<g id="edge7" class="edge">
<title>6&#45;&gt;7</title>
<path fill="none" stroke="black" d="M100.07,-88.95C93.78,-80.07 86.96,-70.46 80.63,-61.54"/>
<polygon fill="black" stroke="black" points="83.39,-59.37 74.75,-53.24 77.68,-63.42 83.39,-59.37"/>
</g>
<!-- 8 -->
<g id="node9" class="node">
<title>8</title>
<polygon fill="#39e581" stroke="black" points="252,-53 131,-53 131,0 252,0 252,-53"/>
<text text-anchor="middle" x="191.5" y="-37.8" font-family="Helvetica,sans-Serif" font-size="14.00">samples = 1</text>
<text text-anchor="middle" x="191.5" y="-22.8" font-family="Helvetica,sans-Serif" font-size="14.00">value = [0, 1, 0]</text>
<text text-anchor="middle" x="191.5" y="-7.8" font-family="Helvetica,sans-Serif" font-size="14.00">class = versicolor</text>
</g>
<!-- 6&#45;&gt;8 -->
<g id="edge8" class="edge">
<title>6&#45;&gt;8</title>
<path fill="none" stroke="black" d="M147.28,-88.95C153.67,-80.07 160.58,-70.46 167.01,-61.54"/>
<polygon fill="black" stroke="black" points="169.98,-63.4 172.98,-53.24 164.3,-59.31 169.98,-63.4"/>
</g>
<!-- 11 -->
<g id="node12" class="node">
<title>11</title>
<polygon fill="#c09cf2" stroke="black" points="532.5,-261 374.5,-261 374.5,-193 532.5,-193 532.5,-261"/>
<text text-anchor="middle" x="453.5" y="-245.8" font-family="Helvetica,sans-Serif" font-size="14.00">sepal width (cm) &lt;= 3.1</text>
<text text-anchor="middle" x="453.5" y="-230.8" font-family="Helvetica,sans-Serif" font-size="14.00">samples = 3</text>
<text text-anchor="middle" x="453.5" y="-215.8" font-family="Helvetica,sans-Serif" font-size="14.00">value = [0, 1, 2]</text>
<text text-anchor="middle" x="453.5" y="-200.8" font-family="Helvetica,sans-Serif" font-size="14.00">class = virginica</text>
</g>
<!-- 10&#45;&gt;11 -->
<g id="edge11" class="edge">
<title>10&#45;&gt;11</title>
<path fill="none" stroke="black" d="M454.18,-296.88C454.1,-288.78 454.01,-279.98 453.93,-271.47"/>
<polygon fill="black" stroke="black" points="457.42,-271.26 453.83,-261.3 450.42,-271.33 457.42,-271.26"/>
</g>
<!-- 14 -->
<g id="node15" class="node">
<title>14</title>
<polygon fill="#8139e5" stroke="black" points="668,-253.5 551,-253.5 551,-200.5 668,-200.5 668,-253.5"/>
<text text-anchor="middle" x="609.5" y="-238.3" font-family="Helvetica,sans-Serif" font-size="14.00">samples = 34</text>
<text text-anchor="middle" x="609.5" y="-223.3" font-family="Helvetica,sans-Serif" font-size="14.00">value = [0, 0, 34]</text>
<text text-anchor="middle" x="609.5" y="-208.3" font-family="Helvetica,sans-Serif" font-size="14.00">class = virginica</text>
</g>
<!-- 10&#45;&gt;14 -->
<g id="edge14" class="edge">
<title>10&#45;&gt;14</title>
<path fill="none" stroke="black" d="M504.82,-296.88C523.21,-284.79 543.93,-271.15 562.05,-259.22"/>
<polygon fill="black" stroke="black" points="564.29,-261.94 570.72,-253.52 560.44,-256.09 564.29,-261.94"/>
</g>
<!-- 12 -->
<g id="node13" class="node">
<title>12</title>
<polygon fill="#8139e5" stroke="black" points="497,-149.5 384,-149.5 384,-96.5 497,-96.5 497,-149.5"/>
<text text-anchor="middle" x="440.5" y="-134.3" font-family="Helvetica,sans-Serif" font-size="14.00">samples = 2</text>
<text text-anchor="middle" x="440.5" y="-119.3" font-family="Helvetica,sans-Serif" font-size="14.00">value = [0, 0, 2]</text>
<text text-anchor="middle" x="440.5" y="-104.3" font-family="Helvetica,sans-Serif" font-size="14.00">class = virginica</text>
</g>
<!-- 11&#45;&gt;12 -->
<g id="edge12" class="edge">
<title>11&#45;&gt;12</title>
<path fill="none" stroke="black" d="M449.28,-192.88C447.92,-182.22 446.41,-170.35 445.03,-159.52"/>
<polygon fill="black" stroke="black" points="448.49,-159 443.75,-149.52 441.54,-159.88 448.49,-159"/>
</g>
<!-- 13 -->
<g id="node14" class="node">
<title>13</title>
<polygon fill="#39e581" stroke="black" points="636,-149.5 515,-149.5 515,-96.5 636,-96.5 636,-149.5"/>
<text text-anchor="middle" x="575.5" y="-134.3" font-family="Helvetica,sans-Serif" font-size="14.00">samples = 1</text>
<text text-anchor="middle" x="575.5" y="-119.3" font-family="Helvetica,sans-Serif" font-size="14.00">value = [0, 1, 0]</text>
<text text-anchor="middle" x="575.5" y="-104.3" font-family="Helvetica,sans-Serif" font-size="14.00">class = versicolor</text>
</g>
<!-- 11&#45;&gt;13 -->
<g id="edge13" class="edge">
<title>11&#45;&gt;13</title>
<path fill="none" stroke="black" d="M493.11,-192.88C507.19,-181.12 523,-167.89 536.98,-156.2"/>
<polygon fill="black" stroke="black" points="539.55,-158.62 544.98,-149.52 535.06,-153.25 539.55,-158.62"/>
</g>
</g>
</svg>