<?xml version="1.0" encoding="UTF-8" standalone="no"?>
<!DOCTYPE svg PUBLIC "-//W3C//DTD SVG 1.1//EN"
 "http://www.w3.org/Graphics/SVG/1.1/DTD/svg11.dtd">
<!-- Generated by graphviz version 2.38.0 (20140413.2041)
 -->
<!-- Title: Tree Pages: 1 -->
<svg width="645pt" height="581pt"
 viewBox="0.00 0.00 644.50 581.00" xmlns="http://www.w3.org/2000/svg" xmlns:xlink="http://www.w3.org/1999/xlink">
<g id="graph0" class="graph" transform="scale(1 1) rotate(0) translate(4 577)">
<title>Tree</title>
<polygon fill="white" stroke="none" points="-4,4 -4,-577 640.5,-577 640.5,4 -4,4"/>
<!-- 0 -->
<g id="node1" class="node"><title>0</title>
<polygon fill="#fdfcff" stroke="black" points="341,-573 192,-573 192,-505 341,-505 341,-573"/>
<text text-anchor="middle" x="266.5" y="-557.8" font-family="Times New Roman,serif" font-size="14.00">petal width (cm) &lt;= 0.8</text>
<text text-anchor="middle" x="266.5" y="-542.8" font-family="Times New Roman,serif" font-size="14.00">samples = 112</text>
<text text-anchor="middle" x="266.5" y="-527.8" font-family="Times New Roman,serif" font-size="14.00">value = [35, 38, 39]</text>
<text text-anchor="middle" x="266.5" y="-512.8" font-family="Times New Roman,serif" font-size="14.00">class = virginica</text>
</g>
<!-- 1 -->
<g id="node2" class="node"><title>1</title>
<polygon fill="#e58139" stroke="black" points="246.5,-461.5 134.5,-461.5 134.5,-408.5 246.5,-408.5 246.5,-461.5"/>
<text text-anchor="middle" x="190.5" y="-446.3" font-family="Times New Roman,serif" font-size="14.00">samples = 35</text>
<text text-anchor="middle" x="190.5" y="-431.3" font-family="Times New Roman,serif" font-size="14.00">value = [35, 0, 0]</text>
<text text-anchor="middle" x="190.5" y="-416.3" font-family="Times New Roman,serif" font-size="14.00">class = setosa</text>
</g>
<!-- 0&#45;&gt;1 -->
<g id="edge1" class="edge"><title>0&#45;&gt;1</title>
<path fill="none" stroke="black" d="M241.825,-504.884C233.467,-493.666 224.123,-481.126 215.723,-469.852"/>
<polygon fill="black" stroke="black" points="218.296,-467.448 209.515,-461.52 212.683,-471.63 218.296,-467.448"/>
<text text-anchor="middle" x="205.902" y="-482.557" font-family="Times New Roman,serif" font-size="14.00">True</text>
</g>
<!-- 2 -->
<g id="node3" class="node"><title>2</title>
<polygon fill="#fcfafe" stroke="black" points="420,-469 265,-469 265,-401 420,-401 420,-469"/>
<text text-anchor="middle" x="342.5" y="-453.8" font-family="Times New Roman,serif" font-size="14.00">petal width (cm) &lt;= 1.65</text>
<text text-anchor="middle" x="342.5" y="-438.8" font-family="Times New Roman,serif" font-size="14.00">samples = 77</text>
<text text-anchor="middle" x="342.5" y="-423.8" font-family="Times New Roman,serif" font-size="14.00">value = [0, 38, 39]</text>
<text text-anchor="middle" x="342.5" y="-408.8" font-family="Times New Roman,serif" font-size="14.00">class = virginica</text>
</g>
<!-- 0&#45;&gt;2 -->
<g id="edge2" class="edge"><title>0&#45;&gt;2</title>
<path fill="none" stroke="black" d="M291.175,-504.884C297.679,-496.154 304.78,-486.625 311.568,-477.514"/>
<polygon fill="black" stroke="black" points="314.52,-479.409 317.689,-469.299 308.907,-475.227 314.52,-479.409"/>
<text text-anchor="middle" x="321.302" y="-490.337" font-family="Times New Roman,serif" font-size="14.00">False</text>
</g>
<!-- 3 -->
<g id="node4" class="node"><title>3</title>
<polygon fill="#49e78b" stroke="black" points="333.5,-365 175.5,-365 175.5,-297 333.5,-297 333.5,-365"/>
<text text-anchor="middle" x="254.5" y="-349.8" font-family="Times New Roman,serif" font-size="14.00">petal length (cm) &lt;= 4.95</text>
<text text-anchor="middle" x="254.5" y="-334.8" font-family="Times New Roman,serif" font-size="14.00">samples = 40</text>
<text text-anchor="middle" x="254.5" y="-319.8" font-family="Times New Roman,serif" font-size="14.00">value = [0, 37, 3]</text>
<text text-anchor="middle" x="254.5" y="-304.8" font-family="Times New Roman,serif" font-size="14.00">class = versicolor</text>
</g>
<!-- 2&#45;&gt;3 -->
<g id="edge3" class="edge"><title>2&#45;&gt;3</title>
<path fill="none" stroke="black" d="M313.929,-400.884C306.244,-391.976 297.84,-382.235 289.835,-372.957"/>
<polygon fill="black" stroke="black" points="292.411,-370.585 283.229,-365.299 287.111,-375.157 292.411,-370.585"/>
</g>
<!-- 10 -->
<g id="node11" class="node"><title>10</title>
<polygon fill="#843ee6" stroke="black" points="509.5,-365 351.5,-365 351.5,-297 509.5,-297 509.5,-365"/>
<text text-anchor="middle" x="430.5" y="-349.8" font-family="Times New Roman,serif" font-size="14.00">petal length (cm) &lt;= 4.85</text>
<text text-anchor="middle" x="430.5" y="-334.8" font-family="Times New Roman,serif" font-size="14.00">samples = 37</text>
<text text-anchor="middle" x="430.5" y="-319.8" font-family="Times New Roman,serif" font-size="14.00">value = [0, 1, 36]</text>
<text text-anchor="middle" x="430.5" y="-304.8" font-family="Times New Roman,serif" font-size="14.00">class = virginica</text>
</g>
<!-- 2&#45;&gt;10 -->
<g id="edge10" class="edge"><title>2&#45;&gt;10</title>
<path fill="none" stroke="black" d="M371.071,-400.884C378.756,-391.976 387.16,-382.235 395.165,-372.957"/>
<polygon fill="black" stroke="black" points="397.889,-375.157 401.771,-365.299 392.589,-370.585 397.889,-375.157"/>
</g>
<!-- 4 -->
<g id="node5" class="node"><title>4</title>
<polygon fill="#39e581" stroke="black" points="157.5,-253.5 41.5,-253.5 41.5,-200.5 157.5,-200.5 157.5,-253.5"/>
<text text-anchor="middle" x="99.5" y="-238.3" font-family="Times New Roman,serif" font-size="14.00">samples = 36</text>
<text text-anchor="middle" x="99.5" y="-223.3" font-family="Times New Roman,serif" font-size="14.00">value = [0, 36, 0]</text>
<text text-anchor="middle" x="99.5" y="-208.3" font-family="Times New Roman,serif" font-size="14.00">class = versicolor</text>
</g>
<!-- 3&#45;&gt;4 -->
<g id="edge4" class="edge"><title>3&#45;&gt;4</title>
<path fill="none" stroke="black" d="M204.176,-296.884C185.792,-284.786 165.073,-271.151 146.948,-259.224"/>
<polygon fill="black" stroke="black" points="148.558,-256.093 138.28,-253.52 144.71,-261.941 148.558,-256.093"/>
</g>
<!-- 5 -->
<g id="node6" class="node"><title>5</title>
<polygon fill="#ab7bee" stroke="black" points="335.5,-261 175.5,-261 175.5,-193 335.5,-193 335.5,-261"/>
<text text-anchor="middle" x="255.5" y="-245.8" font-family="Times New Roman,serif" font-size="14.00">sepal length (cm) &lt;= 6.15</text>
<text text-anchor="middle" x="255.5" y="-230.8" font-family="Times New Roman,serif" font-size="14.00">samples = 4</text>
<text text-anchor="middle" x="255.5" y="-215.8" font-family="Times New Roman,serif" font-size="14.00">value = [0, 1, 3]</text>
<text text-anchor="middle" x="255.5" y="-200.8" font-family="Times New Roman,serif" font-size="14.00">class = virginica</text>
</g>
<!-- 3&#45;&gt;5 -->
<g id="edge5" class="edge"><title>3&#45;&gt;5</title>
<path fill="none" stroke="black" d="M254.825,-296.884C254.904,-288.778 254.99,-279.982 255.074,-271.472"/>
<polygon fill="black" stroke="black" points="258.575,-271.333 255.174,-261.299 251.576,-271.265 258.575,-271.333"/>
</g>
<!-- 6 -->
<g id="node7" class="node"><title>6</title>
<polygon fill="#ffffff" stroke="black" points="196,-157 41,-157 41,-89 196,-89 196,-157"/>
<text text-anchor="middle" x="118.5" y="-141.8" font-family="Times New Roman,serif" font-size="14.00">petal width (cm) &lt;= 1.55</text>
<text text-anchor="middle" x="118.5" y="-126.8" font-family="Times New Roman,serif" font-size="14.00">samples = 2</text>
<text text-anchor="middle" x="118.5" y="-111.8" font-family="Times New Roman,serif" font-size="14.00">value = [0, 1, 1]</text>
<text text-anchor="middle" x="118.5" y="-96.8" font-family="Times New Roman,serif" font-size="14.00">class = versicolor</text>
</g>
<!-- 5&#45;&gt;6 -->
<g id="edge6" class="edge"><title>5&#45;&gt;6</title>
<path fill="none" stroke="black" d="M211.02,-192.884C198.338,-183.442 184.399,-173.064 171.274,-163.292"/>
<polygon fill="black" stroke="black" points="173.337,-160.464 163.226,-157.299 169.156,-166.079 173.337,-160.464"/>
</g>
<!-- 9 -->
<g id="node10" class="node"><title>9</title>
<polygon fill="#8139e5" stroke="black" points="321,-149.5 214,-149.5 214,-96.5 321,-96.5 321,-149.5"/>
<text text-anchor="middle" x="267.5" y="-134.3" font-family="Times New Roman,serif" font-size="14.00">samples = 2</text>
<text text-anchor="middle" x="267.5" y="-119.3" font-family="Times New Roman,serif" font-size="14.00">value = [0, 0, 2]</text>
<text text-anchor="middle" x="267.5" y="-104.3" font-family="Times New Roman,serif" font-size="14.00">class = virginica</text>
</g>
<!-- 5&#45;&gt;9 -->
<g id="edge9" class="edge"><title>5&#45;&gt;9</title>
<path fill="none" stroke="black" d="M259.396,-192.884C260.651,-182.216 262.047,-170.352 263.321,-159.519"/>
<polygon fill="black" stroke="black" points="266.805,-159.86 264.498,-149.52 259.853,-159.042 266.805,-159.86"/>
</g>
<!-- 7 -->
<g id="node8" class="node"><title>7</title>
<polygon fill="#8139e5" stroke="black" points="107,-53 0,-53 0,-0 107,-0 107,-53"/>
<text text-anchor="middle" x="53.5" y="-37.8" font-family="Times New Roman,serif" font-size="14.00">samples = 1</text>
<text text-anchor="middle" x="53.5" y="-22.8" font-family="Times New Roman,serif" font-size="14.00">value = [0, 0, 1]</text>
<text text-anchor="middle" x="53.5" y="-7.8" font-family="Times New Roman,serif" font-size="14.00">class = virginica</text>
</g>
<!-- 6&#45;&gt;7 -->
<g id="edge7" class="edge"><title>6&#45;&gt;7</title>
<path fill="none" stroke="black" d="M95.7662,-88.9485C89.6626,-80.0749 83.0525,-70.4648 76.9129,-61.5388"/>
<polygon fill="black" stroke="black" points="79.7534,-59.4924 71.2025,-53.2367 73.986,-63.4594 79.7534,-59.4924"/>
</g>
<!-- 8 -->
<g id="node9" class="node"><title>8</title>
<polygon fill="#39e581" stroke="black" points="241.5,-53 125.5,-53 125.5,-0 241.5,-0 241.5,-53"/>
<text text-anchor="middle" x="183.5" y="-37.8" font-family="Times New Roman,serif" font-size="14.00">samples = 1</text>
<text text-anchor="middle" x="183.5" y="-22.8" font-family="Times New Roman,serif" font-size="14.00">value = [0, 1, 0]</text>
<text text-anchor="middle" x="183.5" y="-7.8" font-family="Times New Roman,serif" font-size="14.00">class = versicolor</text>
</g>
<!-- 6&#45;&gt;8 -->
<g id="edge8" class="edge"><title>6&#45;&gt;8</title>
<path fill="none" stroke="black" d="M141.234,-88.9485C147.337,-80.0749 153.947,-70.4648 160.087,-61.5388"/>
<polygon fill="black" stroke="black" points="163.014,-63.4594 165.798,-53.2367 157.247,-59.4924 163.014,-63.4594"/>
</g>
<!-- 11 -->
<g id="node12" class="node"><title>11</title>
<polygon fill="#c09cf2" stroke="black" points="506,-261 355,-261 355,-193 506,-193 506,-261"/>
<text text-anchor="middle" x="430.5" y="-245.8" font-family="Times New Roman,serif" font-size="14.00">sepal width (cm) &lt;= 3.1</text>
<text text-anchor="middle" x="430.5" y="-230.8" font-family="Times New Roman,serif" font-size="14.00">samples = 3</text>
<text text-anchor="middle" x="430.5" y="-215.8" font-family="Times New Roman,serif" font-size="14.00">value = [0, 1, 2]</text>
<text text-anchor="middle" x="430.5" y="-200.8" font-family="Times New Roman,serif" font-size="14.00">class = virginica</text>
</g>
<!-- 10&#45;&gt;11 -->
<g id="edge11" class="edge"><title>10&#45;&gt;11</title>
<path fill="none" stroke="black" d="M430.5,-296.884C430.5,-288.778 430.5,-279.982 430.5,-271.472"/>
<polygon fill="black" stroke="black" points="434,-271.299 430.5,-261.299 427,-271.299 434,-271.299"/>
</g>
<!-- 14 -->
<g id="node15" class="node"><title>14</title>
<polygon fill="#8139e5" stroke="black" points="636.5,-253.5 524.5,-253.5 524.5,-200.5 636.5,-200.5 636.5,-253.5"/>
<text text-anchor="middle" x="580.5" y="-238.3" font-family="Times New Roman,serif" font-size="14.00">samples = 34</text>
<text text-anchor="middle" x="580.5" y="-223.3" font-family="Times New Roman,serif" font-size="14.00">value = [0, 0, 34]</text>
<text text-anchor="middle" x="580.5" y="-208.3" font-family="Times New Roman,serif" font-size="14.00">class = virginica</text>
</g>
<!-- 10&#45;&gt;14 -->
<g id="edge14" class="edge"><title>10&#45;&gt;14</title>
<path fill="none" stroke="black" d="M479.201,-296.884C496.991,-284.786 517.043,-271.151 534.583,-259.224"/>
<polygon fill="black" stroke="black" points="536.67,-262.037 542.971,-253.52 532.733,-256.249 536.67,-262.037"/>
</g>
<!-- 12 -->
<g id="node13" class="node"><title>12</title>
<polygon fill="#8139e5" stroke="black" points="471,-149.5 364,-149.5 364,-96.5 471,-96.5 471,-149.5"/>
<text text-anchor="middle" x="417.5" y="-134.3" font-family="Times New Roman,serif" font-size="14.00">samples = 2</text>
<text text-anchor="middle" x="417.5" y="-119.3" font-family="Times New Roman,serif" font-size="14.00">value = [0, 0, 2]</text>
<text text-anchor="middle" x="417.5" y="-104.3" font-family="Times New Roman,serif" font-size="14.00">class = virginica</text>
</g>
<!-- 11&#45;&gt;12 -->
<g id="edge12" class="edge"><title>11&#45;&gt;12</title>
<path fill="none" stroke="black" d="M426.279,-192.884C424.92,-182.216 423.408,-170.352 422.027,-159.519"/>
<polygon fill="black" stroke="black" points="425.489,-158.997 420.753,-149.52 418.545,-159.882 425.489,-158.997"/>
</g>
<!-- 13 -->
<g id="node14" class="node"><title>13</title>
<polygon fill="#39e581" stroke="black" points="605.5,-149.5 489.5,-149.5 489.5,-96.5 605.5,-96.5 605.5,-149.5"/>
<text text-anchor="middle" x="547.5" y="-134.3" font-family="Times New Roman,serif" font-size="14.00">samples = 1</text>
<text text-anchor="middle" x="547.5" y="-119.3" font-family="Times New Roman,serif" font-size="14.00">value = [0, 1, 0]</text>
<text text-anchor="middle" x="547.5" y="-104.3" font-family="Times New Roman,serif" font-size="14.00">class = versicolor</text>
</g>
<!-- 11&#45;&gt;13 -->
<g id="edge13" class="edge"><title>11&#45;&gt;13</title>
<path fill="none" stroke="black" d="M468.487,-192.884C481.985,-181.116 497.151,-167.894 510.561,-156.203"/>
<polygon fill="black" stroke="black" points="512.989,-158.73 518.227,-149.52 508.389,-153.453 512.989,-158.73"/>
</g>
</g>
</svg>