<?xml version="1.0" encoding="UTF-8" standalone="no"?>
<!DOCTYPE svg PUBLIC "-//W3C//DTD SVG 1.1//EN"
 "http://www.w3.org/Graphics/SVG/1.1/DTD/svg11.dtd">
<!-- Generated by graphviz version 8.0.5 (20230430.1635)
 -->
<!-- Title: Tree Pages: 1 -->
<svg width="669pt" height="581pt"
 viewBox="0.00 0.00 669.25 581.00" xmlns="http://www.w3.org/2000/svg" xmlns:xlink="http://www.w3.org/1999/xlink">
<g id="graph0" class="graph" transform="scale(1 1) rotate(0) translate(4 577)">
<title>Tree</title>
<polygon fill="white" stroke="none" points="-4,4 -4,-577 665.25,-577 665.25,4 -4,4"/>
<!-- 0 -->
<g id="node1" class="node">
<title>0</title>
<polygon fill="#fdfcff" stroke="black" points="354.38,-573 199.62,-573 199.62,-505 354.38,-505 354.38,-573"/>
<text text-anchor="middle" x="277" y="-555.7" font-family="Helvetica,sans-Serif" font-size="14.00">petal width (cm) &lt;= 0.8</text>
<text text-anchor="middle" x="277" y="-540.7" font-family="Helvetica,sans-Serif" font-size="14.00">samples = 112</text>
<text text-anchor="middle" x="277" y="-525.7" font-family="Helvetica,sans-Serif" font-size="14.00">value = [35, 38, 39]</text>
<text text-anchor="middle" x="277" y="-510.7" font-family="Helvetica,sans-Serif" font-size="14.00">class = virginica</text>
</g>
<!-- 1 -->
<g id="node2" class="node">
<title>1</title>
<polygon fill="#e58139" stroke="black" points="257.25,-461.5 140.75,-461.5 140.75,-408.5 257.25,-408.5 257.25,-461.5"/>
<text text-anchor="middle" x="199" y="-444.2" font-family="Helvetica,sans-Serif" font-size="14.00">samples = 35</text>
<text text-anchor="middle" x="199" y="-429.2" font-family="Helvetica,sans-Serif" font-size="14.00">value = [35, 0, 0]</text>
<text text-anchor="middle" x="199" y="-414.2" font-family="Helvetica,sans-Serif" font-size="14.00">class = setosa</text>
</g>
<!-- 0&#45;&gt;1 -->
<g id="edge1" class="edge">
<title>0&#45;&gt;1</title>
<path fill="none" stroke="black" d="M251.46,-504.6C243.05,-493.6 233.68,-481.35 225.22,-470.28"/>
<polygon fill="black" stroke="black" points="227.51,-468.52 218.66,-462.71 221.95,-472.78 227.51,-468.52"/>
<text text-anchor="middle" x="215.35" y="-480.69" font-family="Helvetica,sans-Serif" font-size="14.00">True</text>
</g>
<!-- 2 -->
<g id="node3" class="node">
<title>2</title>
<polygon fill="#fcfafe" stroke="black" points="437.12,-469 274.88,-469 274.88,-401 437.12,-401 437.12,-469"/>
<text text-anchor="middle" x="356" y="-451.7" font-family="Helvetica,sans-Serif" font-size="14.00">petal width (cm) &lt;= 1.65</text>
<text text-anchor="middle" x="356" y="-436.7" font-family="Helvetica,sans-Serif" font-size="14.00">samples = 77</text>
<text text-anchor="middle" x="356" y="-421.7" font-family="Helvetica,sans-Serif" font-size="14.00">value = [0, 38, 39]</text>
<text text-anchor="middle" x="356" y="-406.7" font-family="Helvetica,sans-Serif" font-size="14.00">class = virginica</text>
</g>
<!-- 0&#45;&gt;2 -->
<g id="edge2" class="edge">
<title>0&#45;&gt;2</title>
<path fill="none" stroke="black" d="M302.87,-504.6C309.41,-496.15 316.53,-486.96 323.37,-478.13"/>
<polygon fill="black" stroke="black" points="326.72,-480.52 330.07,-470.47 321.18,-476.24 326.72,-480.52"/>
<text text-anchor="middle" x="333.23" y="-488.47" font-family="Helvetica,sans-Serif" font-size="14.00">False</text>
</g>
<!-- 3 -->
<g id="node4" class="node">
<title>3</title>
<polygon fill="#49e78b" stroke="black" points="346.75,-365 179.25,-365 179.25,-297 346.75,-297 346.75,-365"/>
<text text-anchor="middle" x="263" y="-347.7" font-family="Helvetica,sans-Serif" font-size="14.00">petal length (cm) &lt;= 4.95</text>
<text text-anchor="middle" x="263" y="-332.7" font-family="Helvetica,sans-Serif" font-size="14.00">samples = 40</text>
<text text-anchor="middle" x="263" y="-317.7" font-family="Helvetica,sans-Serif" font-size="14.00">value = [0, 37, 3]</text>
<text text-anchor="middle" x="263" y="-302.7" font-family="Helvetica,sans-Serif" font-size="14.00">class = versicolor</text>
</g>
<!-- 2&#45;&gt;3 -->
<g id="edge3" class="edge">
<title>2&#45;&gt;3</title>
<path fill="none" stroke="black" d="M325.55,-400.6C317.68,-391.97 309.11,-382.58 300.91,-373.58"/>
<polygon fill="black" stroke="black" points="303.84,-371.51 294.52,-366.47 298.67,-376.22 303.84,-371.51"/>
</g>
<!-- 10 -->
<g id="node11" class="node">
<title>10</title>
<polygon fill="#843ee6" stroke="black" points="532.75,-365 365.25,-365 365.25,-297 532.75,-297 532.75,-365"/>
<text text-anchor="middle" x="449" y="-347.7" font-family="Helvetica,sans-Serif" font-size="14.00">petal length (cm) &lt;= 4.85</text>
<text text-anchor="middle" x="449" y="-332.7" font-family="Helvetica,sans-Serif" font-size="14.00">samples = 37</text>
<text text-anchor="middle" x="449" y="-317.7" font-family="Helvetica,sans-Serif" font-size="14.00">value = [0, 1, 36]</text>
<text text-anchor="middle" x="449" y="-302.7" font-family="Helvetica,sans-Serif" font-size="14.00">class = virginica</text>
</g>
<!-- 2&#45;&gt;10 -->
<g id="edge10" class="edge">
<title>2&#45;&gt;10</title>
<path fill="none" stroke="black" d="M386.45,-400.6C394.32,-391.97 402.89,-382.58 411.09,-373.58"/>
<polygon fill="black" stroke="black" points="413.33,-376.22 417.48,-366.47 408.16,-371.51 413.33,-376.22"/>
</g>
<!-- 4 -->
<g id="node5" class="node">
<title>4</title>
<polygon fill="#39e581" stroke="black" points="162.12,-253.5 41.88,-253.5 41.88,-200.5 162.12,-200.5 162.12,-253.5"/>
<text text-anchor="middle" x="102" y="-236.2" font-family="Helvetica,sans-Serif" font-size="14.00">samples = 36</text>
<text text-anchor="middle" x="102" y="-221.2" font-family="Helvetica,sans-Serif" font-size="14.00">value = [0, 36, 0]</text>
<text text-anchor="middle" x="102" y="-206.2" font-family="Helvetica,sans-Serif" font-size="14.00">class = versicolor</text>
</g>
<!-- 3&#45;&gt;4 -->
<g id="edge4" class="edge">
<title>3&#45;&gt;4</title>
<path fill="none" stroke="black" d="M210.28,-296.6C191.53,-284.72 170.49,-271.39 151.98,-259.66"/>
<polygon fill="black" stroke="black" points="154.15,-256.26 143.83,-253.87 150.41,-262.18 154.15,-256.26"/>
</g>
<!-- 5 -->
<g id="node6" class="node">
<title>5</title>
<polygon fill="#ab7bee" stroke="black" points="350.25,-261 179.75,-261 179.75,-193 350.25,-193 350.25,-261"/>
<text text-anchor="middle" x="265" y="-243.7" font-family="Helvetica,sans-Serif" font-size="14.00">sepal length (cm) &lt;= 6.15</text>
<text text-anchor="middle" x="265" y="-228.7" font-family="Helvetica,sans-Serif" font-size="14.00">samples = 4</text>
<text text-anchor="middle" x="265" y="-213.7" font-family="Helvetica,sans-Serif" font-size="14.00">value = [0, 1, 3]</text>
<text text-anchor="middle" x="265" y="-198.7" font-family="Helvetica,sans-Serif" font-size="14.00">class = virginica</text>
</g>
<!-- 3&#45;&gt;5 -->
<g id="edge5" class="edge">
<title>3&#45;&gt;5</title>
<path fill="none" stroke="black" d="M263.65,-296.6C263.81,-288.85 263.97,-280.49 264.13,-272.35"/>
<polygon fill="black" stroke="black" points="267.65,-272.54 264.34,-262.47 260.65,-272.4 267.65,-272.54"/>
</g>
<!-- 6 -->
<g id="node7" class="node">
<title>6</title>
<polygon fill="#ffffff" stroke="black" points="204.12,-157 41.88,-157 41.88,-89 204.12,-89 204.12,-157"/>
<text text-anchor="middle" x="123" y="-139.7" font-family="Helvetica,sans-Serif" font-size="14.00">petal width (cm) &lt;= 1.55</text>
<text text-anchor="middle" x="123" y="-124.7" font-family="Helvetica,sans-Serif" font-size="14.00">samples = 2</text>
<text text-anchor="middle" x="123" y="-109.7" font-family="Helvetica,sans-Serif" font-size="14.00">value = [0, 1, 1]</text>
<text text-anchor="middle" x="123" y="-94.7" font-family="Helvetica,sans-Serif" font-size="14.00">class = versicolor</text>
</g>
<!-- 5&#45;&gt;6 -->
<g id="edge6" class="edge">
<title>5&#45;&gt;6</title>
<path fill="none" stroke="black" d="M218.5,-192.6C205.63,-183.36 191.53,-173.23 178.22,-163.66"/>
<polygon fill="black" stroke="black" points="180.76,-160.47 170.6,-157.47 176.68,-166.15 180.76,-160.47"/>
</g>
<!-- 9 -->
<g id="node10" class="node">
<title>9</title>
<polygon fill="#8139e5" stroke="black" points="334,-149.5 222,-149.5 222,-96.5 334,-96.5 334,-149.5"/>
<text text-anchor="middle" x="278" y="-132.2" font-family="Helvetica,sans-Serif" font-size="14.00">samples = 2</text>
<text text-anchor="middle" x="278" y="-117.2" font-family="Helvetica,sans-Serif" font-size="14.00">value = [0, 0, 2]</text>
<text text-anchor="middle" x="278" y="-102.2" font-family="Helvetica,sans-Serif" font-size="14.00">class = virginica</text>
</g>
<!-- 5&#45;&gt;9 -->
<g id="edge9" class="edge">
<title>5&#45;&gt;9</title>
<path fill="none" stroke="black" d="M269.26,-192.6C270.56,-182.36 272,-171.04 273.34,-160.6"/>
<polygon fill="black" stroke="black" points="276.93,-161.07 274.72,-150.71 269.99,-160.18 276.93,-161.07"/>
</g>
<!-- 7 -->
<g id="node8" class="node">
<title>7</title>
<polygon fill="#8139e5" stroke="black" points="112,-53 0,-53 0,0 112,0 112,-53"/>
<text text-anchor="middle" x="56" y="-35.7" font-family="Helvetica,sans-Serif" font-size="14.00">samples = 1</text>
<text text-anchor="middle" x="56" y="-20.7" font-family="Helvetica,sans-Serif" font-size="14.00">value = [0, 0, 1]</text>
<text text-anchor="middle" x="56" y="-5.7" font-family="Helvetica,sans-Serif" font-size="14.00">class = virginica</text>
</g>
<!-- 6&#45;&gt;7 -->
<g id="edge7" class="edge">
<title>6&#45;&gt;7</title>
<path fill="none" stroke="black" d="M99.38,-88.68C93.28,-80.09 86.71,-70.81 80.57,-62.15"/>
<polygon fill="black" stroke="black" points="83,-60.53 74.36,-54.39 77.29,-64.58 83,-60.53"/>
</g>
<!-- 8 -->
<g id="node9" class="node">
<title>8</title>
<polygon fill="#39e581" stroke="black" points="250.12,-53 129.88,-53 129.88,0 250.12,0 250.12,-53"/>
<text text-anchor="middle" x="190" y="-35.7" font-family="Helvetica,sans-Serif" font-size="14.00">samples = 1</text>
<text text-anchor="middle" x="190" y="-20.7" font-family="Helvetica,sans-Serif" font-size="14.00">value = [0, 1, 0]</text>
<text text-anchor="middle" x="190" y="-5.7" font-family="Helvetica,sans-Serif" font-size="14.00">class = versicolor</text>
</g>
<!-- 6&#45;&gt;8 -->
<g id="edge8" class="edge">
<title>6&#45;&gt;8</title>
<path fill="none" stroke="black" d="M146.62,-88.68C152.72,-80.09 159.29,-70.81 165.43,-62.15"/>
<polygon fill="black" stroke="black" points="168.71,-64.58 171.64,-54.39 163,-60.53 168.71,-64.58"/>
</g>
<!-- 11 -->
<g id="node12" class="node">
<title>11</title>
<polygon fill="#c09cf2" stroke="black" points="526.88,-261 369.12,-261 369.12,-193 526.88,-193 526.88,-261"/>
<text text-anchor="middle" x="448" y="-243.7" font-family="Helvetica,sans-Serif" font-size="14.00">sepal width (cm) &lt;= 3.1</text>
<text text-anchor="middle" x="448" y="-228.7" font-family="Helvetica,sans-Serif" font-size="14.00">samples = 3</text>
<text text-anchor="middle" x="448" y="-213.7" font-family="Helvetica,sans-Serif" font-size="14.00">value = [0, 1, 2]</text>
<text text-anchor="middle" x="448" y="-198.7" font-family="Helvetica,sans-Serif" font-size="14.00">class = virginica</text>
</g>
<!-- 10&#45;&gt;11 -->
<g id="edge11" class="edge">
<title>10&#45;&gt;11</title>
<path fill="none" stroke="black" d="M448.67,-296.6C448.6,-288.85 448.51,-280.49 448.43,-272.35"/>
<polygon fill="black" stroke="black" points="451.93,-272.44 448.33,-262.47 444.93,-272.51 451.93,-272.44"/>
</g>
<!-- 14 -->
<g id="node15" class="node">
<title>14</title>
<polygon fill="#8139e5" stroke="black" points="661.25,-253.5 544.75,-253.5 544.75,-200.5 661.25,-200.5 661.25,-253.5"/>
<text text-anchor="middle" x="603" y="-236.2" font-family="Helvetica,sans-Serif" font-size="14.00">samples = 34</text>
<text text-anchor="middle" x="603" y="-221.2" font-family="Helvetica,sans-Serif" font-size="14.00">value = [0, 0, 34]</text>
<text text-anchor="middle" x="603" y="-206.2" font-family="Helvetica,sans-Serif" font-size="14.00">class = virginica</text>
</g>
<!-- 10&#45;&gt;14 -->
<g id="edge14" class="edge">
<title>10&#45;&gt;14</title>
<path fill="none" stroke="black" d="M499.43,-296.6C517.35,-284.73 537.47,-271.4 555.18,-259.68"/>
<polygon fill="black" stroke="black" points="556.78,-262.15 563.19,-253.71 552.92,-256.31 556.78,-262.15"/>
</g>
<!-- 12 -->
<g id="node13" class="node">
<title>12</title>
<polygon fill="#8139e5" stroke="black" points="492,-149.5 380,-149.5 380,-96.5 492,-96.5 492,-149.5"/>
<text text-anchor="middle" x="436" y="-132.2" font-family="Helvetica,sans-Serif" font-size="14.00">samples = 2</text>
<text text-anchor="middle" x="436" y="-117.2" font-family="Helvetica,sans-Serif" font-size="14.00">value = [0, 0, 2]</text>
<text text-anchor="middle" x="436" y="-102.2" font-family="Helvetica,sans-Serif" font-size="14.00">class = virginica</text>
</g>
<!-- 11&#45;&gt;12 -->
<g id="edge12" class="edge">
<title>11&#45;&gt;12</title>
<path fill="none" stroke="black" d="M444.07,-192.6C442.87,-182.36 441.53,-171.04 440.31,-160.6"/>
<polygon fill="black" stroke="black" points="443.67,-160.23 439.02,-150.71 436.72,-161.05 443.67,-160.23"/>
</g>
<!-- 13 -->
<g id="node14" class="node">
<title>13</title>
<polygon fill="#39e581" stroke="black" points="630.12,-149.5 509.88,-149.5 509.88,-96.5 630.12,-96.5 630.12,-149.5"/>
<text text-anchor="middle" x="570" y="-132.2" font-family="Helvetica,sans-Serif" font-size="14.00">samples = 1</text>
<text text-anchor="middle" x="570" y="-117.2" font-family="Helvetica,sans-Serif" font-size="14.00">value = [0, 1, 0]</text>
<text text-anchor="middle" x="570" y="-102.2" font-family="Helvetica,sans-Serif" font-size="14.00">class = versicolor</text>
</g>
<!-- 11&#45;&gt;13 -->
<g id="edge13" class="edge">
<title>11&#45;&gt;13</title>
<path fill="none" stroke="black" d="M487.95,-192.6C501.76,-181.05 517.21,-168.13 530.95,-156.65"/>
<polygon fill="black" stroke="black" points="532.83,-158.81 538.25,-149.71 528.34,-153.44 532.83,-158.81"/>
</g>
</g>
</svg>