<?xml version="1.0" encoding="UTF-8" standalone="no"?>
<!DOCTYPE svg PUBLIC "-//W3C//DTD SVG 1.1//EN"
 "http://www.w3.org/Graphics/SVG/1.1/DTD/svg11.dtd">
<!-- Generated by graphviz version 2.38.0 (20140413.2041)
 -->
<!-- Title: Tree Pages: 1 -->
<svg width="530pt" height="373pt"
 viewBox="0.00 0.00 530.00 373.00" xmlns="http://www.w3.org/2000/svg" xmlns:xlink="http://www.w3.org/1999/xlink">
<g id="graph0" class="graph" transform="scale(1 1) rotate(0) translate(4 369)">
<title>Tree</title>
<polygon fill="white" stroke="none" points="-4,4 -4,-369 526,-369 526,4 -4,4"/>
<!-- 0 -->
<g id="node1" class="node"><title>0</title>
<polygon fill="#fdfcff" stroke="black" points="261.5,-365 112.5,-365 112.5,-297 261.5,-297 261.5,-365"/>
<text text-anchor="middle" x="187" y="-349.8" font-family="Times New Roman,serif" font-size="14.00">petal width (cm) &lt;= 0.8</text>
<text text-anchor="middle" x="187" y="-334.8" font-family="Times New Roman,serif" font-size="14.00">samples = 112</text>
<text text-anchor="middle" x="187" y="-319.8" font-family="Times New Roman,serif" font-size="14.00">value = [35, 38, 39]</text>
<text text-anchor="middle" x="187" y="-304.8" font-family="Times New Roman,serif" font-size="14.00">class = virginica</text>
</g>
<!-- 1 -->
<g id="node2" class="node"><title>1</title>
<polygon fill="#e58139" stroke="black" points="167,-253.5 55,-253.5 55,-200.5 167,-200.5 167,-253.5"/>
<text text-anchor="middle" x="111" y="-238.3" font-family="Times New Roman,serif" font-size="14.00">samples = 35</text>
<text text-anchor="middle" x="111" y="-223.3" font-family="Times New Roman,serif" font-size="14.00">value = [35, 0, 0]</text>
<text text-anchor="middle" x="111" y="-208.3" font-family="Times New Roman,serif" font-size="14.00">class = setosa</text>
</g>
<!-- 0&#45;&gt;1 -->
<g id="edge1" class="edge"><title>0&#45;&gt;1</title>
<path fill="none" stroke="black" d="M162.325,-296.884C153.967,-285.666 144.623,-273.126 136.223,-261.852"/>
<polygon fill="black" stroke="black" points="138.796,-259.448 130.015,-253.52 133.183,-263.63 138.796,-259.448"/>
<text text-anchor="middle" x="126.402" y="-274.557" font-family="Times New Roman,serif" font-size="14.00">True</text>
</g>
<!-- 2 -->
<g id="node3" class="node"><title>2</title>
<polygon fill="#fcfafe" stroke="black" points="340.5,-261 185.5,-261 185.5,-193 340.5,-193 340.5,-261"/>
<text text-anchor="middle" x="263" y="-245.8" font-family="Times New Roman,serif" font-size="14.00">petal width (cm) &lt;= 1.65</text>
<text text-anchor="middle" x="263" y="-230.8" font-family="Times New Roman,serif" font-size="14.00">samples = 77</text>
<text text-anchor="middle" x="263" y="-215.8" font-family="Times New Roman,serif" font-size="14.00">value = [0, 38, 39]</text>
<text text-anchor="middle" x="263" y="-200.8" font-family="Times New Roman,serif" font-size="14.00">class = virginica</text>
</g>
<!-- 0&#45;&gt;2 -->
<g id="edge2" class="edge"><title>0&#45;&gt;2</title>
<path fill="none" stroke="black" d="M211.675,-296.884C218.179,-288.154 225.28,-278.625 232.068,-269.514"/>
<polygon fill="black" stroke="black" points="235.02,-271.409 238.189,-261.299 229.407,-267.227 235.02,-271.409"/>
<text text-anchor="middle" x="241.802" y="-282.337" font-family="Times New Roman,serif" font-size="14.00">False</text>
</g>
<!-- 3 -->
<g id="node4" class="node"><title>3</title>
<polygon fill="#49e78b" stroke="black" points="254,-157 96,-157 96,-89 254,-89 254,-157"/>
<text text-anchor="middle" x="175" y="-141.8" font-family="Times New Roman,serif" font-size="14.00">petal length (cm) &lt;= 4.95</text>
<text text-anchor="middle" x="175" y="-126.8" font-family="Times New Roman,serif" font-size="14.00">samples = 40</text>
<text text-anchor="middle" x="175" y="-111.8" font-family="Times New Roman,serif" font-size="14.00">value = [0, 37, 3]</text>
<text text-anchor="middle" x="175" y="-96.8" font-family="Times New Roman,serif" font-size="14.00">class = versicolor</text>
</g>
<!-- 2&#45;&gt;3 -->
<g id="edge3" class="edge"><title>2&#45;&gt;3</title>
<path fill="none" stroke="black" d="M234.429,-192.884C226.744,-183.976 218.34,-174.235 210.335,-164.957"/>
<polygon fill="black" stroke="black" points="212.911,-162.585 203.729,-157.299 207.611,-167.157 212.911,-162.585"/>
</g>
<!-- 6 -->
<g id="node7" class="node"><title>6</title>
<polygon fill="#843ee6" stroke="black" points="430,-157 272,-157 272,-89 430,-89 430,-157"/>
<text text-anchor="middle" x="351" y="-141.8" font-family="Times New Roman,serif" font-size="14.00">petal length (cm) &lt;= 4.85</text>
<text text-anchor="middle" x="351" y="-126.8" font-family="Times New Roman,serif" font-size="14.00">samples = 37</text>
<text text-anchor="middle" x="351" y="-111.8" font-family="Times New Roman,serif" font-size="14.00">value = [0, 1, 36]</text>
<text text-anchor="middle" x="351" y="-96.8" font-family="Times New Roman,serif" font-size="14.00">class = virginica</text>
</g>
<!-- 2&#45;&gt;6 -->
<g id="edge6" class="edge"><title>2&#45;&gt;6</title>
<path fill="none" stroke="black" d="M291.571,-192.884C299.256,-183.976 307.66,-174.235 315.665,-164.957"/>
<polygon fill="black" stroke="black" points="318.389,-167.157 322.271,-157.299 313.089,-162.585 318.389,-167.157"/>
</g>
<!-- 4 -->
<g id="node5" class="node"><title>4</title>
<polygon fill="#39e581" stroke="black" points="116,-53 0,-53 0,-0 116,-0 116,-53"/>
<text text-anchor="middle" x="58" y="-37.8" font-family="Times New Roman,serif" font-size="14.00">samples = 36</text>
<text text-anchor="middle" x="58" y="-22.8" font-family="Times New Roman,serif" font-size="14.00">value = [0, 36, 0]</text>
<text text-anchor="middle" x="58" y="-7.8" font-family="Times New Roman,serif" font-size="14.00">class = versicolor</text>
</g>
<!-- 3&#45;&gt;4 -->
<g id="edge4" class="edge"><title>3&#45;&gt;4</title>
<path fill="none" stroke="black" d="M134.079,-88.9485C122.3,-79.4346 109.473,-69.074 97.7646,-59.6175"/>
<polygon fill="black" stroke="black" points="99.8431,-56.7973 89.8645,-53.2367 95.4447,-62.2429 99.8431,-56.7973"/>
</g>
<!-- 5 -->
<g id="node6" class="node"><title>5</title>
<polygon fill="#ab7bee" stroke="black" points="241.5,-53 134.5,-53 134.5,-0 241.5,-0 241.5,-53"/>
<text text-anchor="middle" x="188" y="-37.8" font-family="Times New Roman,serif" font-size="14.00">samples = 4</text>
<text text-anchor="middle" x="188" y="-22.8" font-family="Times New Roman,serif" font-size="14.00">value = [0, 1, 3]</text>
<text text-anchor="middle" x="188" y="-7.8" font-family="Times New Roman,serif" font-size="14.00">class = virginica</text>
</g>
<!-- 3&#45;&gt;5 -->
<g id="edge5" class="edge"><title>3&#45;&gt;5</title>
<path fill="none" stroke="black" d="M179.547,-88.9485C180.692,-80.6238 181.926,-71.6509 183.089,-63.2027"/>
<polygon fill="black" stroke="black" points="186.564,-63.6204 184.46,-53.2367 179.629,-62.6664 186.564,-63.6204"/>
</g>
<!-- 7 -->
<g id="node8" class="node"><title>7</title>
<polygon fill="#c09cf2" stroke="black" points="391.5,-53 284.5,-53 284.5,-0 391.5,-0 391.5,-53"/>
<text text-anchor="middle" x="338" y="-37.8" font-family="Times New Roman,serif" font-size="14.00">samples = 3</text>
<text text-anchor="middle" x="338" y="-22.8" font-family="Times New Roman,serif" font-size="14.00">value = [0, 1, 2]</text>
<text text-anchor="middle" x="338" y="-7.8" font-family="Times New Roman,serif" font-size="14.00">class = virginica</text>
</g>
<!-- 6&#45;&gt;7 -->
<g id="edge7" class="edge"><title>6&#45;&gt;7</title>
<path fill="none" stroke="black" d="M346.453,-88.9485C345.308,-80.6238 344.074,-71.6509 342.911,-63.2027"/>
<polygon fill="black" stroke="black" points="346.371,-62.6664 341.54,-53.2367 339.436,-63.6204 346.371,-62.6664"/>
</g>
<!-- 8 -->
<g id="node9" class="node"><title>8</title>
<polygon fill="#8139e5" stroke="black" points="522,-53 410,-53 410,-0 522,-0 522,-53"/>
<text text-anchor="middle" x="466" y="-37.8" font-family="Times New Roman,serif" font-size="14.00">samples = 34</text>
<text text-anchor="middle" x="466" y="-22.8" font-family="Times New Roman,serif" font-size="14.00">value = [0, 0, 34]</text>
<text text-anchor="middle" x="466" y="-7.8" font-family="Times New Roman,serif" font-size="14.00">class = virginica</text>
</g>
<!-- 6&#45;&gt;8 -->
<g id="edge8" class="edge"><title>6&#45;&gt;8</title>
<path fill="none" stroke="black" d="M391.221,-88.9485C402.799,-79.4346 415.407,-69.074 426.915,-59.6175"/>
<polygon fill="black" stroke="black" points="429.176,-62.2897 434.68,-53.2367 424.732,-56.8814 429.176,-62.2897"/>
</g>
</g>
</svg>