<?xml version="1.0" encoding="UTF-8" standalone="no"?>
<!DOCTYPE svg PUBLIC "-//W3C//DTD SVG 1.1//EN"
 "http://www.w3.org/Graphics/SVG/1.1/DTD/svg11.dtd">
<!-- Generated by graphviz version 8.0.5 (20230430.1635)
 -->
<!-- Title: Tree Pages: 1 -->
<svg width="939pt" height="477pt"
 viewBox="0.00 0.00 939.38 477.00" xmlns="http://www.w3.org/2000/svg" xmlns:xlink="http://www.w3.org/1999/xlink">
<g id="graph0" class="graph" transform="scale(1 1) rotate(0) translate(4 473)">
<title>Tree</title>
<polygon fill="white" stroke="none" points="-4,4 -4,-473 935.38,-473 935.38,4 -4,4"/>
<!-- 0 -->
<g id="node1" class="node">
<title>0</title>
<polygon fill="#afd7f4" stroke="black" points="580.5,-469 378.5,-469 378.5,-401 580.5,-401 580.5,-469"/>
<text text-anchor="middle" x="479.5" y="-451.7" font-family="Helvetica,sans-Serif" font-size="14.00">mean concave points &lt;= 0.049</text>
<text text-anchor="middle" x="479.5" y="-436.7" font-family="Helvetica,sans-Serif" font-size="14.00">samples = 426</text>
<text text-anchor="middle" x="479.5" y="-421.7" font-family="Helvetica,sans-Serif" font-size="14.00">value = [159, 267]</text>
<text text-anchor="middle" x="479.5" y="-406.7" font-family="Helvetica,sans-Serif" font-size="14.00">class = benign</text>
</g>
<!-- 1 -->
<g id="node2" class="node">
<title>1</title>
<polygon fill="#43a2e6" stroke="black" points="470.88,-365 334.12,-365 334.12,-297 470.88,-297 470.88,-365"/>
<text text-anchor="middle" x="402.5" y="-347.7" font-family="Helvetica,sans-Serif" font-size="14.00">worst area &lt;= 952.9</text>
<text text-anchor="middle" x="402.5" y="-332.7" font-family="Helvetica,sans-Serif" font-size="14.00">samples = 260</text>
<text text-anchor="middle" x="402.5" y="-317.7" font-family="Helvetica,sans-Serif" font-size="14.00">value = [13, 247]</text>
<text text-anchor="middle" x="402.5" y="-302.7" font-family="Helvetica,sans-Serif" font-size="14.00">class = benign</text>
</g>
<!-- 0&#45;&gt;1 -->
<g id="edge1" class="edge">
<title>0&#45;&gt;1</title>
<path fill="none" stroke="black" d="M454.29,-400.6C447.91,-392.15 440.97,-382.96 434.31,-374.13"/>
<polygon fill="black" stroke="black" points="436.59,-372.35 427.77,-366.47 431,-376.56 436.59,-372.35"/>
<text text-anchor="middle" x="424.31" y="-384.43" font-family="Helvetica,sans-Serif" font-size="14.00">True</text>
</g>
<!-- 8 -->
<g id="node9" class="node">
<title>8</title>
<polygon fill="#e99254" stroke="black" points="625.88,-365 489.12,-365 489.12,-297 625.88,-297 625.88,-365"/>
<text text-anchor="middle" x="557.5" y="-347.7" font-family="Helvetica,sans-Serif" font-size="14.00">worst area &lt;= 785.8</text>
<text text-anchor="middle" x="557.5" y="-332.7" font-family="Helvetica,sans-Serif" font-size="14.00">samples = 166</text>
<text text-anchor="middle" x="557.5" y="-317.7" font-family="Helvetica,sans-Serif" font-size="14.00">value = [146, 20]</text>
<text text-anchor="middle" x="557.5" y="-302.7" font-family="Helvetica,sans-Serif" font-size="14.00">class = malignant</text>
</g>
<!-- 0&#45;&gt;8 -->
<g id="edge8" class="edge">
<title>0&#45;&gt;8</title>
<path fill="none" stroke="black" d="M505.04,-400.6C511.5,-392.15 518.53,-382.96 525.28,-374.13"/>
<polygon fill="black" stroke="black" points="528.61,-376.54 531.9,-366.47 523.05,-372.29 528.61,-376.54"/>
<text text-anchor="middle" x="535.21" y="-384.45" font-family="Helvetica,sans-Serif" font-size="14.00">False</text>
</g>
<!-- 2 -->
<g id="node3" class="node">
<title>2</title>
<polygon fill="#3fa0e6" stroke="black" points="324.75,-261 184.25,-261 184.25,-193 324.75,-193 324.75,-261"/>
<text text-anchor="middle" x="254.5" y="-243.7" font-family="Helvetica,sans-Serif" font-size="14.00">area error &lt;= 38.885</text>
<text text-anchor="middle" x="254.5" y="-228.7" font-family="Helvetica,sans-Serif" font-size="14.00">samples = 252</text>
<text text-anchor="middle" x="254.5" y="-213.7" font-family="Helvetica,sans-Serif" font-size="14.00">value = [7, 245]</text>
<text text-anchor="middle" x="254.5" y="-198.7" font-family="Helvetica,sans-Serif" font-size="14.00">class = benign</text>
</g>
<!-- 1&#45;&gt;2 -->
<g id="edge2" class="edge">
<title>1&#45;&gt;2</title>
<path fill="none" stroke="black" d="M354.04,-296.6C340.62,-287.36 325.93,-277.23 312.05,-267.66"/>
<polygon fill="black" stroke="black" points="314.29,-264.27 304.07,-261.47 310.32,-270.03 314.29,-264.27"/>
</g>
<!-- 7 -->
<g id="node8" class="node">
<title>7</title>
<polygon fill="#eeab7b" stroke="black" points="464.38,-253.5 342.62,-253.5 342.62,-200.5 464.38,-200.5 464.38,-253.5"/>
<text text-anchor="middle" x="403.5" y="-236.2" font-family="Helvetica,sans-Serif" font-size="14.00">samples = 8</text>
<text text-anchor="middle" x="403.5" y="-221.2" font-family="Helvetica,sans-Serif" font-size="14.00">value = [6, 2]</text>
<text text-anchor="middle" x="403.5" y="-206.2" font-family="Helvetica,sans-Serif" font-size="14.00">class = malignant</text>
</g>
<!-- 1&#45;&gt;7 -->
<g id="edge7" class="edge">
<title>1&#45;&gt;7</title>
<path fill="none" stroke="black" d="M402.83,-296.6C402.93,-286.36 403.04,-275.04 403.14,-264.6"/>
<polygon fill="black" stroke="black" points="406.65,-264.74 403.25,-254.71 399.65,-264.67 406.65,-264.74"/>
</g>
<!-- 3 -->
<g id="node4" class="node">
<title>3</title>
<polygon fill="#3c9fe5" stroke="black" points="195.75,-157 37.25,-157 37.25,-89 195.75,-89 195.75,-157"/>
<text text-anchor="middle" x="116.5" y="-139.7" font-family="Helvetica,sans-Serif" font-size="14.00">worst texture &lt;= 30.145</text>
<text text-anchor="middle" x="116.5" y="-124.7" font-family="Helvetica,sans-Serif" font-size="14.00">samples = 244</text>
<text text-anchor="middle" x="116.5" y="-109.7" font-family="Helvetica,sans-Serif" font-size="14.00">value = [4, 240]</text>
<text text-anchor="middle" x="116.5" y="-94.7" font-family="Helvetica,sans-Serif" font-size="14.00">class = benign</text>
</g>
<!-- 2&#45;&gt;3 -->
<g id="edge3" class="edge">
<title>2&#45;&gt;3</title>
<path fill="none" stroke="black" d="M209.31,-192.6C196.92,-183.44 183.37,-173.42 170.53,-163.94"/>
<polygon fill="black" stroke="black" points="172.91,-160.6 162.79,-157.47 168.75,-166.23 172.91,-160.6"/>
</g>
<!-- 6 -->
<g id="node7" class="node">
<title>6</title>
<polygon fill="#b0d8f5" stroke="black" points="317,-149.5 214,-149.5 214,-96.5 317,-96.5 317,-149.5"/>
<text text-anchor="middle" x="265.5" y="-132.2" font-family="Helvetica,sans-Serif" font-size="14.00">samples = 8</text>
<text text-anchor="middle" x="265.5" y="-117.2" font-family="Helvetica,sans-Serif" font-size="14.00">value = [3, 5]</text>
<text text-anchor="middle" x="265.5" y="-102.2" font-family="Helvetica,sans-Serif" font-size="14.00">class = benign</text>
</g>
<!-- 2&#45;&gt;6 -->
<g id="edge6" class="edge">
<title>2&#45;&gt;6</title>
<path fill="none" stroke="black" d="M258.1,-192.6C259.21,-182.36 260.43,-171.04 261.55,-160.6"/>
<polygon fill="black" stroke="black" points="265.14,-161.02 262.73,-150.71 258.18,-160.27 265.14,-161.02"/>
</g>
<!-- 4 -->
<g id="node5" class="node">
<title>4</title>
<polygon fill="#399de5" stroke="black" points="109,-53 0,-53 0,0 109,0 109,-53"/>
<text text-anchor="middle" x="54.5" y="-35.7" font-family="Helvetica,sans-Serif" font-size="14.00">samples = 212</text>
<text text-anchor="middle" x="54.5" y="-20.7" font-family="Helvetica,sans-Serif" font-size="14.00">value = [0, 212]</text>
<text text-anchor="middle" x="54.5" y="-5.7" font-family="Helvetica,sans-Serif" font-size="14.00">class = benign</text>
</g>
<!-- 3&#45;&gt;4 -->
<g id="edge4" class="edge">
<title>3&#45;&gt;4</title>
<path fill="none" stroke="black" d="M94.64,-88.68C89.06,-80.18 83.04,-71.01 77.41,-62.42"/>
<polygon fill="black" stroke="black" points="79.9,-60.83 71.49,-54.39 74.05,-64.67 79.9,-60.83"/>
</g>
<!-- 5 -->
<g id="node6" class="node">
<title>5</title>
<polygon fill="#55abe9" stroke="black" points="230,-53 127,-53 127,0 230,0 230,-53"/>
<text text-anchor="middle" x="178.5" y="-35.7" font-family="Helvetica,sans-Serif" font-size="14.00">samples = 32</text>
<text text-anchor="middle" x="178.5" y="-20.7" font-family="Helvetica,sans-Serif" font-size="14.00">value = [4, 28]</text>
<text text-anchor="middle" x="178.5" y="-5.7" font-family="Helvetica,sans-Serif" font-size="14.00">class = benign</text>
</g>
<!-- 3&#45;&gt;5 -->
<g id="edge5" class="edge">
<title>3&#45;&gt;5</title>
<path fill="none" stroke="black" d="M138.36,-88.68C143.94,-80.18 149.96,-71.01 155.59,-62.42"/>
<polygon fill="black" stroke="black" points="158.95,-64.67 161.51,-54.39 153.1,-60.83 158.95,-64.67"/>
</g>
<!-- 9 -->
<g id="node10" class="node">
<title>9</title>
<polygon fill="#d0e8f9" stroke="black" points="633,-261 482,-261 482,-193 633,-193 633,-261"/>
<text text-anchor="middle" x="557.5" y="-243.7" font-family="Helvetica,sans-Serif" font-size="14.00">worst texture &lt;= 23.74</text>
<text text-anchor="middle" x="557.5" y="-228.7" font-family="Helvetica,sans-Serif" font-size="14.00">samples = 30</text>
<text text-anchor="middle" x="557.5" y="-213.7" font-family="Helvetica,sans-Serif" font-size="14.00">value = [13, 17]</text>
<text text-anchor="middle" x="557.5" y="-198.7" font-family="Helvetica,sans-Serif" font-size="14.00">class = benign</text>
</g>
<!-- 8&#45;&gt;9 -->
<g id="edge9" class="edge">
<title>8&#45;&gt;9</title>
<path fill="none" stroke="black" d="M557.5,-296.6C557.5,-288.85 557.5,-280.49 557.5,-272.35"/>
<polygon fill="black" stroke="black" points="561,-272.47 557.5,-262.47 554,-272.47 561,-272.47"/>
</g>
<!-- 14 -->
<g id="node15" class="node">
<title>14</title>
<polygon fill="#e6843d" stroke="black" points="809.75,-261 651.25,-261 651.25,-193 809.75,-193 809.75,-261"/>
<text text-anchor="middle" x="730.5" y="-243.7" font-family="Helvetica,sans-Serif" font-size="14.00">worst texture &lt;= 19.385</text>
<text text-anchor="middle" x="730.5" y="-228.7" font-family="Helvetica,sans-Serif" font-size="14.00">samples = 136</text>
<text text-anchor="middle" x="730.5" y="-213.7" font-family="Helvetica,sans-Serif" font-size="14.00">value = [133, 3]</text>
<text text-anchor="middle" x="730.5" y="-198.7" font-family="Helvetica,sans-Serif" font-size="14.00">class = malignant</text>
</g>
<!-- 8&#45;&gt;14 -->
<g id="edge14" class="edge">
<title>8&#45;&gt;14</title>
<path fill="none" stroke="black" d="M614.15,-296.6C630.28,-287.09 647.99,-276.65 664.62,-266.85"/>
<polygon fill="black" stroke="black" points="665.89,-269.57 672.73,-261.47 662.33,-263.54 665.89,-269.57"/>
</g>
<!-- 10 -->
<g id="node11" class="node">
<title>10</title>
<polygon fill="#399de5" stroke="black" points="449,-149.5 346,-149.5 346,-96.5 449,-96.5 449,-149.5"/>
<text text-anchor="middle" x="397.5" y="-132.2" font-family="Helvetica,sans-Serif" font-size="14.00">samples = 14</text>
<text text-anchor="middle" x="397.5" y="-117.2" font-family="Helvetica,sans-Serif" font-size="14.00">value = [0, 14]</text>
<text text-anchor="middle" x="397.5" y="-102.2" font-family="Helvetica,sans-Serif" font-size="14.00">class = benign</text>
</g>
<!-- 9&#45;&gt;10 -->
<g id="edge10" class="edge">
<title>9&#45;&gt;10</title>
<path fill="none" stroke="black" d="M505.11,-192.6C486.48,-180.72 465.56,-167.39 447.17,-155.66"/>
<polygon fill="black" stroke="black" points="449.39,-152.29 439.08,-149.87 445.63,-158.2 449.39,-152.29"/>
</g>
<!-- 11 -->
<g id="node12" class="node">
<title>11</title>
<polygon fill="#eb9e67" stroke="black" points="650.12,-157 466.88,-157 466.88,-89 650.12,-89 650.12,-157"/>
<text text-anchor="middle" x="558.5" y="-139.7" font-family="Helvetica,sans-Serif" font-size="14.00">worst smoothness &lt;= 0.166</text>
<text text-anchor="middle" x="558.5" y="-124.7" font-family="Helvetica,sans-Serif" font-size="14.00">samples = 16</text>
<text text-anchor="middle" x="558.5" y="-109.7" font-family="Helvetica,sans-Serif" font-size="14.00">value = [13, 3]</text>
<text text-anchor="middle" x="558.5" y="-94.7" font-family="Helvetica,sans-Serif" font-size="14.00">class = malignant</text>
</g>
<!-- 9&#45;&gt;11 -->
<g id="edge11" class="edge">
<title>9&#45;&gt;11</title>
<path fill="none" stroke="black" d="M557.83,-192.6C557.9,-184.85 557.99,-176.49 558.07,-168.35"/>
<polygon fill="black" stroke="black" points="561.57,-168.51 558.17,-158.47 554.57,-168.44 561.57,-168.51"/>
</g>
<!-- 12 -->
<g id="node13" class="node">
<title>12</title>
<polygon fill="#f5cdb0" stroke="black" points="549.38,-53 427.62,-53 427.62,0 549.38,0 549.38,-53"/>
<text text-anchor="middle" x="488.5" y="-35.7" font-family="Helvetica,sans-Serif" font-size="14.00">samples = 8</text>
<text text-anchor="middle" x="488.5" y="-20.7" font-family="Helvetica,sans-Serif" font-size="14.00">value = [5, 3]</text>
<text text-anchor="middle" x="488.5" y="-5.7" font-family="Helvetica,sans-Serif" font-size="14.00">class = malignant</text>
</g>
<!-- 11&#45;&gt;12 -->
<g id="edge12" class="edge">
<title>11&#45;&gt;12</title>
<path fill="none" stroke="black" d="M533.82,-88.68C527.45,-80.09 520.58,-70.81 514.16,-62.15"/>
<polygon fill="black" stroke="black" points="516.45,-60.35 507.68,-54.39 510.82,-64.51 516.45,-60.35"/>
</g>
<!-- 13 -->
<g id="node14" class="node">
<title>13</title>
<polygon fill="#e58139" stroke="black" points="689.38,-53 567.62,-53 567.62,0 689.38,0 689.38,-53"/>
<text text-anchor="middle" x="628.5" y="-35.7" font-family="Helvetica,sans-Serif" font-size="14.00">samples = 8</text>
<text text-anchor="middle" x="628.5" y="-20.7" font-family="Helvetica,sans-Serif" font-size="14.00">value = [8, 0]</text>
<text text-anchor="middle" x="628.5" y="-5.7" font-family="Helvetica,sans-Serif" font-size="14.00">class = malignant</text>
</g>
<!-- 11&#45;&gt;13 -->
<g id="edge13" class="edge">
<title>11&#45;&gt;13</title>
<path fill="none" stroke="black" d="M583.18,-88.68C589.55,-80.09 596.42,-70.81 602.84,-62.15"/>
<polygon fill="black" stroke="black" points="606.18,-64.51 609.32,-54.39 600.55,-60.35 606.18,-64.51"/>
</g>
<!-- 15 -->
<g id="node16" class="node">
<title>15</title>
<polygon fill="#f2c09c" stroke="black" points="791.38,-149.5 669.62,-149.5 669.62,-96.5 791.38,-96.5 791.38,-149.5"/>
<text text-anchor="middle" x="730.5" y="-132.2" font-family="Helvetica,sans-Serif" font-size="14.00">samples = 9</text>
<text text-anchor="middle" x="730.5" y="-117.2" font-family="Helvetica,sans-Serif" font-size="14.00">value = [6, 3]</text>
<text text-anchor="middle" x="730.5" y="-102.2" font-family="Helvetica,sans-Serif" font-size="14.00">class = malignant</text>
</g>
<!-- 14&#45;&gt;15 -->
<g id="edge15" class="edge">
<title>14&#45;&gt;15</title>
<path fill="none" stroke="black" d="M730.5,-192.6C730.5,-182.36 730.5,-171.04 730.5,-160.6"/>
<polygon fill="black" stroke="black" points="734,-160.71 730.5,-150.71 727,-160.71 734,-160.71"/>
</g>
<!-- 16 -->
<g id="node17" class="node">
<title>16</title>
<polygon fill="#e58139" stroke="black" points="931.38,-149.5 809.62,-149.5 809.62,-96.5 931.38,-96.5 931.38,-149.5"/>
<text text-anchor="middle" x="870.5" y="-132.2" font-family="Helvetica,sans-Serif" font-size="14.00">samples = 127</text>
<text text-anchor="middle" x="870.5" y="-117.2" font-family="Helvetica,sans-Serif" font-size="14.00">value = [127, 0]</text>
<text text-anchor="middle" x="870.5" y="-102.2" font-family="Helvetica,sans-Serif" font-size="14.00">class = malignant</text>
</g>
<!-- 14&#45;&gt;16 -->
<g id="edge16" class="edge">
<title>14&#45;&gt;16</title>
<path fill="none" stroke="black" d="M776.34,-192.6C792.49,-180.84 810.59,-167.65 826.58,-156"/>
<polygon fill="black" stroke="black" points="828.2,-158.42 834.22,-149.71 824.07,-152.77 828.2,-158.42"/>
</g>
</g>
</svg>