<?xml version="1.0" encoding="UTF-8" standalone="no"?>
<!DOCTYPE svg PUBLIC "-//W3C//DTD SVG 1.1//EN"
 "http://www.w3.org/Graphics/SVG/1.1/DTD/svg11.dtd">
<!-- Generated by graphviz version 2.38.0 (20140413.2041)
 -->
<!-- Title: Tree Pages: 1 -->
<svg width="893pt" height="477pt"
 viewBox="0.00 0.00 892.50 477.00" xmlns="http://www.w3.org/2000/svg" xmlns:xlink="http://www.w3.org/1999/xlink">
<g id="graph0" class="graph" transform="scale(1 1) rotate(0) translate(4 473)">
<title>Tree</title>
<polygon fill="white" stroke="none" points="-4,4 -4,-473 888.5,-473 888.5,4 -4,4"/>
<!-- 0 -->
<g id="node1" class="node"><title>0</title>
<polygon fill="#afd7f4" stroke="black" points="552.5,-469 363.5,-469 363.5,-401 552.5,-401 552.5,-469"/>
<text text-anchor="middle" x="458" y="-453.8" font-family="Times New Roman,serif" font-size="14.00">mean concave points &lt;= 0.049</text>
<text text-anchor="middle" x="458" y="-438.8" font-family="Times New Roman,serif" font-size="14.00">samples = 426</text>
<text text-anchor="middle" x="458" y="-423.8" font-family="Times New Roman,serif" font-size="14.00">value = [159, 267]</text>
<text text-anchor="middle" x="458" y="-408.8" font-family="Times New Roman,serif" font-size="14.00">class = benign</text>
</g>
<!-- 1 -->
<g id="node2" class="node"><title>1</title>
<polygon fill="#43a2e6" stroke="black" points="449.5,-365 320.5,-365 320.5,-297 449.5,-297 449.5,-365"/>
<text text-anchor="middle" x="385" y="-349.8" font-family="Times New Roman,serif" font-size="14.00">worst area &lt;= 952.9</text>
<text text-anchor="middle" x="385" y="-334.8" font-family="Times New Roman,serif" font-size="14.00">samples = 260</text>
<text text-anchor="middle" x="385" y="-319.8" font-family="Times New Roman,serif" font-size="14.00">value = [13, 247]</text>
<text text-anchor="middle" x="385" y="-304.8" font-family="Times New Roman,serif" font-size="14.00">class = benign</text>
</g>
<!-- 0&#45;&gt;1 -->
<g id="edge1" class="edge"><title>0&#45;&gt;1</title>
<path fill="none" stroke="black" d="M434.299,-400.884C428.052,-392.154 421.231,-382.625 414.711,-373.514"/>
<polygon fill="black" stroke="black" points="417.498,-371.394 408.832,-365.299 411.806,-375.468 417.498,-371.394"/>
<text text-anchor="middle" x="404.745" y="-386.263" font-family="Times New Roman,serif" font-size="14.00">True</text>
</g>
<!-- 8 -->
<g id="node9" class="node"><title>8</title>
<polygon fill="#e99254" stroke="black" points="596.5,-365 467.5,-365 467.5,-297 596.5,-297 596.5,-365"/>
<text text-anchor="middle" x="532" y="-349.8" font-family="Times New Roman,serif" font-size="14.00">worst area &lt;= 785.8</text>
<text text-anchor="middle" x="532" y="-334.8" font-family="Times New Roman,serif" font-size="14.00">samples = 166</text>
<text text-anchor="middle" x="532" y="-319.8" font-family="Times New Roman,serif" font-size="14.00">value = [146, 20]</text>
<text text-anchor="middle" x="532" y="-304.8" font-family="Times New Roman,serif" font-size="14.00">class = malignant</text>
</g>
<!-- 0&#45;&gt;8 -->
<g id="edge8" class="edge"><title>0&#45;&gt;8</title>
<path fill="none" stroke="black" d="M482.026,-400.884C488.359,-392.154 495.272,-382.625 501.882,-373.514"/>
<polygon fill="black" stroke="black" points="504.802,-375.449 507.842,-365.299 499.136,-371.338 504.802,-375.449"/>
<text text-anchor="middle" x="511.77" y="-386.289" font-family="Times New Roman,serif" font-size="14.00">False</text>
</g>
<!-- 2 -->
<g id="node3" class="node"><title>2</title>
<polygon fill="#3fa0e6" stroke="black" points="310.5,-261 179.5,-261 179.5,-193 310.5,-193 310.5,-261"/>
<text text-anchor="middle" x="245" y="-245.8" font-family="Times New Roman,serif" font-size="14.00">area error &lt;= 38.885</text>
<text text-anchor="middle" x="245" y="-230.8" font-family="Times New Roman,serif" font-size="14.00">samples = 252</text>
<text text-anchor="middle" x="245" y="-215.8" font-family="Times New Roman,serif" font-size="14.00">value = [7, 245]</text>
<text text-anchor="middle" x="245" y="-200.8" font-family="Times New Roman,serif" font-size="14.00">class = benign</text>
</g>
<!-- 1&#45;&gt;2 -->
<g id="edge2" class="edge"><title>1&#45;&gt;2</title>
<path fill="none" stroke="black" d="M339.546,-296.884C326.587,-287.442 312.342,-277.064 298.93,-267.292"/>
<polygon fill="black" stroke="black" points="300.848,-264.359 290.705,-261.299 296.726,-270.017 300.848,-264.359"/>
</g>
<!-- 7 -->
<g id="node8" class="node"><title>7</title>
<polygon fill="#eeab7b" stroke="black" points="441.5,-253.5 328.5,-253.5 328.5,-200.5 441.5,-200.5 441.5,-253.5"/>
<text text-anchor="middle" x="385" y="-238.3" font-family="Times New Roman,serif" font-size="14.00">samples = 8</text>
<text text-anchor="middle" x="385" y="-223.3" font-family="Times New Roman,serif" font-size="14.00">value = [6, 2]</text>
<text text-anchor="middle" x="385" y="-208.3" font-family="Times New Roman,serif" font-size="14.00">class = malignant</text>
</g>
<!-- 1&#45;&gt;7 -->
<g id="edge7" class="edge"><title>1&#45;&gt;7</title>
<path fill="none" stroke="black" d="M385,-296.884C385,-286.326 385,-274.597 385,-263.854"/>
<polygon fill="black" stroke="black" points="388.5,-263.52 385,-253.52 381.5,-263.52 388.5,-263.52"/>
</g>
<!-- 3 -->
<g id="node4" class="node"><title>3</title>
<polygon fill="#3c9fe5" stroke="black" points="186.5,-157 35.5,-157 35.5,-89 186.5,-89 186.5,-157"/>
<text text-anchor="middle" x="111" y="-141.8" font-family="Times New Roman,serif" font-size="14.00">worst texture &lt;= 30.145</text>
<text text-anchor="middle" x="111" y="-126.8" font-family="Times New Roman,serif" font-size="14.00">samples = 244</text>
<text text-anchor="middle" x="111" y="-111.8" font-family="Times New Roman,serif" font-size="14.00">value = [4, 240]</text>
<text text-anchor="middle" x="111" y="-96.8" font-family="Times New Roman,serif" font-size="14.00">class = benign</text>
</g>
<!-- 2&#45;&gt;3 -->
<g id="edge3" class="edge"><title>2&#45;&gt;3</title>
<path fill="none" stroke="black" d="M201.494,-192.884C189.207,-183.531 175.713,-173.259 162.982,-163.568"/>
<polygon fill="black" stroke="black" points="164.823,-160.571 154.746,-157.299 160.583,-166.141 164.823,-160.571"/>
</g>
<!-- 6 -->
<g id="node7" class="node"><title>6</title>
<polygon fill="#b0d8f5" stroke="black" points="301.5,-149.5 204.5,-149.5 204.5,-96.5 301.5,-96.5 301.5,-149.5"/>
<text text-anchor="middle" x="253" y="-134.3" font-family="Times New Roman,serif" font-size="14.00">samples = 8</text>
<text text-anchor="middle" x="253" y="-119.3" font-family="Times New Roman,serif" font-size="14.00">value = [3, 5]</text>
<text text-anchor="middle" x="253" y="-104.3" font-family="Times New Roman,serif" font-size="14.00">class = benign</text>
</g>
<!-- 2&#45;&gt;6 -->
<g id="edge6" class="edge"><title>2&#45;&gt;6</title>
<path fill="none" stroke="black" d="M247.597,-192.884C248.434,-182.216 249.365,-170.352 250.214,-159.519"/>
<polygon fill="black" stroke="black" points="253.706,-159.763 250.998,-149.52 246.727,-159.216 253.706,-159.763"/>
</g>
<!-- 4 -->
<g id="node5" class="node"><title>4</title>
<polygon fill="#399de5" stroke="black" points="104,-53 0,-53 0,-0 104,-0 104,-53"/>
<text text-anchor="middle" x="52" y="-37.8" font-family="Times New Roman,serif" font-size="14.00">samples = 212</text>
<text text-anchor="middle" x="52" y="-22.8" font-family="Times New Roman,serif" font-size="14.00">value = [0, 212]</text>
<text text-anchor="middle" x="52" y="-7.8" font-family="Times New Roman,serif" font-size="14.00">class = benign</text>
</g>
<!-- 3&#45;&gt;4 -->
<g id="edge4" class="edge"><title>3&#45;&gt;4</title>
<path fill="none" stroke="black" d="M90.3647,-88.9485C84.8817,-80.1664 78.9483,-70.6629 73.4242,-61.815"/>
<polygon fill="black" stroke="black" points="76.3333,-59.8656 68.0684,-53.2367 70.3955,-63.5728 76.3333,-59.8656"/>
</g>
<!-- 5 -->
<g id="node6" class="node"><title>5</title>
<polygon fill="#55abe9" stroke="black" points="220,-53 122,-53 122,-0 220,-0 220,-53"/>
<text text-anchor="middle" x="171" y="-37.8" font-family="Times New Roman,serif" font-size="14.00">samples = 32</text>
<text text-anchor="middle" x="171" y="-22.8" font-family="Times New Roman,serif" font-size="14.00">value = [4, 28]</text>
<text text-anchor="middle" x="171" y="-7.8" font-family="Times New Roman,serif" font-size="14.00">class = benign</text>
</g>
<!-- 3&#45;&gt;5 -->
<g id="edge5" class="edge"><title>3&#45;&gt;5</title>
<path fill="none" stroke="black" d="M131.985,-88.9485C137.561,-80.1664 143.595,-70.6629 149.213,-61.815"/>
<polygon fill="black" stroke="black" points="152.254,-63.5549 154.659,-53.2367 146.344,-59.8028 152.254,-63.5549"/>
</g>
<!-- 9 -->
<g id="node10" class="node"><title>9</title>
<polygon fill="#d0e8f9" stroke="black" points="604,-261 460,-261 460,-193 604,-193 604,-261"/>
<text text-anchor="middle" x="532" y="-245.8" font-family="Times New Roman,serif" font-size="14.00">worst texture &lt;= 23.74</text>
<text text-anchor="middle" x="532" y="-230.8" font-family="Times New Roman,serif" font-size="14.00">samples = 30</text>
<text text-anchor="middle" x="532" y="-215.8" font-family="Times New Roman,serif" font-size="14.00">value = [13, 17]</text>
<text text-anchor="middle" x="532" y="-200.8" font-family="Times New Roman,serif" font-size="14.00">class = benign</text>
</g>
<!-- 8&#45;&gt;9 -->
<g id="edge9" class="edge"><title>8&#45;&gt;9</title>
<path fill="none" stroke="black" d="M532,-296.884C532,-288.778 532,-279.982 532,-271.472"/>
<polygon fill="black" stroke="black" points="535.5,-271.299 532,-261.299 528.5,-271.299 535.5,-271.299"/>
</g>
<!-- 14 -->
<g id="node15" class="node"><title>14</title>
<polygon fill="#e6843d" stroke="black" points="773.5,-261 622.5,-261 622.5,-193 773.5,-193 773.5,-261"/>
<text text-anchor="middle" x="698" y="-245.8" font-family="Times New Roman,serif" font-size="14.00">worst texture &lt;= 19.385</text>
<text text-anchor="middle" x="698" y="-230.8" font-family="Times New Roman,serif" font-size="14.00">samples = 136</text>
<text text-anchor="middle" x="698" y="-215.8" font-family="Times New Roman,serif" font-size="14.00">value = [133, 3]</text>
<text text-anchor="middle" x="698" y="-200.8" font-family="Times New Roman,serif" font-size="14.00">class = malignant</text>
</g>
<!-- 8&#45;&gt;14 -->
<g id="edge14" class="edge"><title>8&#45;&gt;14</title>
<path fill="none" stroke="black" d="M585.895,-296.884C601.631,-287.214 618.965,-276.563 635.201,-266.587"/>
<polygon fill="black" stroke="black" points="637.403,-269.342 644.091,-261.125 633.739,-263.378 637.403,-269.342"/>
</g>
<!-- 10 -->
<g id="node11" class="node"><title>10</title>
<polygon fill="#399de5" stroke="black" points="429,-149.5 331,-149.5 331,-96.5 429,-96.5 429,-149.5"/>
<text text-anchor="middle" x="380" y="-134.3" font-family="Times New Roman,serif" font-size="14.00">samples = 14</text>
<text text-anchor="middle" x="380" y="-119.3" font-family="Times New Roman,serif" font-size="14.00">value = [0, 14]</text>
<text text-anchor="middle" x="380" y="-104.3" font-family="Times New Roman,serif" font-size="14.00">class = benign</text>
</g>
<!-- 9&#45;&gt;10 -->
<g id="edge10" class="edge"><title>9&#45;&gt;10</title>
<path fill="none" stroke="black" d="M482.65,-192.884C464.622,-180.786 444.303,-167.151 426.53,-155.224"/>
<polygon fill="black" stroke="black" points="428.284,-152.186 418.03,-149.52 424.383,-157.998 428.284,-152.186"/>
</g>
<!-- 11 -->
<g id="node12" class="node"><title>11</title>
<polygon fill="#eb9e67" stroke="black" points="620.5,-157 447.5,-157 447.5,-89 620.5,-89 620.5,-157"/>
<text text-anchor="middle" x="534" y="-141.8" font-family="Times New Roman,serif" font-size="14.00">worst smoothness &lt;= 0.166</text>
<text text-anchor="middle" x="534" y="-126.8" font-family="Times New Roman,serif" font-size="14.00">samples = 16</text>
<text text-anchor="middle" x="534" y="-111.8" font-family="Times New Roman,serif" font-size="14.00">value = [13, 3]</text>
<text text-anchor="middle" x="534" y="-96.8" font-family="Times New Roman,serif" font-size="14.00">class = malignant</text>
</g>
<!-- 9&#45;&gt;11 -->
<g id="edge11" class="edge"><title>9&#45;&gt;11</title>
<path fill="none" stroke="black" d="M532.649,-192.884C532.808,-184.778 532.981,-175.982 533.148,-167.472"/>
<polygon fill="black" stroke="black" points="536.65,-167.366 533.347,-157.299 529.652,-167.229 536.65,-167.366"/>
</g>
<!-- 12 -->
<g id="node13" class="node"><title>12</title>
<polygon fill="#f5cdb0" stroke="black" points="524.5,-53 411.5,-53 411.5,-0 524.5,-0 524.5,-53"/>
<text text-anchor="middle" x="468" y="-37.8" font-family="Times New Roman,serif" font-size="14.00">samples = 8</text>
<text text-anchor="middle" x="468" y="-22.8" font-family="Times New Roman,serif" font-size="14.00">value = [5, 3]</text>
<text text-anchor="middle" x="468" y="-7.8" font-family="Times New Roman,serif" font-size="14.00">class = malignant</text>
</g>
<!-- 11&#45;&gt;12 -->
<g id="edge12" class="edge"><title>11&#45;&gt;12</title>
<path fill="none" stroke="black" d="M510.916,-88.9485C504.719,-80.0749 498.007,-70.4648 491.773,-61.5388"/>
<polygon fill="black" stroke="black" points="494.57,-59.4311 485.975,-53.2367 488.831,-63.4392 494.57,-59.4311"/>
</g>
<!-- 13 -->
<g id="node14" class="node"><title>13</title>
<polygon fill="#e58139" stroke="black" points="655.5,-53 542.5,-53 542.5,-0 655.5,-0 655.5,-53"/>
<text text-anchor="middle" x="599" y="-37.8" font-family="Times New Roman,serif" font-size="14.00">samples = 8</text>
<text text-anchor="middle" x="599" y="-22.8" font-family="Times New Roman,serif" font-size="14.00">value = [8, 0]</text>
<text text-anchor="middle" x="599" y="-7.8" font-family="Times New Roman,serif" font-size="14.00">class = malignant</text>
</g>
<!-- 11&#45;&gt;13 -->
<g id="edge13" class="edge"><title>11&#45;&gt;13</title>
<path fill="none" stroke="black" d="M556.734,-88.9485C562.837,-80.0749 569.447,-70.4648 575.587,-61.5388"/>
<polygon fill="black" stroke="black" points="578.514,-63.4594 581.298,-53.2367 572.747,-59.4924 578.514,-63.4594"/>
</g>
<!-- 15 -->
<g id="node16" class="node"><title>15</title>
<polygon fill="#f2c09c" stroke="black" points="753.5,-149.5 640.5,-149.5 640.5,-96.5 753.5,-96.5 753.5,-149.5"/>
<text text-anchor="middle" x="697" y="-134.3" font-family="Times New Roman,serif" font-size="14.00">samples = 9</text>
<text text-anchor="middle" x="697" y="-119.3" font-family="Times New Roman,serif" font-size="14.00">value = [6, 3]</text>
<text text-anchor="middle" x="697" y="-104.3" font-family="Times New Roman,serif" font-size="14.00">class = malignant</text>
</g>
<!-- 14&#45;&gt;15 -->
<g id="edge15" class="edge"><title>14&#45;&gt;15</title>
<path fill="none" stroke="black" d="M697.675,-192.884C697.572,-182.326 697.457,-170.597 697.352,-159.854"/>
<polygon fill="black" stroke="black" points="700.848,-159.485 697.25,-149.52 693.848,-159.554 700.848,-159.485"/>
</g>
<!-- 16 -->
<g id="node17" class="node"><title>16</title>
<polygon fill="#e58139" stroke="black" points="884.5,-149.5 771.5,-149.5 771.5,-96.5 884.5,-96.5 884.5,-149.5"/>
<text text-anchor="middle" x="828" y="-134.3" font-family="Times New Roman,serif" font-size="14.00">samples = 127</text>
<text text-anchor="middle" x="828" y="-119.3" font-family="Times New Roman,serif" font-size="14.00">value = [127, 0]</text>
<text text-anchor="middle" x="828" y="-104.3" font-family="Times New Roman,serif" font-size="14.00">class = malignant</text>
</g>
<!-- 14&#45;&gt;16 -->
<g id="edge16" class="edge"><title>14&#45;&gt;16</title>
<path fill="none" stroke="black" d="M740.207,-192.884C755.346,-181.006 772.372,-167.646 787.374,-155.876"/>
<polygon fill="black" stroke="black" points="789.768,-158.446 795.475,-149.52 785.447,-152.939 789.768,-158.446"/>
</g>
</g>
</svg>