<?xml version="1.0" encoding="UTF-8" standalone="no"?>
<!DOCTYPE svg PUBLIC "-//W3C//DTD SVG 1.1//EN"
 "http://www.w3.org/Graphics/SVG/1.1/DTD/svg11.dtd">
<!-- Generated by graphviz version 2.50.0 (0)
 -->
<!-- Title: Tree Pages: 1 -->
<svg width="944pt" height="477pt"
 viewBox="0.00 0.00 944.00 477.00" xmlns="http://www.w3.org/2000/svg" xmlns:xlink="http://www.w3.org/1999/xlink">
<g id="graph0" class="graph" transform="scale(1 1) rotate(0) translate(4 473)">
<title>Tree</title>
<polygon fill="white" stroke="transparent" points="-4,4 -4,-473 940,-473 940,4 -4,4"/>
<!-- 0 -->
<g id="node1" class="node">
<title>0</title>
<polygon fill="#afd7f4" stroke="black" points="585.5,-469 382.5,-469 382.5,-401 585.5,-401 585.5,-469"/>
<text text-anchor="middle" x="484" y="-453.8" font-family="Helvetica,sans-Serif" font-size="14.00">mean concave points &lt;= 0.049</text>
<text text-anchor="middle" x="484" y="-438.8" font-family="Helvetica,sans-Serif" font-size="14.00">samples = 426</text>
<text text-anchor="middle" x="484" y="-423.8" font-family="Helvetica,sans-Serif" font-size="14.00">value = [159, 267]</text>
<text text-anchor="middle" x="484" y="-408.8" font-family="Helvetica,sans-Serif" font-size="14.00">class = benign</text>
</g>
<!-- 1 -->
<g id="node2" class="node">
<title>1</title>
<polygon fill="#43a2e6" stroke="black" points="475.5,-365 338.5,-365 338.5,-297 475.5,-297 475.5,-365"/>
<text text-anchor="middle" x="407" y="-349.8" font-family="Helvetica,sans-Serif" font-size="14.00">worst area &lt;= 952.9</text>
<text text-anchor="middle" x="407" y="-334.8" font-family="Helvetica,sans-Serif" font-size="14.00">samples = 260</text>
<text text-anchor="middle" x="407" y="-319.8" font-family="Helvetica,sans-Serif" font-size="14.00">value = [13, 247]</text>
<text text-anchor="middle" x="407" y="-304.8" font-family="Helvetica,sans-Serif" font-size="14.00">class = benign</text>
</g>
<!-- 0&#45;&gt;1 -->
<g id="edge1" class="edge">
<title>0&#45;&gt;1</title>
<path fill="none" stroke="black" d="M459,-400.88C452.41,-392.15 445.22,-382.62 438.34,-373.51"/>
<polygon fill="black" stroke="black" points="440.96,-371.17 432.14,-365.3 435.37,-375.39 440.96,-371.17"/>
<text text-anchor="middle" x="428.68" y="-386.36" font-family="Helvetica,sans-Serif" font-size="14.00">True</text>
</g>
<!-- 8 -->
<g id="node9" class="node">
<title>8</title>
<polygon fill="#e99254" stroke="black" points="630.5,-365 493.5,-365 493.5,-297 630.5,-297 630.5,-365"/>
<text text-anchor="middle" x="562" y="-349.8" font-family="Helvetica,sans-Serif" font-size="14.00">worst area &lt;= 785.8</text>
<text text-anchor="middle" x="562" y="-334.8" font-family="Helvetica,sans-Serif" font-size="14.00">samples = 166</text>
<text text-anchor="middle" x="562" y="-319.8" font-family="Helvetica,sans-Serif" font-size="14.00">value = [146, 20]</text>
<text text-anchor="middle" x="562" y="-304.8" font-family="Helvetica,sans-Serif" font-size="14.00">class = malignant</text>
</g>
<!-- 0&#45;&gt;8 -->
<g id="edge8" class="edge">
<title>0&#45;&gt;8</title>
<path fill="none" stroke="black" d="M509.32,-400.88C516,-392.15 523.29,-382.62 530.25,-373.51"/>
<polygon fill="black" stroke="black" points="533.24,-375.37 536.54,-365.3 527.68,-371.12 533.24,-375.37"/>
<text text-anchor="middle" x="539.84" y="-386.38" font-family="Helvetica,sans-Serif" font-size="14.00">False</text>
</g>
<!-- 2 -->
<g id="node3" class="node">
<title>2</title>
<polygon fill="#3fa0e6" stroke="black" points="327.5,-261 186.5,-261 186.5,-193 327.5,-193 327.5,-261"/>
<text text-anchor="middle" x="257" y="-245.8" font-family="Helvetica,sans-Serif" font-size="14.00">area error &lt;= 38.885</text>
<text text-anchor="middle" x="257" y="-230.8" font-family="Helvetica,sans-Serif" font-size="14.00">samples = 252</text>
<text text-anchor="middle" x="257" y="-215.8" font-family="Helvetica,sans-Serif" font-size="14.00">value = [7, 245]</text>
<text text-anchor="middle" x="257" y="-200.8" font-family="Helvetica,sans-Serif" font-size="14.00">class = benign</text>
</g>
<!-- 1&#45;&gt;2 -->
<g id="edge2" class="edge">
<title>1&#45;&gt;2</title>
<path fill="none" stroke="black" d="M358.3,-296.88C344.21,-287.3 328.71,-276.76 314.15,-266.86"/>
<polygon fill="black" stroke="black" points="315.95,-263.85 305.71,-261.12 312.01,-269.64 315.95,-263.85"/>
</g>
<!-- 7 -->
<g id="node8" class="node">
<title>7</title>
<polygon fill="#eeab7b" stroke="black" points="468,-253.5 346,-253.5 346,-200.5 468,-200.5 468,-253.5"/>
<text text-anchor="middle" x="407" y="-238.3" font-family="Helvetica,sans-Serif" font-size="14.00">samples = 8</text>
<text text-anchor="middle" x="407" y="-223.3" font-family="Helvetica,sans-Serif" font-size="14.00">value = [6, 2]</text>
<text text-anchor="middle" x="407" y="-208.3" font-family="Helvetica,sans-Serif" font-size="14.00">class = malignant</text>
</g>
<!-- 1&#45;&gt;7 -->
<g id="edge7" class="edge">
<title>1&#45;&gt;7</title>
<path fill="none" stroke="black" d="M407,-296.88C407,-286.33 407,-274.6 407,-263.85"/>
<polygon fill="black" stroke="black" points="410.5,-263.52 407,-253.52 403.5,-263.52 410.5,-263.52"/>
</g>
<!-- 3 -->
<g id="node4" class="node">
<title>3</title>
<polygon fill="#3c9fe5" stroke="black" points="196.5,-157 37.5,-157 37.5,-89 196.5,-89 196.5,-157"/>
<text text-anchor="middle" x="117" y="-141.8" font-family="Helvetica,sans-Serif" font-size="14.00">worst texture &lt;= 30.145</text>
<text text-anchor="middle" x="117" y="-126.8" font-family="Helvetica,sans-Serif" font-size="14.00">samples = 244</text>
<text text-anchor="middle" x="117" y="-111.8" font-family="Helvetica,sans-Serif" font-size="14.00">value = [4, 240]</text>
<text text-anchor="middle" x="117" y="-96.8" font-family="Helvetica,sans-Serif" font-size="14.00">class = benign</text>
</g>
<!-- 2&#45;&gt;3 -->
<g id="edge3" class="edge">
<title>2&#45;&gt;3</title>
<path fill="none" stroke="black" d="M211.55,-192.88C198.59,-183.44 184.34,-173.06 170.93,-163.29"/>
<polygon fill="black" stroke="black" points="172.85,-160.36 162.71,-157.3 168.73,-166.02 172.85,-160.36"/>
</g>
<!-- 6 -->
<g id="node7" class="node">
<title>6</title>
<polygon fill="#b0d8f5" stroke="black" points="319,-149.5 215,-149.5 215,-96.5 319,-96.5 319,-149.5"/>
<text text-anchor="middle" x="267" y="-134.3" font-family="Helvetica,sans-Serif" font-size="14.00">samples = 8</text>
<text text-anchor="middle" x="267" y="-119.3" font-family="Helvetica,sans-Serif" font-size="14.00">value = [3, 5]</text>
<text text-anchor="middle" x="267" y="-104.3" font-family="Helvetica,sans-Serif" font-size="14.00">class = benign</text>
</g>
<!-- 2&#45;&gt;6 -->
<g id="edge6" class="edge">
<title>2&#45;&gt;6</title>
<path fill="none" stroke="black" d="M260.25,-192.88C261.29,-182.22 262.46,-170.35 263.52,-159.52"/>
<polygon fill="black" stroke="black" points="267.01,-159.81 264.5,-149.52 260.04,-159.13 267.01,-159.81"/>
</g>
<!-- 4 -->
<g id="node5" class="node">
<title>4</title>
<polygon fill="#399de5" stroke="black" points="110,-53 0,-53 0,0 110,0 110,-53"/>
<text text-anchor="middle" x="55" y="-37.8" font-family="Helvetica,sans-Serif" font-size="14.00">samples = 212</text>
<text text-anchor="middle" x="55" y="-22.8" font-family="Helvetica,sans-Serif" font-size="14.00">value = [0, 212]</text>
<text text-anchor="middle" x="55" y="-7.8" font-family="Helvetica,sans-Serif" font-size="14.00">class = benign</text>
</g>
<!-- 3&#45;&gt;4 -->
<g id="edge4" class="edge">
<title>3&#45;&gt;4</title>
<path fill="none" stroke="black" d="M95.32,-88.95C89.55,-80.17 83.32,-70.66 77.51,-61.82"/>
<polygon fill="black" stroke="black" points="80.3,-59.68 71.89,-53.24 74.44,-63.52 80.3,-59.68"/>
</g>
<!-- 5 -->
<g id="node6" class="node">
<title>5</title>
<polygon fill="#55abe9" stroke="black" points="232,-53 128,-53 128,0 232,0 232,-53"/>
<text text-anchor="middle" x="180" y="-37.8" font-family="Helvetica,sans-Serif" font-size="14.00">samples = 32</text>
<text text-anchor="middle" x="180" y="-22.8" font-family="Helvetica,sans-Serif" font-size="14.00">value = [4, 28]</text>
<text text-anchor="middle" x="180" y="-7.8" font-family="Helvetica,sans-Serif" font-size="14.00">class = benign</text>
</g>
<!-- 3&#45;&gt;5 -->
<g id="edge5" class="edge">
<title>3&#45;&gt;5</title>
<path fill="none" stroke="black" d="M139.03,-88.95C144.89,-80.17 151.22,-70.66 157.12,-61.82"/>
<polygon fill="black" stroke="black" points="160.21,-63.5 162.84,-53.24 154.38,-59.62 160.21,-63.5"/>
</g>
<!-- 9 -->
<g id="node10" class="node">
<title>9</title>
<polygon fill="#d0e8f9" stroke="black" points="638,-261 486,-261 486,-193 638,-193 638,-261"/>
<text text-anchor="middle" x="562" y="-245.8" font-family="Helvetica,sans-Serif" font-size="14.00">worst texture &lt;= 23.74</text>
<text text-anchor="middle" x="562" y="-230.8" font-family="Helvetica,sans-Serif" font-size="14.00">samples = 30</text>
<text text-anchor="middle" x="562" y="-215.8" font-family="Helvetica,sans-Serif" font-size="14.00">value = [13, 17]</text>
<text text-anchor="middle" x="562" y="-200.8" font-family="Helvetica,sans-Serif" font-size="14.00">class = benign</text>
</g>
<!-- 8&#45;&gt;9 -->
<g id="edge9" class="edge">
<title>8&#45;&gt;9</title>
<path fill="none" stroke="black" d="M562,-296.88C562,-288.78 562,-279.98 562,-271.47"/>
<polygon fill="black" stroke="black" points="565.5,-271.3 562,-261.3 558.5,-271.3 565.5,-271.3"/>
</g>
<!-- 14 -->
<g id="node15" class="node">
<title>14</title>
<polygon fill="#e6843d" stroke="black" points="815.5,-261 656.5,-261 656.5,-193 815.5,-193 815.5,-261"/>
<text text-anchor="middle" x="736" y="-245.8" font-family="Helvetica,sans-Serif" font-size="14.00">worst texture &lt;= 19.385</text>
<text text-anchor="middle" x="736" y="-230.8" font-family="Helvetica,sans-Serif" font-size="14.00">samples = 136</text>
<text text-anchor="middle" x="736" y="-215.8" font-family="Helvetica,sans-Serif" font-size="14.00">value = [133, 3]</text>
<text text-anchor="middle" x="736" y="-200.8" font-family="Helvetica,sans-Serif" font-size="14.00">class = malignant</text>
</g>
<!-- 8&#45;&gt;14 -->
<g id="edge14" class="edge">
<title>8&#45;&gt;14</title>
<path fill="none" stroke="black" d="M618.49,-296.88C635.14,-287.12 653.49,-276.37 670.65,-266.31"/>
<polygon fill="black" stroke="black" points="672.64,-269.2 679.49,-261.12 669.1,-263.16 672.64,-269.2"/>
</g>
<!-- 10 -->
<g id="node11" class="node">
<title>10</title>
<polygon fill="#399de5" stroke="black" points="453,-149.5 349,-149.5 349,-96.5 453,-96.5 453,-149.5"/>
<text text-anchor="middle" x="401" y="-134.3" font-family="Helvetica,sans-Serif" font-size="14.00">samples = 14</text>
<text text-anchor="middle" x="401" y="-119.3" font-family="Helvetica,sans-Serif" font-size="14.00">value = [0, 14]</text>
<text text-anchor="middle" x="401" y="-104.3" font-family="Helvetica,sans-Serif" font-size="14.00">class = benign</text>
</g>
<!-- 9&#45;&gt;10 -->
<g id="edge10" class="edge">
<title>9&#45;&gt;10</title>
<path fill="none" stroke="black" d="M509.73,-192.88C490.46,-180.68 468.72,-166.9 449.77,-154.9"/>
<polygon fill="black" stroke="black" points="451.6,-151.92 441.28,-149.52 447.86,-157.83 451.6,-151.92"/>
</g>
<!-- 11 -->
<g id="node12" class="node">
<title>11</title>
<polygon fill="#eb9e67" stroke="black" points="655,-157 471,-157 471,-89 655,-89 655,-157"/>
<text text-anchor="middle" x="563" y="-141.8" font-family="Helvetica,sans-Serif" font-size="14.00">worst smoothness &lt;= 0.166</text>
<text text-anchor="middle" x="563" y="-126.8" font-family="Helvetica,sans-Serif" font-size="14.00">samples = 16</text>
<text text-anchor="middle" x="563" y="-111.8" font-family="Helvetica,sans-Serif" font-size="14.00">value = [13, 3]</text>
<text text-anchor="middle" x="563" y="-96.8" font-family="Helvetica,sans-Serif" font-size="14.00">class = malignant</text>
</g>
<!-- 9&#45;&gt;11 -->
<g id="edge11" class="edge">
<title>9&#45;&gt;11</title>
<path fill="none" stroke="black" d="M562.32,-192.88C562.4,-184.78 562.49,-175.98 562.57,-167.47"/>
<polygon fill="black" stroke="black" points="566.08,-167.33 562.67,-157.3 559.08,-167.26 566.08,-167.33"/>
</g>
<!-- 12 -->
<g id="node13" class="node">
<title>12</title>
<polygon fill="#f5cdb0" stroke="black" points="554,-53 432,-53 432,0 554,0 554,-53"/>
<text text-anchor="middle" x="493" y="-37.8" font-family="Helvetica,sans-Serif" font-size="14.00">samples = 8</text>
<text text-anchor="middle" x="493" y="-22.8" font-family="Helvetica,sans-Serif" font-size="14.00">value = [5, 3]</text>
<text text-anchor="middle" x="493" y="-7.8" font-family="Helvetica,sans-Serif" font-size="14.00">class = malignant</text>
</g>
<!-- 11&#45;&gt;12 -->
<g id="edge12" class="edge">
<title>11&#45;&gt;12</title>
<path fill="none" stroke="black" d="M538.52,-88.95C531.94,-80.07 524.83,-70.46 518.21,-61.54"/>
<polygon fill="black" stroke="black" points="520.83,-59.19 512.06,-53.24 515.2,-63.36 520.83,-59.19"/>
</g>
<!-- 13 -->
<g id="node14" class="node">
<title>13</title>
<polygon fill="#e58139" stroke="black" points="694,-53 572,-53 572,0 694,0 694,-53"/>
<text text-anchor="middle" x="633" y="-37.8" font-family="Helvetica,sans-Serif" font-size="14.00">samples = 8</text>
<text text-anchor="middle" x="633" y="-22.8" font-family="Helvetica,sans-Serif" font-size="14.00">value = [8, 0]</text>
<text text-anchor="middle" x="633" y="-7.8" font-family="Helvetica,sans-Serif" font-size="14.00">class = malignant</text>
</g>
<!-- 11&#45;&gt;13 -->
<g id="edge13" class="edge">
<title>11&#45;&gt;13</title>
<path fill="none" stroke="black" d="M587.48,-88.95C594.06,-80.07 601.17,-70.46 607.79,-61.54"/>
<polygon fill="black" stroke="black" points="610.8,-63.36 613.94,-53.24 605.17,-59.19 610.8,-63.36"/>
</g>
<!-- 15 -->
<g id="node16" class="node">
<title>15</title>
<polygon fill="#f2c09c" stroke="black" points="796,-149.5 674,-149.5 674,-96.5 796,-96.5 796,-149.5"/>
<text text-anchor="middle" x="735" y="-134.3" font-family="Helvetica,sans-Serif" font-size="14.00">samples = 9</text>
<text text-anchor="middle" x="735" y="-119.3" font-family="Helvetica,sans-Serif" font-size="14.00">value = [6, 3]</text>
<text text-anchor="middle" x="735" y="-104.3" font-family="Helvetica,sans-Serif" font-size="14.00">class = malignant</text>
</g>
<!-- 14&#45;&gt;15 -->
<g id="edge15" class="edge">
<title>14&#45;&gt;15</title>
<path fill="none" stroke="black" d="M735.68,-192.88C735.57,-182.33 735.46,-170.6 735.35,-159.85"/>
<polygon fill="black" stroke="black" points="738.85,-159.49 735.25,-149.52 731.85,-159.55 738.85,-159.49"/>
</g>
<!-- 16 -->
<g id="node17" class="node">
<title>16</title>
<polygon fill="#e58139" stroke="black" points="936,-149.5 814,-149.5 814,-96.5 936,-96.5 936,-149.5"/>
<text text-anchor="middle" x="875" y="-134.3" font-family="Helvetica,sans-Serif" font-size="14.00">samples = 127</text>
<text text-anchor="middle" x="875" y="-119.3" font-family="Helvetica,sans-Serif" font-size="14.00">value = [127, 0]</text>
<text text-anchor="middle" x="875" y="-104.3" font-family="Helvetica,sans-Serif" font-size="14.00">class = malignant</text>
</g>
<!-- 14&#45;&gt;16 -->
<g id="edge16" class="edge">
<title>14&#45;&gt;16</title>
<path fill="none" stroke="black" d="M781.13,-192.88C797.47,-180.9 815.86,-167.4 832.01,-155.55"/>
<polygon fill="black" stroke="black" points="834.23,-158.26 840.22,-149.52 830.09,-152.61 834.23,-158.26"/>
</g>
</g>
</svg>