<?xml version="1.0" encoding="UTF-8" standalone="no"?>
<!DOCTYPE svg PUBLIC "-//W3C//DTD SVG 1.1//EN"
 "http://www.w3.org/Graphics/SVG/1.1/DTD/svg11.dtd">
<!-- Generated by graphviz version 2.50.0 (0)
 -->
<!-- Title: Tree Pages: 1 -->
<svg width="553pt" height="373pt"
 viewBox="0.00 0.00 553.00 373.00" xmlns="http://www.w3.org/2000/svg" xmlns:xlink="http://www.w3.org/1999/xlink">
<g id="graph0" class="graph" transform="scale(1 1) rotate(0) translate(4 369)">
<title>Tree</title>
<polygon fill="white" stroke="transparent" points="-4,4 -4,-369 549,-369 549,4 -4,4"/>
<!-- 0 -->
<g id="node1" class="node">
<title>0</title>
<polygon fill="#fdfcff" stroke="black" points="273,-365 118,-365 118,-297 273,-297 273,-365"/>
<text text-anchor="middle" x="195.5" y="-349.8" font-family="Helvetica,sans-Serif" font-size="14.00">petal width (cm) &lt;= 0.8</text>
<text text-anchor="middle" x="195.5" y="-334.8" font-family="Helvetica,sans-Serif" font-size="14.00">samples = 112</text>
<text text-anchor="middle" x="195.5" y="-319.8" font-family="Helvetica,sans-Serif" font-size="14.00">value = [35, 38, 39]</text>
<text text-anchor="middle" x="195.5" y="-304.8" font-family="Helvetica,sans-Serif" font-size="14.00">class = virginica</text>
</g>
<!-- 1 -->
<g id="node2" class="node">
<title>1</title>
<polygon fill="#e58139" stroke="black" points="175,-253.5 58,-253.5 58,-200.5 175,-200.5 175,-253.5"/>
<text text-anchor="middle" x="116.5" y="-238.3" font-family="Helvetica,sans-Serif" font-size="14.00">samples = 35</text>
<text text-anchor="middle" x="116.5" y="-223.3" font-family="Helvetica,sans-Serif" font-size="14.00">value = [35, 0, 0]</text>
<text text-anchor="middle" x="116.5" y="-208.3" font-family="Helvetica,sans-Serif" font-size="14.00">class = setosa</text>
</g>
<!-- 0&#45;&gt;1 -->
<g id="edge1" class="edge">
<title>0&#45;&gt;1</title>
<path fill="none" stroke="black" d="M169.85,-296.88C161.08,-285.56 151.26,-272.88 142.46,-261.52"/>
<polygon fill="black" stroke="black" points="145.16,-259.28 136.27,-253.52 139.62,-263.57 145.16,-259.28"/>
<text text-anchor="middle" x="133.11" y="-274.62" font-family="Helvetica,sans-Serif" font-size="14.00">True</text>
</g>
<!-- 2 -->
<g id="node3" class="node">
<title>2</title>
<polygon fill="#fcfafe" stroke="black" points="356,-261 193,-261 193,-193 356,-193 356,-261"/>
<text text-anchor="middle" x="274.5" y="-245.8" font-family="Helvetica,sans-Serif" font-size="14.00">petal width (cm) &lt;= 1.65</text>
<text text-anchor="middle" x="274.5" y="-230.8" font-family="Helvetica,sans-Serif" font-size="14.00">samples = 77</text>
<text text-anchor="middle" x="274.5" y="-215.8" font-family="Helvetica,sans-Serif" font-size="14.00">value = [0, 38, 39]</text>
<text text-anchor="middle" x="274.5" y="-200.8" font-family="Helvetica,sans-Serif" font-size="14.00">class = virginica</text>
</g>
<!-- 0&#45;&gt;2 -->
<g id="edge2" class="edge">
<title>0&#45;&gt;2</title>
<path fill="none" stroke="black" d="M221.15,-296.88C227.98,-288.07 235.44,-278.43 242.56,-269.24"/>
<polygon fill="black" stroke="black" points="245.35,-271.35 248.71,-261.3 239.82,-267.06 245.35,-271.35"/>
<text text-anchor="middle" x="251.86" y="-282.4" font-family="Helvetica,sans-Serif" font-size="14.00">False</text>
</g>
<!-- 3 -->
<g id="node4" class="node">
<title>3</title>
<polygon fill="#49e78b" stroke="black" points="265.5,-157 97.5,-157 97.5,-89 265.5,-89 265.5,-157"/>
<text text-anchor="middle" x="181.5" y="-141.8" font-family="Helvetica,sans-Serif" font-size="14.00">petal length (cm) &lt;= 4.95</text>
<text text-anchor="middle" x="181.5" y="-126.8" font-family="Helvetica,sans-Serif" font-size="14.00">samples = 40</text>
<text text-anchor="middle" x="181.5" y="-111.8" font-family="Helvetica,sans-Serif" font-size="14.00">value = [0, 37, 3]</text>
<text text-anchor="middle" x="181.5" y="-96.8" font-family="Helvetica,sans-Serif" font-size="14.00">class = versicolor</text>
</g>
<!-- 2&#45;&gt;3 -->
<g id="edge3" class="edge">
<title>2&#45;&gt;3</title>
<path fill="none" stroke="black" d="M244.31,-192.88C236.18,-183.98 227.3,-174.24 218.84,-164.96"/>
<polygon fill="black" stroke="black" points="221.19,-162.33 211.86,-157.3 216.01,-167.05 221.19,-162.33"/>
</g>
<!-- 6 -->
<g id="node7" class="node">
<title>6</title>
<polygon fill="#843ee6" stroke="black" points="451.5,-157 283.5,-157 283.5,-89 451.5,-89 451.5,-157"/>
<text text-anchor="middle" x="367.5" y="-141.8" font-family="Helvetica,sans-Serif" font-size="14.00">petal length (cm) &lt;= 4.85</text>
<text text-anchor="middle" x="367.5" y="-126.8" font-family="Helvetica,sans-Serif" font-size="14.00">samples = 37</text>
<text text-anchor="middle" x="367.5" y="-111.8" font-family="Helvetica,sans-Serif" font-size="14.00">value = [0, 1, 36]</text>
<text text-anchor="middle" x="367.5" y="-96.8" font-family="Helvetica,sans-Serif" font-size="14.00">class = virginica</text>
</g>
<!-- 2&#45;&gt;6 -->
<g id="edge6" class="edge">
<title>2&#45;&gt;6</title>
<path fill="none" stroke="black" d="M304.69,-192.88C312.82,-183.98 321.7,-174.24 330.16,-164.96"/>
<polygon fill="black" stroke="black" points="332.99,-167.05 337.14,-157.3 327.81,-162.33 332.99,-167.05"/>
</g>
<!-- 4 -->
<g id="node5" class="node">
<title>4</title>
<polygon fill="#39e581" stroke="black" points="121,-53 0,-53 0,0 121,0 121,-53"/>
<text text-anchor="middle" x="60.5" y="-37.8" font-family="Helvetica,sans-Serif" font-size="14.00">samples = 36</text>
<text text-anchor="middle" x="60.5" y="-22.8" font-family="Helvetica,sans-Serif" font-size="14.00">value = [0, 36, 0]</text>
<text text-anchor="middle" x="60.5" y="-7.8" font-family="Helvetica,sans-Serif" font-size="14.00">class = versicolor</text>
</g>
<!-- 3&#45;&gt;4 -->
<g id="edge4" class="edge">
<title>3&#45;&gt;4</title>
<path fill="none" stroke="black" d="M139.18,-88.95C127,-79.43 113.73,-69.07 101.62,-59.62"/>
<polygon fill="black" stroke="black" points="103.49,-56.63 93.45,-53.24 99.18,-62.15 103.49,-56.63"/>
</g>
<!-- 5 -->
<g id="node6" class="node">
<title>5</title>
<polygon fill="#ab7bee" stroke="black" points="252,-53 139,-53 139,0 252,0 252,-53"/>
<text text-anchor="middle" x="195.5" y="-37.8" font-family="Helvetica,sans-Serif" font-size="14.00">samples = 4</text>
<text text-anchor="middle" x="195.5" y="-22.8" font-family="Helvetica,sans-Serif" font-size="14.00">value = [0, 1, 3]</text>
<text text-anchor="middle" x="195.5" y="-7.8" font-family="Helvetica,sans-Serif" font-size="14.00">class = virginica</text>
</g>
<!-- 3&#45;&gt;5 -->
<g id="edge5" class="edge">
<title>3&#45;&gt;5</title>
<path fill="none" stroke="black" d="M186.4,-88.95C187.63,-80.62 188.96,-71.65 190.21,-63.2"/>
<polygon fill="black" stroke="black" points="193.68,-63.64 191.69,-53.24 186.76,-62.62 193.68,-63.64"/>
</g>
<!-- 7 -->
<g id="node8" class="node">
<title>7</title>
<polygon fill="#c09cf2" stroke="black" points="410,-53 297,-53 297,0 410,0 410,-53"/>
<text text-anchor="middle" x="353.5" y="-37.8" font-family="Helvetica,sans-Serif" font-size="14.00">samples = 3</text>
<text text-anchor="middle" x="353.5" y="-22.8" font-family="Helvetica,sans-Serif" font-size="14.00">value = [0, 1, 2]</text>
<text text-anchor="middle" x="353.5" y="-7.8" font-family="Helvetica,sans-Serif" font-size="14.00">class = virginica</text>
</g>
<!-- 6&#45;&gt;7 -->
<g id="edge7" class="edge">
<title>6&#45;&gt;7</title>
<path fill="none" stroke="black" d="M362.6,-88.95C361.37,-80.62 360.04,-71.65 358.79,-63.2"/>
<polygon fill="black" stroke="black" points="362.24,-62.62 357.31,-53.24 355.32,-63.64 362.24,-62.62"/>
</g>
<!-- 8 -->
<g id="node9" class="node">
<title>8</title>
<polygon fill="#8139e5" stroke="black" points="545,-53 428,-53 428,0 545,0 545,-53"/>
<text text-anchor="middle" x="486.5" y="-37.8" font-family="Helvetica,sans-Serif" font-size="14.00">samples = 34</text>
<text text-anchor="middle" x="486.5" y="-22.8" font-family="Helvetica,sans-Serif" font-size="14.00">value = [0, 0, 34]</text>
<text text-anchor="middle" x="486.5" y="-7.8" font-family="Helvetica,sans-Serif" font-size="14.00">class = virginica</text>
</g>
<!-- 6&#45;&gt;8 -->
<g id="edge8" class="edge">
<title>6&#45;&gt;8</title>
<path fill="none" stroke="black" d="M409.12,-88.95C421.1,-79.43 434.15,-69.07 446.06,-59.62"/>
<polygon fill="black" stroke="black" points="448.44,-62.2 454.09,-53.24 444.08,-56.71 448.44,-62.2"/>
</g>
</g>
</svg>