<?xml version="1.0" encoding="UTF-8" standalone="no"?>
<!DOCTYPE svg PUBLIC "-//W3C//DTD SVG 1.1//EN"
 "http://www.w3.org/Graphics/SVG/1.1/DTD/svg11.dtd">
<!-- Generated by graphviz version 2.50.0 (0)
 -->
<!-- Title: Tree Pages: 1 -->
<svg width="624pt" height="581pt"
 viewBox="0.00 0.00 624.00 581.00" xmlns="http://www.w3.org/2000/svg" xmlns:xlink="http://www.w3.org/1999/xlink">
<g id="graph0" class="graph" transform="scale(1 1) rotate(0) translate(4 577)">
<title>Tree</title>
<polygon fill="white" stroke="transparent" points="-4,4 -4,-577 620,-577 620,4 -4,4"/>
<!-- 0 -->
<g id="node1" class="node">
<title>0</title>
<polygon fill="#fdfcff" stroke="black" points="309,-573 154,-573 154,-505 309,-505 309,-573"/>
<text text-anchor="middle" x="231.5" y="-557.8" font-family="Helvetica,sans-Serif" font-size="14.00">petal width (cm) &lt;= 0.8</text>
<text text-anchor="middle" x="231.5" y="-542.8" font-family="Helvetica,sans-Serif" font-size="14.00">samples = 112</text>
<text text-anchor="middle" x="231.5" y="-527.8" font-family="Helvetica,sans-Serif" font-size="14.00">value = [35, 38, 39]</text>
<text text-anchor="middle" x="231.5" y="-512.8" font-family="Helvetica,sans-Serif" font-size="14.00">class = virginica</text>
</g>
<!-- 1 -->
<g id="node2" class="node">
<title>1</title>
<polygon fill="#e58139" stroke="black" points="211,-461.5 94,-461.5 94,-408.5 211,-408.5 211,-461.5"/>
<text text-anchor="middle" x="152.5" y="-446.3" font-family="Helvetica,sans-Serif" font-size="14.00">samples = 35</text>
<text text-anchor="middle" x="152.5" y="-431.3" font-family="Helvetica,sans-Serif" font-size="14.00">value = [35, 0, 0]</text>
<text text-anchor="middle" x="152.5" y="-416.3" font-family="Helvetica,sans-Serif" font-size="14.00">class = setosa</text>
</g>
<!-- 0&#45;&gt;1 -->
<g id="edge1" class="edge">
<title>0&#45;&gt;1</title>
<path fill="none" stroke="black" d="M205.85,-504.88C197.08,-493.56 187.26,-480.88 178.46,-469.52"/>
<polygon fill="black" stroke="black" points="181.16,-467.28 172.27,-461.52 175.62,-471.57 181.16,-467.28"/>
<text text-anchor="middle" x="169.11" y="-482.62" font-family="Helvetica,sans-Serif" font-size="14.00">True</text>
</g>
<!-- 2 -->
<g id="node3" class="node">
<title>2</title>
<polygon fill="#fcfafe" stroke="black" points="392,-469 229,-469 229,-401 392,-401 392,-469"/>
<text text-anchor="middle" x="310.5" y="-453.8" font-family="Helvetica,sans-Serif" font-size="14.00">petal width (cm) &lt;= 1.65</text>
<text text-anchor="middle" x="310.5" y="-438.8" font-family="Helvetica,sans-Serif" font-size="14.00">samples = 77</text>
<text text-anchor="middle" x="310.5" y="-423.8" font-family="Helvetica,sans-Serif" font-size="14.00">value = [0, 38, 39]</text>
<text text-anchor="middle" x="310.5" y="-408.8" font-family="Helvetica,sans-Serif" font-size="14.00">class = virginica</text>
</g>
<!-- 0&#45;&gt;2 -->
<g id="edge2" class="edge">
<title>0&#45;&gt;2</title>
<path fill="none" stroke="black" d="M257.15,-504.88C263.98,-496.07 271.44,-486.43 278.56,-477.24"/>
<polygon fill="black" stroke="black" points="281.35,-479.35 284.71,-469.3 275.82,-475.06 281.35,-479.35"/>
<text text-anchor="middle" x="287.86" y="-490.4" font-family="Helvetica,sans-Serif" font-size="14.00">False</text>
</g>
<!-- 3 -->
<g id="node4" class="node">
<title>3</title>
<polygon fill="#49e78b" stroke="black" points="301.5,-365 133.5,-365 133.5,-297 301.5,-297 301.5,-365"/>
<text text-anchor="middle" x="217.5" y="-349.8" font-family="Helvetica,sans-Serif" font-size="14.00">petal length (cm) &lt;= 4.95</text>
<text text-anchor="middle" x="217.5" y="-334.8" font-family="Helvetica,sans-Serif" font-size="14.00">samples = 40</text>
<text text-anchor="middle" x="217.5" y="-319.8" font-family="Helvetica,sans-Serif" font-size="14.00">value = [0, 37, 3]</text>
<text text-anchor="middle" x="217.5" y="-304.8" font-family="Helvetica,sans-Serif" font-size="14.00">class = versicolor</text>
</g>
<!-- 2&#45;&gt;3 -->
<g id="edge3" class="edge">
<title>2&#45;&gt;3</title>
<path fill="none" stroke="black" d="M280.31,-400.88C272.18,-391.98 263.3,-382.24 254.84,-372.96"/>
<polygon fill="black" stroke="black" points="257.19,-370.33 247.86,-365.3 252.01,-375.05 257.19,-370.33"/>
</g>
<!-- 10 -->
<g id="node11" class="node">
<title>10</title>
<polygon fill="#843ee6" stroke="black" points="487.5,-365 319.5,-365 319.5,-297 487.5,-297 487.5,-365"/>
<text text-anchor="middle" x="403.5" y="-349.8" font-family="Helvetica,sans-Serif" font-size="14.00">petal length (cm) &lt;= 4.85</text>
<text text-anchor="middle" x="403.5" y="-334.8" font-family="Helvetica,sans-Serif" font-size="14.00">samples = 37</text>
<text text-anchor="middle" x="403.5" y="-319.8" font-family="Helvetica,sans-Serif" font-size="14.00">value = [0, 1, 36]</text>
<text text-anchor="middle" x="403.5" y="-304.8" font-family="Helvetica,sans-Serif" font-size="14.00">class = virginica</text>
</g>
<!-- 2&#45;&gt;10 -->
<g id="edge10" class="edge">
<title>2&#45;&gt;10</title>
<path fill="none" stroke="black" d="M340.69,-400.88C348.82,-391.98 357.7,-382.24 366.16,-372.96"/>
<polygon fill="black" stroke="black" points="368.99,-375.05 373.14,-365.3 363.81,-370.33 368.99,-375.05"/>
</g>
<!-- 4 -->
<g id="node5" class="node">
<title>4</title>
<polygon fill="#39e581" stroke="black" points="121,-253.5 0,-253.5 0,-200.5 121,-200.5 121,-253.5"/>
<text text-anchor="middle" x="60.5" y="-238.3" font-family="Helvetica,sans-Serif" font-size="14.00">samples = 36</text>
<text text-anchor="middle" x="60.5" y="-223.3" font-family="Helvetica,sans-Serif" font-size="14.00">value = [0, 36, 0]</text>
<text text-anchor="middle" x="60.5" y="-208.3" font-family="Helvetica,sans-Serif" font-size="14.00">class = versicolor</text>
</g>
<!-- 3&#45;&gt;4 -->
<g id="edge4" class="edge">
<title>3&#45;&gt;4</title>
<path fill="none" stroke="black" d="M166.53,-296.88C147.82,-284.73 126.73,-271.03 108.31,-259.06"/>
<polygon fill="black" stroke="black" points="110.07,-256.03 99.78,-253.52 106.26,-261.9 110.07,-256.03"/>
</g>
<!-- 5 -->
<g id="node6" class="node">
<title>5</title>
<polygon fill="#ab7bee" stroke="black" points="302,-261 139,-261 139,-193 302,-193 302,-261"/>
<text text-anchor="middle" x="220.5" y="-245.8" font-family="Helvetica,sans-Serif" font-size="14.00">petal width (cm) &lt;= 1.55</text>
<text text-anchor="middle" x="220.5" y="-230.8" font-family="Helvetica,sans-Serif" font-size="14.00">samples = 4</text>
<text text-anchor="middle" x="220.5" y="-215.8" font-family="Helvetica,sans-Serif" font-size="14.00">value = [0, 1, 3]</text>
<text text-anchor="middle" x="220.5" y="-200.8" font-family="Helvetica,sans-Serif" font-size="14.00">class = virginica</text>
</g>
<!-- 3&#45;&gt;5 -->
<g id="edge5" class="edge">
<title>3&#45;&gt;5</title>
<path fill="none" stroke="black" d="M218.47,-296.88C218.71,-288.78 218.97,-279.98 219.22,-271.47"/>
<polygon fill="black" stroke="black" points="222.73,-271.4 219.52,-261.3 215.73,-271.19 222.73,-271.4"/>
</g>
<!-- 6 -->
<g id="node7" class="node">
<title>6</title>
<polygon fill="#8139e5" stroke="black" points="124,-149.5 11,-149.5 11,-96.5 124,-96.5 124,-149.5"/>
<text text-anchor="middle" x="67.5" y="-134.3" font-family="Helvetica,sans-Serif" font-size="14.00">samples = 2</text>
<text text-anchor="middle" x="67.5" y="-119.3" font-family="Helvetica,sans-Serif" font-size="14.00">value = [0, 0, 2]</text>
<text text-anchor="middle" x="67.5" y="-104.3" font-family="Helvetica,sans-Serif" font-size="14.00">class = virginica</text>
</g>
<!-- 5&#45;&gt;6 -->
<g id="edge6" class="edge">
<title>5&#45;&gt;6</title>
<path fill="none" stroke="black" d="M170.83,-192.88C152.68,-180.79 132.23,-167.15 114.34,-155.22"/>
<polygon fill="black" stroke="black" points="116.04,-152.15 105.78,-149.52 112.16,-157.98 116.04,-152.15"/>
</g>
<!-- 7 -->
<g id="node8" class="node">
<title>7</title>
<polygon fill="#ffffff" stroke="black" points="308.5,-157 142.5,-157 142.5,-89 308.5,-89 308.5,-157"/>
<text text-anchor="middle" x="225.5" y="-141.8" font-family="Helvetica,sans-Serif" font-size="14.00">sepal width (cm) &lt;= 2.85</text>
<text text-anchor="middle" x="225.5" y="-126.8" font-family="Helvetica,sans-Serif" font-size="14.00">samples = 2</text>
<text text-anchor="middle" x="225.5" y="-111.8" font-family="Helvetica,sans-Serif" font-size="14.00">value = [0, 1, 1]</text>
<text text-anchor="middle" x="225.5" y="-96.8" font-family="Helvetica,sans-Serif" font-size="14.00">class = versicolor</text>
</g>
<!-- 5&#45;&gt;7 -->
<g id="edge7" class="edge">
<title>5&#45;&gt;7</title>
<path fill="none" stroke="black" d="M222.12,-192.88C222.52,-184.78 222.95,-175.98 223.37,-167.47"/>
<polygon fill="black" stroke="black" points="226.87,-167.46 223.87,-157.3 219.88,-167.12 226.87,-167.46"/>
</g>
<!-- 8 -->
<g id="node9" class="node">
<title>8</title>
<polygon fill="#39e581" stroke="black" points="219,-53 98,-53 98,0 219,0 219,-53"/>
<text text-anchor="middle" x="158.5" y="-37.8" font-family="Helvetica,sans-Serif" font-size="14.00">samples = 1</text>
<text text-anchor="middle" x="158.5" y="-22.8" font-family="Helvetica,sans-Serif" font-size="14.00">value = [0, 1, 0]</text>
<text text-anchor="middle" x="158.5" y="-7.8" font-family="Helvetica,sans-Serif" font-size="14.00">class = versicolor</text>
</g>
<!-- 7&#45;&gt;8 -->
<g id="edge8" class="edge">
<title>7&#45;&gt;8</title>
<path fill="none" stroke="black" d="M202.07,-88.95C195.78,-80.07 188.96,-70.46 182.63,-61.54"/>
<polygon fill="black" stroke="black" points="185.39,-59.37 176.75,-53.24 179.68,-63.42 185.39,-59.37"/>
</g>
<!-- 9 -->
<g id="node10" class="node">
<title>9</title>
<polygon fill="#8139e5" stroke="black" points="350,-53 237,-53 237,0 350,0 350,-53"/>
<text text-anchor="middle" x="293.5" y="-37.8" font-family="Helvetica,sans-Serif" font-size="14.00">samples = 1</text>
<text text-anchor="middle" x="293.5" y="-22.8" font-family="Helvetica,sans-Serif" font-size="14.00">value = [0, 0, 1]</text>
<text text-anchor="middle" x="293.5" y="-7.8" font-family="Helvetica,sans-Serif" font-size="14.00">class = virginica</text>
</g>
<!-- 7&#45;&gt;9 -->
<g id="edge9" class="edge">
<title>7&#45;&gt;9</title>
<path fill="none" stroke="black" d="M249.28,-88.95C255.67,-80.07 262.58,-70.46 269.01,-61.54"/>
<polygon fill="black" stroke="black" points="271.98,-63.4 274.98,-53.24 266.3,-59.31 271.98,-63.4"/>
</g>
<!-- 11 -->
<g id="node12" class="node">
<title>11</title>
<polygon fill="#c09cf2" stroke="black" points="480.5,-261 322.5,-261 322.5,-193 480.5,-193 480.5,-261"/>
<text text-anchor="middle" x="401.5" y="-245.8" font-family="Helvetica,sans-Serif" font-size="14.00">sepal width (cm) &lt;= 3.1</text>
<text text-anchor="middle" x="401.5" y="-230.8" font-family="Helvetica,sans-Serif" font-size="14.00">samples = 3</text>
<text text-anchor="middle" x="401.5" y="-215.8" font-family="Helvetica,sans-Serif" font-size="14.00">value = [0, 1, 2]</text>
<text text-anchor="middle" x="401.5" y="-200.8" font-family="Helvetica,sans-Serif" font-size="14.00">class = virginica</text>
</g>
<!-- 10&#45;&gt;11 -->
<g id="edge11" class="edge">
<title>10&#45;&gt;11</title>
<path fill="none" stroke="black" d="M402.85,-296.88C402.69,-288.78 402.52,-279.98 402.35,-271.47"/>
<polygon fill="black" stroke="black" points="405.85,-271.23 402.15,-261.3 398.85,-271.37 405.85,-271.23"/>
</g>
<!-- 14 -->
<g id="node15" class="node">
<title>14</title>
<polygon fill="#8139e5" stroke="black" points="616,-253.5 499,-253.5 499,-200.5 616,-200.5 616,-253.5"/>
<text text-anchor="middle" x="557.5" y="-238.3" font-family="Helvetica,sans-Serif" font-size="14.00">samples = 34</text>
<text text-anchor="middle" x="557.5" y="-223.3" font-family="Helvetica,sans-Serif" font-size="14.00">value = [0, 0, 34]</text>
<text text-anchor="middle" x="557.5" y="-208.3" font-family="Helvetica,sans-Serif" font-size="14.00">class = virginica</text>
</g>
<!-- 10&#45;&gt;14 -->
<g id="edge14" class="edge">
<title>10&#45;&gt;14</title>
<path fill="none" stroke="black" d="M453.5,-296.88C471.76,-284.79 492.35,-271.15 510.36,-259.22"/>
<polygon fill="black" stroke="black" points="512.57,-261.96 518.97,-253.52 508.7,-256.12 512.57,-261.96"/>
</g>
<!-- 12 -->
<g id="node13" class="node">
<title>12</title>
<polygon fill="#8139e5" stroke="black" points="454,-149.5 341,-149.5 341,-96.5 454,-96.5 454,-149.5"/>
<text text-anchor="middle" x="397.5" y="-134.3" font-family="Helvetica,sans-Serif" font-size="14.00">samples = 2</text>
<text text-anchor="middle" x="397.5" y="-119.3" font-family="Helvetica,sans-Serif" font-size="14.00">value = [0, 0, 2]</text>
<text text-anchor="middle" x="397.5" y="-104.3" font-family="Helvetica,sans-Serif" font-size="14.00">class = virginica</text>
</g>
<!-- 11&#45;&gt;12 -->
<g id="edge12" class="edge">
<title>11&#45;&gt;12</title>
<path fill="none" stroke="black" d="M400.2,-192.88C399.78,-182.22 399.32,-170.35 398.89,-159.52"/>
<polygon fill="black" stroke="black" points="402.39,-159.38 398.5,-149.52 395.4,-159.65 402.39,-159.38"/>
</g>
<!-- 13 -->
<g id="node14" class="node">
<title>13</title>
<polygon fill="#39e581" stroke="black" points="593,-149.5 472,-149.5 472,-96.5 593,-96.5 593,-149.5"/>
<text text-anchor="middle" x="532.5" y="-134.3" font-family="Helvetica,sans-Serif" font-size="14.00">samples = 1</text>
<text text-anchor="middle" x="532.5" y="-119.3" font-family="Helvetica,sans-Serif" font-size="14.00">value = [0, 1, 0]</text>
<text text-anchor="middle" x="532.5" y="-104.3" font-family="Helvetica,sans-Serif" font-size="14.00">class = versicolor</text>
</g>
<!-- 11&#45;&gt;13 -->
<g id="edge13" class="edge">
<title>11&#45;&gt;13</title>
<path fill="none" stroke="black" d="M444.03,-192.88C459.29,-181.01 476.44,-167.65 491.56,-155.88"/>
<polygon fill="black" stroke="black" points="493.98,-158.43 499.72,-149.52 489.68,-152.9 493.98,-158.43"/>
</g>
</g>
</svg>