<?xml version="1.0" encoding="UTF-8" standalone="no"?>
<!DOCTYPE svg PUBLIC "-//W3C//DTD SVG 1.1//EN"
 "http://www.w3.org/Graphics/SVG/1.1/DTD/svg11.dtd">
<!-- Generated by graphviz version 8.0.5 (20230430.1635)
 -->
<!-- Title: Tree Pages: 1 -->
<svg width="620pt" height="581pt"
 viewBox="0.00 0.00 620.38 581.00" xmlns="http://www.w3.org/2000/svg" xmlns:xlink="http://www.w3.org/1999/xlink">
<g id="graph0" class="graph" transform="scale(1 1) rotate(0) translate(4 577)">
<title>Tree</title>
<polygon fill="white" stroke="none" points="-4,4 -4,-577 616.38,-577 616.38,4 -4,4"/>
<!-- 0 -->
<g id="node1" class="node">
<title>0</title>
<polygon fill="#fdfcff" stroke="black" points="306.5,-573 151.75,-573 151.75,-505 306.5,-505 306.5,-573"/>
<text text-anchor="middle" x="229.12" y="-555.7" font-family="Helvetica,sans-Serif" font-size="14.00">petal width (cm) &lt;= 0.8</text>
<text text-anchor="middle" x="229.12" y="-540.7" font-family="Helvetica,sans-Serif" font-size="14.00">samples = 112</text>
<text text-anchor="middle" x="229.12" y="-525.7" font-family="Helvetica,sans-Serif" font-size="14.00">value = [35, 38, 39]</text>
<text text-anchor="middle" x="229.12" y="-510.7" font-family="Helvetica,sans-Serif" font-size="14.00">class = virginica</text>
</g>
<!-- 1 -->
<g id="node2" class="node">
<title>1</title>
<polygon fill="#e58139" stroke="black" points="209.38,-461.5 92.88,-461.5 92.88,-408.5 209.38,-408.5 209.38,-461.5"/>
<text text-anchor="middle" x="151.12" y="-444.2" font-family="Helvetica,sans-Serif" font-size="14.00">samples = 35</text>
<text text-anchor="middle" x="151.12" y="-429.2" font-family="Helvetica,sans-Serif" font-size="14.00">value = [35, 0, 0]</text>
<text text-anchor="middle" x="151.12" y="-414.2" font-family="Helvetica,sans-Serif" font-size="14.00">class = setosa</text>
</g>
<!-- 0&#45;&gt;1 -->
<g id="edge1" class="edge">
<title>0&#45;&gt;1</title>
<path fill="none" stroke="black" d="M203.58,-504.6C195.17,-493.6 185.8,-481.35 177.34,-470.28"/>
<polygon fill="black" stroke="black" points="179.64,-468.52 170.78,-462.71 174.08,-472.78 179.64,-468.52"/>
<text text-anchor="middle" x="167.48" y="-480.69" font-family="Helvetica,sans-Serif" font-size="14.00">True</text>
</g>
<!-- 2 -->
<g id="node3" class="node">
<title>2</title>
<polygon fill="#fcfafe" stroke="black" points="389.25,-469 227,-469 227,-401 389.25,-401 389.25,-469"/>
<text text-anchor="middle" x="308.12" y="-451.7" font-family="Helvetica,sans-Serif" font-size="14.00">petal width (cm) &lt;= 1.65</text>
<text text-anchor="middle" x="308.12" y="-436.7" font-family="Helvetica,sans-Serif" font-size="14.00">samples = 77</text>
<text text-anchor="middle" x="308.12" y="-421.7" font-family="Helvetica,sans-Serif" font-size="14.00">value = [0, 38, 39]</text>
<text text-anchor="middle" x="308.12" y="-406.7" font-family="Helvetica,sans-Serif" font-size="14.00">class = virginica</text>
</g>
<!-- 0&#45;&gt;2 -->
<g id="edge2" class="edge">
<title>0&#45;&gt;2</title>
<path fill="none" stroke="black" d="M254.99,-504.6C261.54,-496.15 268.66,-486.96 275.49,-478.13"/>
<polygon fill="black" stroke="black" points="278.84,-480.52 282.2,-470.47 273.31,-476.24 278.84,-480.52"/>
<text text-anchor="middle" x="285.35" y="-488.47" font-family="Helvetica,sans-Serif" font-size="14.00">False</text>
</g>
<!-- 3 -->
<g id="node4" class="node">
<title>3</title>
<polygon fill="#49e78b" stroke="black" points="298.88,-365 131.38,-365 131.38,-297 298.88,-297 298.88,-365"/>
<text text-anchor="middle" x="215.12" y="-347.7" font-family="Helvetica,sans-Serif" font-size="14.00">petal length (cm) &lt;= 4.95</text>
<text text-anchor="middle" x="215.12" y="-332.7" font-family="Helvetica,sans-Serif" font-size="14.00">samples = 40</text>
<text text-anchor="middle" x="215.12" y="-317.7" font-family="Helvetica,sans-Serif" font-size="14.00">value = [0, 37, 3]</text>
<text text-anchor="middle" x="215.12" y="-302.7" font-family="Helvetica,sans-Serif" font-size="14.00">class = versicolor</text>
</g>
<!-- 2&#45;&gt;3 -->
<g id="edge3" class="edge">
<title>2&#45;&gt;3</title>
<path fill="none" stroke="black" d="M277.67,-400.6C269.81,-391.97 261.24,-382.58 253.04,-373.58"/>
<polygon fill="black" stroke="black" points="255.97,-371.51 246.65,-366.47 250.8,-376.22 255.97,-371.51"/>
</g>
<!-- 10 -->
<g id="node11" class="node">
<title>10</title>
<polygon fill="#843ee6" stroke="black" points="484.88,-365 317.38,-365 317.38,-297 484.88,-297 484.88,-365"/>
<text text-anchor="middle" x="401.12" y="-347.7" font-family="Helvetica,sans-Serif" font-size="14.00">petal length (cm) &lt;= 4.85</text>
<text text-anchor="middle" x="401.12" y="-332.7" font-family="Helvetica,sans-Serif" font-size="14.00">samples = 37</text>
<text text-anchor="middle" x="401.12" y="-317.7" font-family="Helvetica,sans-Serif" font-size="14.00">value = [0, 1, 36]</text>
<text text-anchor="middle" x="401.12" y="-302.7" font-family="Helvetica,sans-Serif" font-size="14.00">class = virginica</text>
</g>
<!-- 2&#45;&gt;10 -->
<g id="edge10" class="edge">
<title>2&#45;&gt;10</title>
<path fill="none" stroke="black" d="M338.58,-400.6C346.44,-391.97 355.01,-382.58 363.21,-373.58"/>
<polygon fill="black" stroke="black" points="365.45,-376.22 369.6,-366.47 360.28,-371.51 365.45,-376.22"/>
</g>
<!-- 4 -->
<g id="node5" class="node">
<title>4</title>
<polygon fill="#39e581" stroke="black" points="120.25,-253.5 0,-253.5 0,-200.5 120.25,-200.5 120.25,-253.5"/>
<text text-anchor="middle" x="60.12" y="-236.2" font-family="Helvetica,sans-Serif" font-size="14.00">samples = 36</text>
<text text-anchor="middle" x="60.12" y="-221.2" font-family="Helvetica,sans-Serif" font-size="14.00">value = [0, 36, 0]</text>
<text text-anchor="middle" x="60.12" y="-206.2" font-family="Helvetica,sans-Serif" font-size="14.00">class = versicolor</text>
</g>
<!-- 3&#45;&gt;4 -->
<g id="edge4" class="edge">
<title>3&#45;&gt;4</title>
<path fill="none" stroke="black" d="M164.37,-296.6C146.33,-284.73 126.08,-271.4 108.26,-259.68"/>
<polygon fill="black" stroke="black" points="110.47,-256.28 100.19,-253.71 106.62,-262.13 110.47,-256.28"/>
</g>
<!-- 5 -->
<g id="node6" class="node">
<title>5</title>
<polygon fill="#ab7bee" stroke="black" points="300.25,-261 138,-261 138,-193 300.25,-193 300.25,-261"/>
<text text-anchor="middle" x="219.12" y="-243.7" font-family="Helvetica,sans-Serif" font-size="14.00">petal width (cm) &lt;= 1.55</text>
<text text-anchor="middle" x="219.12" y="-228.7" font-family="Helvetica,sans-Serif" font-size="14.00">samples = 4</text>
<text text-anchor="middle" x="219.12" y="-213.7" font-family="Helvetica,sans-Serif" font-size="14.00">value = [0, 1, 3]</text>
<text text-anchor="middle" x="219.12" y="-198.7" font-family="Helvetica,sans-Serif" font-size="14.00">class = virginica</text>
</g>
<!-- 3&#45;&gt;5 -->
<g id="edge5" class="edge">
<title>3&#45;&gt;5</title>
<path fill="none" stroke="black" d="M216.43,-296.6C216.74,-288.85 217.07,-280.49 217.39,-272.35"/>
<polygon fill="black" stroke="black" points="220.92,-272.6 217.81,-262.47 213.92,-272.33 220.92,-272.6"/>
</g>
<!-- 6 -->
<g id="node7" class="node">
<title>6</title>
<polygon fill="#8139e5" stroke="black" points="124.12,-149.5 12.13,-149.5 12.13,-96.5 124.12,-96.5 124.12,-149.5"/>
<text text-anchor="middle" x="68.12" y="-132.2" font-family="Helvetica,sans-Serif" font-size="14.00">samples = 2</text>
<text text-anchor="middle" x="68.12" y="-117.2" font-family="Helvetica,sans-Serif" font-size="14.00">value = [0, 0, 2]</text>
<text text-anchor="middle" x="68.12" y="-102.2" font-family="Helvetica,sans-Serif" font-size="14.00">class = virginica</text>
</g>
<!-- 5&#45;&gt;6 -->
<g id="edge6" class="edge">
<title>5&#45;&gt;6</title>
<path fill="none" stroke="black" d="M169.68,-192.6C152.1,-180.73 132.38,-167.4 115.02,-155.68"/>
<polygon fill="black" stroke="black" points="117.43,-152.4 107.18,-149.71 113.51,-158.2 117.43,-152.4"/>
</g>
<!-- 7 -->
<g id="node8" class="node">
<title>7</title>
<polygon fill="#ffffff" stroke="black" points="305.62,-157 142.62,-157 142.62,-89 305.62,-89 305.62,-157"/>
<text text-anchor="middle" x="224.12" y="-139.7" font-family="Helvetica,sans-Serif" font-size="14.00">sepal length (cm) &lt;= 6.6</text>
<text text-anchor="middle" x="224.12" y="-124.7" font-family="Helvetica,sans-Serif" font-size="14.00">samples = 2</text>
<text text-anchor="middle" x="224.12" y="-109.7" font-family="Helvetica,sans-Serif" font-size="14.00">value = [0, 1, 1]</text>
<text text-anchor="middle" x="224.12" y="-94.7" font-family="Helvetica,sans-Serif" font-size="14.00">class = versicolor</text>
</g>
<!-- 5&#45;&gt;7 -->
<g id="edge7" class="edge">
<title>5&#45;&gt;7</title>
<path fill="none" stroke="black" d="M220.76,-192.6C221.14,-184.85 221.55,-176.49 221.95,-168.35"/>
<polygon fill="black" stroke="black" points="225.49,-168.63 222.48,-158.47 218.5,-168.29 225.49,-168.63"/>
</g>
<!-- 8 -->
<g id="node9" class="node">
<title>8</title>
<polygon fill="#39e581" stroke="black" points="217.25,-53 97,-53 97,0 217.25,0 217.25,-53"/>
<text text-anchor="middle" x="157.12" y="-35.7" font-family="Helvetica,sans-Serif" font-size="14.00">samples = 1</text>
<text text-anchor="middle" x="157.12" y="-20.7" font-family="Helvetica,sans-Serif" font-size="14.00">value = [0, 1, 0]</text>
<text text-anchor="middle" x="157.12" y="-5.7" font-family="Helvetica,sans-Serif" font-size="14.00">class = versicolor</text>
</g>
<!-- 7&#45;&gt;8 -->
<g id="edge8" class="edge">
<title>7&#45;&gt;8</title>
<path fill="none" stroke="black" d="M200.5,-88.68C194.41,-80.09 187.83,-70.81 181.69,-62.15"/>
<polygon fill="black" stroke="black" points="184.12,-60.53 175.48,-54.39 178.41,-64.58 184.12,-60.53"/>
</g>
<!-- 9 -->
<g id="node10" class="node">
<title>9</title>
<polygon fill="#8139e5" stroke="black" points="347.12,-53 235.12,-53 235.12,0 347.12,0 347.12,-53"/>
<text text-anchor="middle" x="291.12" y="-35.7" font-family="Helvetica,sans-Serif" font-size="14.00">samples = 1</text>
<text text-anchor="middle" x="291.12" y="-20.7" font-family="Helvetica,sans-Serif" font-size="14.00">value = [0, 0, 1]</text>
<text text-anchor="middle" x="291.12" y="-5.7" font-family="Helvetica,sans-Serif" font-size="14.00">class = virginica</text>
</g>
<!-- 7&#45;&gt;9 -->
<g id="edge9" class="edge">
<title>7&#45;&gt;9</title>
<path fill="none" stroke="black" d="M247.75,-88.68C253.84,-80.09 260.42,-70.81 266.56,-62.15"/>
<polygon fill="black" stroke="black" points="269.84,-64.58 272.77,-54.39 264.13,-60.53 269.84,-64.58"/>
</g>
<!-- 11 -->
<g id="node12" class="node">
<title>11</title>
<polygon fill="#c09cf2" stroke="black" points="478,-261 320.25,-261 320.25,-193 478,-193 478,-261"/>
<text text-anchor="middle" x="399.12" y="-243.7" font-family="Helvetica,sans-Serif" font-size="14.00">sepal width (cm) &lt;= 3.1</text>
<text text-anchor="middle" x="399.12" y="-228.7" font-family="Helvetica,sans-Serif" font-size="14.00">samples = 3</text>
<text text-anchor="middle" x="399.12" y="-213.7" font-family="Helvetica,sans-Serif" font-size="14.00">value = [0, 1, 2]</text>
<text text-anchor="middle" x="399.12" y="-198.7" font-family="Helvetica,sans-Serif" font-size="14.00">class = virginica</text>
</g>
<!-- 10&#45;&gt;11 -->
<g id="edge11" class="edge">
<title>10&#45;&gt;11</title>
<path fill="none" stroke="black" d="M400.47,-296.6C400.32,-288.85 400.15,-280.49 399.99,-272.35"/>
<polygon fill="black" stroke="black" points="403.48,-272.4 399.78,-262.47 396.48,-272.54 403.48,-272.4"/>
</g>
<!-- 14 -->
<g id="node15" class="node">
<title>14</title>
<polygon fill="#8139e5" stroke="black" points="612.38,-253.5 495.88,-253.5 495.88,-200.5 612.38,-200.5 612.38,-253.5"/>
<text text-anchor="middle" x="554.12" y="-236.2" font-family="Helvetica,sans-Serif" font-size="14.00">samples = 34</text>
<text text-anchor="middle" x="554.12" y="-221.2" font-family="Helvetica,sans-Serif" font-size="14.00">value = [0, 0, 34]</text>
<text text-anchor="middle" x="554.12" y="-206.2" font-family="Helvetica,sans-Serif" font-size="14.00">class = virginica</text>
</g>
<!-- 10&#45;&gt;14 -->
<g id="edge14" class="edge">
<title>10&#45;&gt;14</title>
<path fill="none" stroke="black" d="M451.22,-296.6C469.03,-284.73 489.02,-271.4 506.61,-259.68"/>
<polygon fill="black" stroke="black" points="508.19,-262.17 514.57,-253.71 504.3,-256.34 508.19,-262.17"/>
</g>
<!-- 12 -->
<g id="node13" class="node">
<title>12</title>
<polygon fill="#8139e5" stroke="black" points="451.12,-149.5 339.12,-149.5 339.12,-96.5 451.12,-96.5 451.12,-149.5"/>
<text text-anchor="middle" x="395.12" y="-132.2" font-family="Helvetica,sans-Serif" font-size="14.00">samples = 2</text>
<text text-anchor="middle" x="395.12" y="-117.2" font-family="Helvetica,sans-Serif" font-size="14.00">value = [0, 0, 2]</text>
<text text-anchor="middle" x="395.12" y="-102.2" font-family="Helvetica,sans-Serif" font-size="14.00">class = virginica</text>
</g>
<!-- 11&#45;&gt;12 -->
<g id="edge12" class="edge">
<title>11&#45;&gt;12</title>
<path fill="none" stroke="black" d="M397.82,-192.6C397.41,-182.36 396.97,-171.04 396.56,-160.6"/>
<polygon fill="black" stroke="black" points="400.02,-160.56 396.13,-150.71 393.03,-160.84 400.02,-160.56"/>
</g>
<!-- 13 -->
<g id="node14" class="node">
<title>13</title>
<polygon fill="#39e581" stroke="black" points="589.25,-149.5 469,-149.5 469,-96.5 589.25,-96.5 589.25,-149.5"/>
<text text-anchor="middle" x="529.12" y="-132.2" font-family="Helvetica,sans-Serif" font-size="14.00">samples = 1</text>
<text text-anchor="middle" x="529.12" y="-117.2" font-family="Helvetica,sans-Serif" font-size="14.00">value = [0, 1, 0]</text>
<text text-anchor="middle" x="529.12" y="-102.2" font-family="Helvetica,sans-Serif" font-size="14.00">class = versicolor</text>
</g>
<!-- 11&#45;&gt;13 -->
<g id="edge13" class="edge">
<title>11&#45;&gt;13</title>
<path fill="none" stroke="black" d="M441.69,-192.6C456.55,-180.94 473.19,-167.89 487.93,-156.32"/>
<polygon fill="black" stroke="black" points="489.66,-158.63 495.36,-149.71 485.33,-153.13 489.66,-158.63"/>
</g>
</g>
</svg>