<?xml version="1.0" encoding="UTF-8" standalone="no"?>
<!DOCTYPE svg PUBLIC "-//W3C//DTD SVG 1.1//EN"
 "http://www.w3.org/Graphics/SVG/1.1/DTD/svg11.dtd">
<!-- Generated by graphviz version 8.0.5 (20230430.1635)
 -->
<!-- Title: Tree Pages: 1 -->
<svg width="671pt" height="581pt"
 viewBox="0.00 0.00 671.25 581.00" xmlns="http://www.w3.org/2000/svg" xmlns:xlink="http://www.w3.org/1999/xlink">
<g id="graph0" class="graph" transform="scale(1 1) rotate(0) translate(4 577)">
<title>Tree</title>
<polygon fill="white" stroke="none" points="-4,4 -4,-577 667.25,-577 667.25,4 -4,4"/>
<!-- 0 -->
<g id="node1" class="node">
<title>0</title>
<polygon fill="#fdfcff" stroke="black" points="362.75,-573 195.25,-573 195.25,-505 362.75,-505 362.75,-573"/>
<text text-anchor="middle" x="279" y="-555.7" font-family="Helvetica,sans-Serif" font-size="14.00">petal length (cm) &lt;= 2.45</text>
<text text-anchor="middle" x="279" y="-540.7" font-family="Helvetica,sans-Serif" font-size="14.00">samples = 112</text>
<text text-anchor="middle" x="279" y="-525.7" font-family="Helvetica,sans-Serif" font-size="14.00">value = [35, 38, 39]</text>
<text text-anchor="middle" x="279" y="-510.7" font-family="Helvetica,sans-Serif" font-size="14.00">class = virginica</text>
</g>
<!-- 1 -->
<g id="node2" class="node">
<title>1</title>
<polygon fill="#e58139" stroke="black" points="259.25,-461.5 142.75,-461.5 142.75,-408.5 259.25,-408.5 259.25,-461.5"/>
<text text-anchor="middle" x="201" y="-444.2" font-family="Helvetica,sans-Serif" font-size="14.00">samples = 35</text>
<text text-anchor="middle" x="201" y="-429.2" font-family="Helvetica,sans-Serif" font-size="14.00">value = [35, 0, 0]</text>
<text text-anchor="middle" x="201" y="-414.2" font-family="Helvetica,sans-Serif" font-size="14.00">class = setosa</text>
</g>
<!-- 0&#45;&gt;1 -->
<g id="edge1" class="edge">
<title>0&#45;&gt;1</title>
<path fill="none" stroke="black" d="M253.46,-504.6C245.05,-493.6 235.68,-481.35 227.22,-470.28"/>
<polygon fill="black" stroke="black" points="229.51,-468.52 220.66,-462.71 223.95,-472.78 229.51,-468.52"/>
<text text-anchor="middle" x="217.35" y="-480.69" font-family="Helvetica,sans-Serif" font-size="14.00">True</text>
</g>
<!-- 2 -->
<g id="node3" class="node">
<title>2</title>
<polygon fill="#fcfafe" stroke="black" points="439.12,-469 276.88,-469 276.88,-401 439.12,-401 439.12,-469"/>
<text text-anchor="middle" x="358" y="-451.7" font-family="Helvetica,sans-Serif" font-size="14.00">petal width (cm) &lt;= 1.65</text>
<text text-anchor="middle" x="358" y="-436.7" font-family="Helvetica,sans-Serif" font-size="14.00">samples = 77</text>
<text text-anchor="middle" x="358" y="-421.7" font-family="Helvetica,sans-Serif" font-size="14.00">value = [0, 38, 39]</text>
<text text-anchor="middle" x="358" y="-406.7" font-family="Helvetica,sans-Serif" font-size="14.00">class = virginica</text>
</g>
<!-- 0&#45;&gt;2 -->
<g id="edge2" class="edge">
<title>0&#45;&gt;2</title>
<path fill="none" stroke="black" d="M304.87,-504.6C311.41,-496.15 318.53,-486.96 325.37,-478.13"/>
<polygon fill="black" stroke="black" points="328.72,-480.52 332.07,-470.47 323.18,-476.24 328.72,-480.52"/>
<text text-anchor="middle" x="335.23" y="-488.47" font-family="Helvetica,sans-Serif" font-size="14.00">False</text>
</g>
<!-- 3 -->
<g id="node4" class="node">
<title>3</title>
<polygon fill="#49e78b" stroke="black" points="348.75,-365 181.25,-365 181.25,-297 348.75,-297 348.75,-365"/>
<text text-anchor="middle" x="265" y="-347.7" font-family="Helvetica,sans-Serif" font-size="14.00">petal length (cm) &lt;= 4.95</text>
<text text-anchor="middle" x="265" y="-332.7" font-family="Helvetica,sans-Serif" font-size="14.00">samples = 40</text>
<text text-anchor="middle" x="265" y="-317.7" font-family="Helvetica,sans-Serif" font-size="14.00">value = [0, 37, 3]</text>
<text text-anchor="middle" x="265" y="-302.7" font-family="Helvetica,sans-Serif" font-size="14.00">class = versicolor</text>
</g>
<!-- 2&#45;&gt;3 -->
<g id="edge3" class="edge">
<title>2&#45;&gt;3</title>
<path fill="none" stroke="black" d="M327.55,-400.6C319.68,-391.97 311.11,-382.58 302.91,-373.58"/>
<polygon fill="black" stroke="black" points="305.84,-371.51 296.52,-366.47 300.67,-376.22 305.84,-371.51"/>
</g>
<!-- 10 -->
<g id="node11" class="node">
<title>10</title>
<polygon fill="#843ee6" stroke="black" points="534.75,-365 367.25,-365 367.25,-297 534.75,-297 534.75,-365"/>
<text text-anchor="middle" x="451" y="-347.7" font-family="Helvetica,sans-Serif" font-size="14.00">petal length (cm) &lt;= 4.85</text>
<text text-anchor="middle" x="451" y="-332.7" font-family="Helvetica,sans-Serif" font-size="14.00">samples = 37</text>
<text text-anchor="middle" x="451" y="-317.7" font-family="Helvetica,sans-Serif" font-size="14.00">value = [0, 1, 36]</text>
<text text-anchor="middle" x="451" y="-302.7" font-family="Helvetica,sans-Serif" font-size="14.00">class = virginica</text>
</g>
<!-- 2&#45;&gt;10 -->
<g id="edge10" class="edge">
<title>2&#45;&gt;10</title>
<path fill="none" stroke="black" d="M388.45,-400.6C396.32,-391.97 404.89,-382.58 413.09,-373.58"/>
<polygon fill="black" stroke="black" points="415.33,-376.22 419.48,-366.47 410.16,-371.51 415.33,-376.22"/>
</g>
<!-- 4 -->
<g id="node5" class="node">
<title>4</title>
<polygon fill="#39e581" stroke="black" points="167.12,-253.5 46.88,-253.5 46.88,-200.5 167.12,-200.5 167.12,-253.5"/>
<text text-anchor="middle" x="107" y="-236.2" font-family="Helvetica,sans-Serif" font-size="14.00">samples = 36</text>
<text text-anchor="middle" x="107" y="-221.2" font-family="Helvetica,sans-Serif" font-size="14.00">value = [0, 36, 0]</text>
<text text-anchor="middle" x="107" y="-206.2" font-family="Helvetica,sans-Serif" font-size="14.00">class = versicolor</text>
</g>
<!-- 3&#45;&gt;4 -->
<g id="edge4" class="edge">
<title>3&#45;&gt;4</title>
<path fill="none" stroke="black" d="M213.26,-296.6C194.95,-284.78 174.4,-271.51 156.29,-259.82"/>
<polygon fill="black" stroke="black" points="158.37,-256.35 148.07,-253.87 154.57,-262.23 158.37,-256.35"/>
</g>
<!-- 5 -->
<g id="node6" class="node">
<title>5</title>
<polygon fill="#ab7bee" stroke="black" points="350.62,-261 185.38,-261 185.38,-193 350.62,-193 350.62,-261"/>
<text text-anchor="middle" x="268" y="-243.7" font-family="Helvetica,sans-Serif" font-size="14.00">sepal width (cm) &lt;= 2.75</text>
<text text-anchor="middle" x="268" y="-228.7" font-family="Helvetica,sans-Serif" font-size="14.00">samples = 4</text>
<text text-anchor="middle" x="268" y="-213.7" font-family="Helvetica,sans-Serif" font-size="14.00">value = [0, 1, 3]</text>
<text text-anchor="middle" x="268" y="-198.7" font-family="Helvetica,sans-Serif" font-size="14.00">class = virginica</text>
</g>
<!-- 3&#45;&gt;5 -->
<g id="edge5" class="edge">
<title>3&#45;&gt;5</title>
<path fill="none" stroke="black" d="M265.98,-296.6C266.21,-288.85 266.46,-280.49 266.7,-272.35"/>
<polygon fill="black" stroke="black" points="270.22,-272.57 267.02,-262.47 263.22,-272.37 270.22,-272.57"/>
</g>
<!-- 6 -->
<g id="node7" class="node">
<title>6</title>
<polygon fill="#ffffff" stroke="black" points="205.62,-157 40.38,-157 40.38,-89 205.62,-89 205.62,-157"/>
<text text-anchor="middle" x="123" y="-139.7" font-family="Helvetica,sans-Serif" font-size="14.00">sepal width (cm) &lt;= 2.45</text>
<text text-anchor="middle" x="123" y="-124.7" font-family="Helvetica,sans-Serif" font-size="14.00">samples = 2</text>
<text text-anchor="middle" x="123" y="-109.7" font-family="Helvetica,sans-Serif" font-size="14.00">value = [0, 1, 1]</text>
<text text-anchor="middle" x="123" y="-94.7" font-family="Helvetica,sans-Serif" font-size="14.00">class = versicolor</text>
</g>
<!-- 5&#45;&gt;6 -->
<g id="edge6" class="edge">
<title>5&#45;&gt;6</title>
<path fill="none" stroke="black" d="M220.52,-192.6C207.38,-183.36 192.98,-173.23 179.38,-163.66"/>
<polygon fill="black" stroke="black" points="181.78,-160.36 171.59,-157.47 177.75,-166.09 181.78,-160.36"/>
</g>
<!-- 9 -->
<g id="node10" class="node">
<title>9</title>
<polygon fill="#8139e5" stroke="black" points="336,-149.5 224,-149.5 224,-96.5 336,-96.5 336,-149.5"/>
<text text-anchor="middle" x="280" y="-132.2" font-family="Helvetica,sans-Serif" font-size="14.00">samples = 2</text>
<text text-anchor="middle" x="280" y="-117.2" font-family="Helvetica,sans-Serif" font-size="14.00">value = [0, 0, 2]</text>
<text text-anchor="middle" x="280" y="-102.2" font-family="Helvetica,sans-Serif" font-size="14.00">class = virginica</text>
</g>
<!-- 5&#45;&gt;9 -->
<g id="edge9" class="edge">
<title>5&#45;&gt;9</title>
<path fill="none" stroke="black" d="M271.93,-192.6C273.13,-182.36 274.47,-171.04 275.69,-160.6"/>
<polygon fill="black" stroke="black" points="279.28,-161.05 276.98,-150.71 272.33,-160.23 279.28,-161.05"/>
</g>
<!-- 7 -->
<g id="node8" class="node">
<title>7</title>
<polygon fill="#8139e5" stroke="black" points="112,-53 0,-53 0,0 112,0 112,-53"/>
<text text-anchor="middle" x="56" y="-35.7" font-family="Helvetica,sans-Serif" font-size="14.00">samples = 1</text>
<text text-anchor="middle" x="56" y="-20.7" font-family="Helvetica,sans-Serif" font-size="14.00">value = [0, 0, 1]</text>
<text text-anchor="middle" x="56" y="-5.7" font-family="Helvetica,sans-Serif" font-size="14.00">class = virginica</text>
</g>
<!-- 6&#45;&gt;7 -->
<g id="edge7" class="edge">
<title>6&#45;&gt;7</title>
<path fill="none" stroke="black" d="M99.38,-88.68C93.28,-80.09 86.71,-70.81 80.57,-62.15"/>
<polygon fill="black" stroke="black" points="83,-60.53 74.36,-54.39 77.29,-64.58 83,-60.53"/>
</g>
<!-- 8 -->
<g id="node9" class="node">
<title>8</title>
<polygon fill="#39e581" stroke="black" points="250.12,-53 129.88,-53 129.88,0 250.12,0 250.12,-53"/>
<text text-anchor="middle" x="190" y="-35.7" font-family="Helvetica,sans-Serif" font-size="14.00">samples = 1</text>
<text text-anchor="middle" x="190" y="-20.7" font-family="Helvetica,sans-Serif" font-size="14.00">value = [0, 1, 0]</text>
<text text-anchor="middle" x="190" y="-5.7" font-family="Helvetica,sans-Serif" font-size="14.00">class = versicolor</text>
</g>
<!-- 6&#45;&gt;8 -->
<g id="edge8" class="edge">
<title>6&#45;&gt;8</title>
<path fill="none" stroke="black" d="M146.62,-88.68C152.72,-80.09 159.29,-70.81 165.43,-62.15"/>
<polygon fill="black" stroke="black" points="168.71,-64.58 171.64,-54.39 163,-60.53 168.71,-64.58"/>
</g>
<!-- 11 -->
<g id="node12" class="node">
<title>11</title>
<polygon fill="#c09cf2" stroke="black" points="528.88,-261 371.12,-261 371.12,-193 528.88,-193 528.88,-261"/>
<text text-anchor="middle" x="450" y="-243.7" font-family="Helvetica,sans-Serif" font-size="14.00">sepal width (cm) &lt;= 3.1</text>
<text text-anchor="middle" x="450" y="-228.7" font-family="Helvetica,sans-Serif" font-size="14.00">samples = 3</text>
<text text-anchor="middle" x="450" y="-213.7" font-family="Helvetica,sans-Serif" font-size="14.00">value = [0, 1, 2]</text>
<text text-anchor="middle" x="450" y="-198.7" font-family="Helvetica,sans-Serif" font-size="14.00">class = virginica</text>
</g>
<!-- 10&#45;&gt;11 -->
<g id="edge11" class="edge">
<title>10&#45;&gt;11</title>
<path fill="none" stroke="black" d="M450.67,-296.6C450.6,-288.85 450.51,-280.49 450.43,-272.35"/>
<polygon fill="black" stroke="black" points="453.93,-272.44 450.33,-262.47 446.93,-272.51 453.93,-272.44"/>
</g>
<!-- 14 -->
<g id="node15" class="node">
<title>14</title>
<polygon fill="#8139e5" stroke="black" points="663.25,-253.5 546.75,-253.5 546.75,-200.5 663.25,-200.5 663.25,-253.5"/>
<text text-anchor="middle" x="605" y="-236.2" font-family="Helvetica,sans-Serif" font-size="14.00">samples = 34</text>
<text text-anchor="middle" x="605" y="-221.2" font-family="Helvetica,sans-Serif" font-size="14.00">value = [0, 0, 34]</text>
<text text-anchor="middle" x="605" y="-206.2" font-family="Helvetica,sans-Serif" font-size="14.00">class = virginica</text>
</g>
<!-- 10&#45;&gt;14 -->
<g id="edge14" class="edge">
<title>10&#45;&gt;14</title>
<path fill="none" stroke="black" d="M501.43,-296.6C519.35,-284.73 539.47,-271.4 557.18,-259.68"/>
<polygon fill="black" stroke="black" points="558.78,-262.15 565.19,-253.71 554.92,-256.31 558.78,-262.15"/>
</g>
<!-- 12 -->
<g id="node13" class="node">
<title>12</title>
<polygon fill="#8139e5" stroke="black" points="494,-149.5 382,-149.5 382,-96.5 494,-96.5 494,-149.5"/>
<text text-anchor="middle" x="438" y="-132.2" font-family="Helvetica,sans-Serif" font-size="14.00">samples = 2</text>
<text text-anchor="middle" x="438" y="-117.2" font-family="Helvetica,sans-Serif" font-size="14.00">value = [0, 0, 2]</text>
<text text-anchor="middle" x="438" y="-102.2" font-family="Helvetica,sans-Serif" font-size="14.00">class = virginica</text>
</g>
<!-- 11&#45;&gt;12 -->
<g id="edge12" class="edge">
<title>11&#45;&gt;12</title>
<path fill="none" stroke="black" d="M446.07,-192.6C444.87,-182.36 443.53,-171.04 442.31,-160.6"/>
<polygon fill="black" stroke="black" points="445.67,-160.23 441.02,-150.71 438.72,-161.05 445.67,-160.23"/>
</g>
<!-- 13 -->
<g id="node14" class="node">
<title>13</title>
<polygon fill="#39e581" stroke="black" points="632.12,-149.5 511.88,-149.5 511.88,-96.5 632.12,-96.5 632.12,-149.5"/>
<text text-anchor="middle" x="572" y="-132.2" font-family="Helvetica,sans-Serif" font-size="14.00">samples = 1</text>
<text text-anchor="middle" x="572" y="-117.2" font-family="Helvetica,sans-Serif" font-size="14.00">value = [0, 1, 0]</text>
<text text-anchor="middle" x="572" y="-102.2" font-family="Helvetica,sans-Serif" font-size="14.00">class = versicolor</text>
</g>
<!-- 11&#45;&gt;13 -->
<g id="edge13" class="edge">
<title>11&#45;&gt;13</title>
<path fill="none" stroke="black" d="M489.95,-192.6C503.76,-181.05 519.21,-168.13 532.95,-156.65"/>
<polygon fill="black" stroke="black" points="534.83,-158.81 540.25,-149.71 530.34,-153.44 534.83,-158.81"/>
</g>
</g>
</svg>