<?xml version="1.0" encoding="UTF-8" standalone="no"?>
<!DOCTYPE svg PUBLIC "-//W3C//DTD SVG 1.1//EN"
 "http://www.w3.org/Graphics/SVG/1.1/DTD/svg11.dtd">
<!-- Generated by graphviz version 2.50.0 (0)
 -->
<!-- Title: Tree Pages: 1 -->
<svg width="675pt" height="581pt"
 viewBox="0.00 0.00 675.00 581.00" xmlns="http://www.w3.org/2000/svg" xmlns:xlink="http://www.w3.org/1999/xlink">
<g id="graph0" class="graph" transform="scale(1 1) rotate(0) translate(4 577)">
<title>Tree</title>
<polygon fill="white" stroke="transparent" points="-4,4 -4,-577 671,-577 671,4 -4,4"/>
<!-- 0 -->
<g id="node1" class="node">
<title>0</title>
<polygon fill="#fdfcff" stroke="black" points="365.5,-573 197.5,-573 197.5,-505 365.5,-505 365.5,-573"/>
<text text-anchor="middle" x="281.5" y="-557.8" font-family="Helvetica,sans-Serif" font-size="14.00">petal length (cm) &lt;= 2.45</text>
<text text-anchor="middle" x="281.5" y="-542.8" font-family="Helvetica,sans-Serif" font-size="14.00">samples = 112</text>
<text text-anchor="middle" x="281.5" y="-527.8" font-family="Helvetica,sans-Serif" font-size="14.00">value = [35, 38, 39]</text>
<text text-anchor="middle" x="281.5" y="-512.8" font-family="Helvetica,sans-Serif" font-size="14.00">class = virginica</text>
</g>
<!-- 1 -->
<g id="node2" class="node">
<title>1</title>
<polygon fill="#e58139" stroke="black" points="261,-461.5 144,-461.5 144,-408.5 261,-408.5 261,-461.5"/>
<text text-anchor="middle" x="202.5" y="-446.3" font-family="Helvetica,sans-Serif" font-size="14.00">samples = 35</text>
<text text-anchor="middle" x="202.5" y="-431.3" font-family="Helvetica,sans-Serif" font-size="14.00">value = [35, 0, 0]</text>
<text text-anchor="middle" x="202.5" y="-416.3" font-family="Helvetica,sans-Serif" font-size="14.00">class = setosa</text>
</g>
<!-- 0&#45;&gt;1 -->
<g id="edge1" class="edge">
<title>0&#45;&gt;1</title>
<path fill="none" stroke="black" d="M255.85,-504.88C247.08,-493.56 237.26,-480.88 228.46,-469.52"/>
<polygon fill="black" stroke="black" points="231.16,-467.28 222.27,-461.52 225.62,-471.57 231.16,-467.28"/>
<text text-anchor="middle" x="219.11" y="-482.62" font-family="Helvetica,sans-Serif" font-size="14.00">True</text>
</g>
<!-- 2 -->
<g id="node3" class="node">
<title>2</title>
<polygon fill="#fcfafe" stroke="black" points="442,-469 279,-469 279,-401 442,-401 442,-469"/>
<text text-anchor="middle" x="360.5" y="-453.8" font-family="Helvetica,sans-Serif" font-size="14.00">petal width (cm) &lt;= 1.65</text>
<text text-anchor="middle" x="360.5" y="-438.8" font-family="Helvetica,sans-Serif" font-size="14.00">samples = 77</text>
<text text-anchor="middle" x="360.5" y="-423.8" font-family="Helvetica,sans-Serif" font-size="14.00">value = [0, 38, 39]</text>
<text text-anchor="middle" x="360.5" y="-408.8" font-family="Helvetica,sans-Serif" font-size="14.00">class = virginica</text>
</g>
<!-- 0&#45;&gt;2 -->
<g id="edge2" class="edge">
<title>0&#45;&gt;2</title>
<path fill="none" stroke="black" d="M307.15,-504.88C313.98,-496.07 321.44,-486.43 328.56,-477.24"/>
<polygon fill="black" stroke="black" points="331.35,-479.35 334.71,-469.3 325.82,-475.06 331.35,-479.35"/>
<text text-anchor="middle" x="337.86" y="-490.4" font-family="Helvetica,sans-Serif" font-size="14.00">False</text>
</g>
<!-- 3 -->
<g id="node4" class="node">
<title>3</title>
<polygon fill="#49e78b" stroke="black" points="351.5,-365 183.5,-365 183.5,-297 351.5,-297 351.5,-365"/>
<text text-anchor="middle" x="267.5" y="-349.8" font-family="Helvetica,sans-Serif" font-size="14.00">petal length (cm) &lt;= 4.95</text>
<text text-anchor="middle" x="267.5" y="-334.8" font-family="Helvetica,sans-Serif" font-size="14.00">samples = 40</text>
<text text-anchor="middle" x="267.5" y="-319.8" font-family="Helvetica,sans-Serif" font-size="14.00">value = [0, 37, 3]</text>
<text text-anchor="middle" x="267.5" y="-304.8" font-family="Helvetica,sans-Serif" font-size="14.00">class = versicolor</text>
</g>
<!-- 2&#45;&gt;3 -->
<g id="edge3" class="edge">
<title>2&#45;&gt;3</title>
<path fill="none" stroke="black" d="M330.31,-400.88C322.18,-391.98 313.3,-382.24 304.84,-372.96"/>
<polygon fill="black" stroke="black" points="307.19,-370.33 297.86,-365.3 302.01,-375.05 307.19,-370.33"/>
</g>
<!-- 10 -->
<g id="node11" class="node">
<title>10</title>
<polygon fill="#843ee6" stroke="black" points="537.5,-365 369.5,-365 369.5,-297 537.5,-297 537.5,-365"/>
<text text-anchor="middle" x="453.5" y="-349.8" font-family="Helvetica,sans-Serif" font-size="14.00">petal length (cm) &lt;= 4.85</text>
<text text-anchor="middle" x="453.5" y="-334.8" font-family="Helvetica,sans-Serif" font-size="14.00">samples = 37</text>
<text text-anchor="middle" x="453.5" y="-319.8" font-family="Helvetica,sans-Serif" font-size="14.00">value = [0, 1, 36]</text>
<text text-anchor="middle" x="453.5" y="-304.8" font-family="Helvetica,sans-Serif" font-size="14.00">class = virginica</text>
</g>
<!-- 2&#45;&gt;10 -->
<g id="edge10" class="edge">
<title>2&#45;&gt;10</title>
<path fill="none" stroke="black" d="M390.69,-400.88C398.82,-391.98 407.7,-382.24 416.16,-372.96"/>
<polygon fill="black" stroke="black" points="418.99,-375.05 423.14,-365.3 413.81,-370.33 418.99,-375.05"/>
</g>
<!-- 4 -->
<g id="node5" class="node">
<title>4</title>
<polygon fill="#39e581" stroke="black" points="165,-253.5 44,-253.5 44,-200.5 165,-200.5 165,-253.5"/>
<text text-anchor="middle" x="104.5" y="-238.3" font-family="Helvetica,sans-Serif" font-size="14.00">samples = 36</text>
<text text-anchor="middle" x="104.5" y="-223.3" font-family="Helvetica,sans-Serif" font-size="14.00">value = [0, 36, 0]</text>
<text text-anchor="middle" x="104.5" y="-208.3" font-family="Helvetica,sans-Serif" font-size="14.00">class = versicolor</text>
</g>
<!-- 3&#45;&gt;4 -->
<g id="edge4" class="edge">
<title>3&#45;&gt;4</title>
<path fill="none" stroke="black" d="M214.58,-296.88C195.07,-284.68 173.06,-270.9 153.88,-258.9"/>
<polygon fill="black" stroke="black" points="155.62,-255.86 145.28,-253.52 151.9,-261.79 155.62,-255.86"/>
</g>
<!-- 5 -->
<g id="node6" class="node">
<title>5</title>
<polygon fill="#ab7bee" stroke="black" points="354,-261 183,-261 183,-193 354,-193 354,-261"/>
<text text-anchor="middle" x="268.5" y="-245.8" font-family="Helvetica,sans-Serif" font-size="14.00">sepal length (cm) &lt;= 6.15</text>
<text text-anchor="middle" x="268.5" y="-230.8" font-family="Helvetica,sans-Serif" font-size="14.00">samples = 4</text>
<text text-anchor="middle" x="268.5" y="-215.8" font-family="Helvetica,sans-Serif" font-size="14.00">value = [0, 1, 3]</text>
<text text-anchor="middle" x="268.5" y="-200.8" font-family="Helvetica,sans-Serif" font-size="14.00">class = virginica</text>
</g>
<!-- 3&#45;&gt;5 -->
<g id="edge5" class="edge">
<title>3&#45;&gt;5</title>
<path fill="none" stroke="black" d="M267.82,-296.88C267.9,-288.78 267.99,-279.98 268.07,-271.47"/>
<polygon fill="black" stroke="black" points="271.58,-271.33 268.17,-261.3 264.58,-271.26 271.58,-271.33"/>
</g>
<!-- 6 -->
<g id="node7" class="node">
<title>6</title>
<polygon fill="#ffffff" stroke="black" points="206.5,-157 40.5,-157 40.5,-89 206.5,-89 206.5,-157"/>
<text text-anchor="middle" x="123.5" y="-141.8" font-family="Helvetica,sans-Serif" font-size="14.00">sepal width (cm) &lt;= 2.45</text>
<text text-anchor="middle" x="123.5" y="-126.8" font-family="Helvetica,sans-Serif" font-size="14.00">samples = 2</text>
<text text-anchor="middle" x="123.5" y="-111.8" font-family="Helvetica,sans-Serif" font-size="14.00">value = [0, 1, 1]</text>
<text text-anchor="middle" x="123.5" y="-96.8" font-family="Helvetica,sans-Serif" font-size="14.00">class = versicolor</text>
</g>
<!-- 5&#45;&gt;6 -->
<g id="edge6" class="edge">
<title>5&#45;&gt;6</title>
<path fill="none" stroke="black" d="M221.42,-192.88C208,-183.44 193.25,-173.06 179.36,-163.29"/>
<polygon fill="black" stroke="black" points="181.03,-160.19 170.84,-157.3 177,-165.92 181.03,-160.19"/>
</g>
<!-- 9 -->
<g id="node10" class="node">
<title>9</title>
<polygon fill="#8139e5" stroke="black" points="338,-149.5 225,-149.5 225,-96.5 338,-96.5 338,-149.5"/>
<text text-anchor="middle" x="281.5" y="-134.3" font-family="Helvetica,sans-Serif" font-size="14.00">samples = 2</text>
<text text-anchor="middle" x="281.5" y="-119.3" font-family="Helvetica,sans-Serif" font-size="14.00">value = [0, 0, 2]</text>
<text text-anchor="middle" x="281.5" y="-104.3" font-family="Helvetica,sans-Serif" font-size="14.00">class = virginica</text>
</g>
<!-- 5&#45;&gt;9 -->
<g id="edge9" class="edge">
<title>5&#45;&gt;9</title>
<path fill="none" stroke="black" d="M272.72,-192.88C274.08,-182.22 275.59,-170.35 276.97,-159.52"/>
<polygon fill="black" stroke="black" points="280.46,-159.88 278.25,-149.52 273.51,-159 280.46,-159.88"/>
</g>
<!-- 7 -->
<g id="node8" class="node">
<title>7</title>
<polygon fill="#8139e5" stroke="black" points="113,-53 0,-53 0,0 113,0 113,-53"/>
<text text-anchor="middle" x="56.5" y="-37.8" font-family="Helvetica,sans-Serif" font-size="14.00">samples = 1</text>
<text text-anchor="middle" x="56.5" y="-22.8" font-family="Helvetica,sans-Serif" font-size="14.00">value = [0, 0, 1]</text>
<text text-anchor="middle" x="56.5" y="-7.8" font-family="Helvetica,sans-Serif" font-size="14.00">class = virginica</text>
</g>
<!-- 6&#45;&gt;7 -->
<g id="edge7" class="edge">
<title>6&#45;&gt;7</title>
<path fill="none" stroke="black" d="M100.07,-88.95C93.78,-80.07 86.96,-70.46 80.63,-61.54"/>
<polygon fill="black" stroke="black" points="83.39,-59.37 74.75,-53.24 77.68,-63.42 83.39,-59.37"/>
</g>
<!-- 8 -->
<g id="node9" class="node">
<title>8</title>
<polygon fill="#39e581" stroke="black" points="252,-53 131,-53 131,0 252,0 252,-53"/>
<text text-anchor="middle" x="191.5" y="-37.8" font-family="Helvetica,sans-Serif" font-size="14.00">samples = 1</text>
<text text-anchor="middle" x="191.5" y="-22.8" font-family="Helvetica,sans-Serif" font-size="14.00">value = [0, 1, 0]</text>
<text text-anchor="middle" x="191.5" y="-7.8" font-family="Helvetica,sans-Serif" font-size="14.00">class = versicolor</text>
</g>
<!-- 6&#45;&gt;8 -->
<g id="edge8" class="edge">
<title>6&#45;&gt;8</title>
<path fill="none" stroke="black" d="M147.28,-88.95C153.67,-80.07 160.58,-70.46 167.01,-61.54"/>
<polygon fill="black" stroke="black" points="169.98,-63.4 172.98,-53.24 164.3,-59.31 169.98,-63.4"/>
</g>
<!-- 11 -->
<g id="node12" class="node">
<title>11</title>
<polygon fill="#c09cf2" stroke="black" points="531.5,-261 373.5,-261 373.5,-193 531.5,-193 531.5,-261"/>
<text text-anchor="middle" x="452.5" y="-245.8" font-family="Helvetica,sans-Serif" font-size="14.00">sepal width (cm) &lt;= 3.1</text>
<text text-anchor="middle" x="452.5" y="-230.8" font-family="Helvetica,sans-Serif" font-size="14.00">samples = 3</text>
<text text-anchor="middle" x="452.5" y="-215.8" font-family="Helvetica,sans-Serif" font-size="14.00">value = [0, 1, 2]</text>
<text text-anchor="middle" x="452.5" y="-200.8" font-family="Helvetica,sans-Serif" font-size="14.00">class = virginica</text>
</g>
<!-- 10&#45;&gt;11 -->
<g id="edge11" class="edge">
<title>10&#45;&gt;11</title>
<path fill="none" stroke="black" d="M453.18,-296.88C453.1,-288.78 453.01,-279.98 452.93,-271.47"/>
<polygon fill="black" stroke="black" points="456.42,-271.26 452.83,-261.3 449.42,-271.33 456.42,-271.26"/>
</g>
<!-- 14 -->
<g id="node15" class="node">
<title>14</title>
<polygon fill="#8139e5" stroke="black" points="667,-253.5 550,-253.5 550,-200.5 667,-200.5 667,-253.5"/>
<text text-anchor="middle" x="608.5" y="-238.3" font-family="Helvetica,sans-Serif" font-size="14.00">samples = 34</text>
<text text-anchor="middle" x="608.5" y="-223.3" font-family="Helvetica,sans-Serif" font-size="14.00">value = [0, 0, 34]</text>
<text text-anchor="middle" x="608.5" y="-208.3" font-family="Helvetica,sans-Serif" font-size="14.00">class = virginica</text>
</g>
<!-- 10&#45;&gt;14 -->
<g id="edge14" class="edge">
<title>10&#45;&gt;14</title>
<path fill="none" stroke="black" d="M503.82,-296.88C522.21,-284.79 542.93,-271.15 561.05,-259.22"/>
<polygon fill="black" stroke="black" points="563.29,-261.94 569.72,-253.52 559.44,-256.09 563.29,-261.94"/>
</g>
<!-- 12 -->
<g id="node13" class="node">
<title>12</title>
<polygon fill="#8139e5" stroke="black" points="496,-149.5 383,-149.5 383,-96.5 496,-96.5 496,-149.5"/>
<text text-anchor="middle" x="439.5" y="-134.3" font-family="Helvetica,sans-Serif" font-size="14.00">samples = 2</text>
<text text-anchor="middle" x="439.5" y="-119.3" font-family="Helvetica,sans-Serif" font-size="14.00">value = [0, 0, 2]</text>
<text text-anchor="middle" x="439.5" y="-104.3" font-family="Helvetica,sans-Serif" font-size="14.00">class = virginica</text>
</g>
<!-- 11&#45;&gt;12 -->
<g id="edge12" class="edge">
<title>11&#45;&gt;12</title>
<path fill="none" stroke="black" d="M448.28,-192.88C446.92,-182.22 445.41,-170.35 444.03,-159.52"/>
<polygon fill="black" stroke="black" points="447.49,-159 442.75,-149.52 440.54,-159.88 447.49,-159"/>
</g>
<!-- 13 -->
<g id="node14" class="node">
<title>13</title>
<polygon fill="#39e581" stroke="black" points="635,-149.5 514,-149.5 514,-96.5 635,-96.5 635,-149.5"/>
<text text-anchor="middle" x="574.5" y="-134.3" font-family="Helvetica,sans-Serif" font-size="14.00">samples = 1</text>
<text text-anchor="middle" x="574.5" y="-119.3" font-family="Helvetica,sans-Serif" font-size="14.00">value = [0, 1, 0]</text>
<text text-anchor="middle" x="574.5" y="-104.3" font-family="Helvetica,sans-Serif" font-size="14.00">class = versicolor</text>
</g>
<!-- 11&#45;&gt;13 -->
<g id="edge13" class="edge">
<title>11&#45;&gt;13</title>
<path fill="none" stroke="black" d="M492.11,-192.88C506.19,-181.12 522,-167.89 535.98,-156.2"/>
<polygon fill="black" stroke="black" points="538.55,-158.62 543.98,-149.52 534.06,-153.25 538.55,-158.62"/>
</g>
</g>
</svg>